<svg width="32" height="32" viewBox="0 0 32 32" fill="none" xmlns="http://www.w3.org/2000/svg">
<path opacity="0.5" d="M27.6575 27.0472C27.6575 27.6606 27.1606 28.1575 26.5472 28.1575H5.45276C4.83936 28.1575 4.34253 27.6606 4.34253 27.0472V22.4961C4.34253 21.8827 4.83936 21.3858 5.45276 21.3858H26.5472C27.1606 21.3858 27.6575 21.8827 27.6575 22.4961V27.0472Z" stroke="#49494A" stroke-miterlimit="10"/>
<path opacity="0.5" d="M27.6575 9.50402C27.6575 10.1174 27.1606 10.6143 26.5472 10.6143H5.45276C4.83936 10.6143 4.34253 10.1174 4.34253 9.50402V4.95285C4.34253 4.33944 4.83936 3.84261 5.45276 3.84261H26.5472C27.1606 3.84261 27.6575 4.33944 27.6575 4.95285V9.50402Z" stroke="#49494A" stroke-miterlimit="10"/>
<path d="M27.6575 20.2755C27.6575 20.8889 27.1606 21.3857 26.5472 21.3857H5.45276C4.83936 21.3857 4.34253 20.8889 4.34253 20.2755V11.7243C4.34253 11.1109 4.83936 10.6141 5.45276 10.6141H26.5472C27.1606 10.6141 27.6575 11.1109 27.6575 11.7243V20.2755Z" stroke="#49494A" stroke-miterlimit="10"/>
<path opacity="0.5" d="M20.4409 23.6614L22.6614 25.8818L24.8819 23.6614" stroke="#49494A" stroke-miterlimit="10"/>
<path opacity="0.5" d="M20.4409 6.11815L22.6614 8.33862L24.8819 6.11815" stroke="#49494A" stroke-miterlimit="10"/>
<path opacity="0.5" d="M24.8818 15.6101L22.6614 13.3896L20.4409 15.6101" stroke="#49494A" stroke-miterlimit="10"/>
<path d="M7.98486 16.0195C7.98486 16.2957 8.20872 16.5195 8.48486 16.5195C8.76101 16.5195 8.98486 16.2957 8.98486 16.0195L7.98486 16.0195ZM7.98486 13.3896L7.98486 16.0195L8.98486 16.0195L8.98486 13.3896L7.98486 13.3896Z" fill="#49494A"/>
<path d="M9.69189 13.3896H7.27811" stroke="#49494A" stroke-miterlimit="10" stroke-linecap="round"/>
</svg>
