<svg width="32" height="32" viewBox="0 0 32 32" fill="none" xmlns="http://www.w3.org/2000/svg">
<path opacity="0.5" d="M27.8989 25.74C27.8989 26.0596 27.6403 26.3182 27.3207 26.3182V27.3182C28.1926 27.3182 28.8989 26.6119 28.8989 25.74H27.8989ZM27.3207 26.3182H4.6793V27.3182H27.3207V26.3182ZM4.6793 26.3182C4.35986 26.3182 4.10114 26.0595 4.10114 25.74H3.10114C3.10114 26.612 3.80769 27.3182 4.6793 27.3182V26.3182ZM4.10114 25.74V5.79398H3.10114V25.74H4.10114ZM4.10114 5.79398C4.10114 5.47445 4.35985 5.21582 4.6793 5.21582V4.21582C3.8077 4.21582 3.10114 4.92204 3.10114 5.79398H4.10114ZM4.6793 5.21582H27.3207V4.21582H4.6793V5.21582ZM27.3207 5.21582C27.6403 5.21582 27.8989 5.4744 27.8989 5.79398H28.8989C28.8989 4.92209 28.1926 4.21582 27.3207 4.21582V5.21582ZM27.8989 5.79398V25.74H28.8989V5.79398H27.8989Z" fill="#49494A"/>
<path d="M6.32629 21.5259C6.32629 21.2497 6.55015 21.0259 6.82629 21.0259H25.1738C25.4499 21.0259 25.6738 21.2497 25.6738 21.5259V26.7839H6.32629V21.5259Z" stroke="#49494A"/>
</svg>
