<svg width="32" height="32" viewBox="0 0 32 32" fill="none" xmlns="http://www.w3.org/2000/svg">
<rect x="4.34253" y="18.0264" width="23.1699" height="2.56543" fill="#49494A" fill-opacity="0.5"/>
<path d="M26.5978 8.125H5.40236C4.81707 8.125 4.34259 8.59948 4.34259 9.18477V22.8154C4.34259 23.4007 4.81707 23.8751 5.40236 23.8751H26.5978C27.1831 23.8751 27.6575 23.4007 27.6575 22.8154V9.18477C27.6575 8.59948 27.1831 8.125 26.5978 8.125Z" stroke="#49494A" stroke-linecap="round" stroke-linejoin="round"/>
<path d="M8.93268 8.42358L8.93268 23.8752" stroke="#49494A" stroke-linecap="round" stroke-linejoin="round"/>
<path d="M18.3328 8.42358L18.3328 23.8752" stroke="#49494A" stroke-linecap="round" stroke-linejoin="round"/>
<path d="M4.34259 11.3667L27.5125 11.3667" stroke="#49494A" stroke-linecap="round" stroke-linejoin="round"/>
<path d="M4.34259 14.6091L27.5125 14.6091" stroke="#49494A" stroke-linecap="round" stroke-linejoin="round"/>
<path d="M4.34259 17.7878L27.5125 17.7878" stroke="#49494A" stroke-linecap="round" stroke-linejoin="round"/>
<path d="M4.34259 20.8394L27.5125 20.8394" stroke="#49494A" stroke-linecap="round" stroke-linejoin="round"/>
<path d="M13.6669 8.42358L13.6669 23.8752" stroke="#49494A" stroke-linecap="round" stroke-linejoin="round"/>
<path d="M23.0394 8.42358L23.0394 23.8752" stroke="#49494A" stroke-linecap="round" stroke-linejoin="round"/>
</svg>
