<svg width="32" height="32" viewBox="0 0 32 32" fill="none" xmlns="http://www.w3.org/2000/svg">
<path fill-rule="evenodd" clip-rule="evenodd" d="M7.85251 16.5118C7.85251 12.3541 11.223 8.98364 15.3806 8.98364C19.5383 8.98364 22.9088 12.3541 22.9088 16.5118C22.9088 16.9913 22.8639 17.4604 22.7782 17.9151C23.11 17.9943 23.4292 18.106 23.7322 18.2465C23.848 17.6864 23.9088 17.1062 23.9088 16.5118C23.9088 11.8018 20.0906 7.98364 15.3806 7.98364C10.6707 7.98364 6.85251 11.8018 6.85251 16.5118C6.85251 21.2217 10.6707 25.0399 15.3806 25.0399C15.9014 25.0399 16.4113 24.9932 16.9063 24.9038C16.7735 24.5976 16.6699 24.2757 16.599 23.9418C16.2024 24.0064 15.7955 24.0399 15.3806 24.0399C11.223 24.0399 7.85251 20.6694 7.85251 16.5118Z" fill="#49494A"/>
<path d="M21.5887 26.4355C23.5542 26.4355 25.1475 24.8422 25.1475 22.8767C25.1475 20.9112 23.5542 19.3179 21.5887 19.3179C19.6232 19.3179 18.0298 20.9112 18.0298 22.8767C18.0298 24.8422 19.6232 26.4355 21.5887 26.4355Z" stroke="#49494A" stroke-miterlimit="10"/>
<path d="M20.699 21.6904V24.063" stroke="#49494A" stroke-linecap="round" stroke-linejoin="round"/>
<path d="M22.4783 21.6904V24.063" stroke="#49494A" stroke-linecap="round" stroke-linejoin="round"/>
<path d="M15.3807 16.5119L19.0298 12.8628" stroke="#49494A" stroke-linecap="round" stroke-linejoin="round"/>
<path d="M13.1912 5.56445H17.5701" stroke="#49494A" stroke-linecap="round" stroke-linejoin="round"/>
</svg>
