<svg width="32" height="32" viewBox="0 0 32 32" fill="none" xmlns="http://www.w3.org/2000/svg">
<path d="M28.8562 26.7512C28.8562 27.3689 28.3558 27.8691 27.7383 27.8691H4.26173C3.64425 27.8691 3.1438 27.3689 3.1438 26.7512V5.24879C3.1438 4.63108 3.64425 4.13086 4.26173 4.13086H27.7383C28.3558 4.13086 28.8562 4.63108 28.8562 5.24879V26.7512Z" stroke="#49494A" stroke-miterlimit="10"/>
<path d="M24.4288 21.2798C24.4288 21.6847 24.1008 22.0127 23.6958 22.0127H8.30419C7.89936 22.0127 7.57126 21.6847 7.57126 21.2798V10.7205C7.57126 10.3155 7.89936 9.98753 8.30419 9.98753H23.6958C24.1008 9.98753 24.4288 10.3155 24.4288 10.7205V21.2798Z" stroke="#49494A" stroke-miterlimit="10"/>
<path d="M19.2983 9.98753L19.2983 22.0127" stroke="#49494A" stroke-miterlimit="10"/>
<path d="M20.7641 12.9695L21.8635 11.8701L22.9629 12.9695" stroke="#49494A" stroke-miterlimit="10"/>
<path d="M20.7641 19.0471L21.8635 20.1465L22.9629 19.0471" stroke="#49494A" stroke-miterlimit="10"/>
</svg>
