<svg width="32" height="32" viewBox="0 0 32 32" fill="none" xmlns="http://www.w3.org/2000/svg">
<path d="M16.7922 12.2514L17.4434 11.6002C17.6997 11.3438 18.004 11.1404 18.3389 11.0017C18.6738 10.8629 19.0328 10.7915 19.3953 10.7915C19.7578 10.7915 20.1168 10.8629 20.4517 11.0017C20.7866 11.1404 21.0909 11.3438 21.3472 11.6002C21.6036 11.8565 21.8069 12.1608 21.9457 12.4957C22.0844 12.8306 22.1559 13.1896 22.1559 13.5521C22.1559 13.9146 22.0844 14.2736 21.9457 14.6085C21.8069 14.9434 21.6036 15.2477 21.3472 15.504L19.9038 16.9473L19.2917 17.5595C19.0351 17.8161 18.7304 18.0196 18.3951 18.1584C18.0597 18.2972 17.7003 18.3685 17.3374 18.3682C16.9745 18.3679 16.6152 18.2961 16.28 18.1568C15.9449 18.0175 15.6405 17.8135 15.3843 17.5565C15.1191 17.2914 14.9109 16.9749 14.7725 16.6264C14.634 16.2779 14.5682 15.9048 14.5792 15.53" stroke="#49494A" stroke-linecap="round" stroke-linejoin="round"/>
<path d="M15.2079 19.7486L14.5566 20.3998C14.3 20.6565 13.9954 20.86 13.66 20.9987C13.3247 21.1375 12.9653 21.2088 12.6023 21.2085C12.2394 21.2083 11.8801 21.1364 11.545 20.9971C11.2099 20.8579 10.9055 20.6539 10.6493 20.3968C10.133 19.8788 9.84345 19.1771 9.84412 18.4457C9.84478 17.7143 10.1356 17.0131 10.6528 16.496L12.7083 14.4405C12.9646 14.1841 13.2689 13.9808 13.6038 13.842C13.9388 13.7033 14.2977 13.6318 14.6602 13.6318C15.0228 13.6318 15.3817 13.7033 15.7166 13.842C16.0515 13.9808 16.3558 14.1841 16.6121 14.4405C16.8784 14.7056 17.0876 15.0224 17.2267 15.3715C17.3658 15.7205 17.4318 16.0944 17.4208 16.47" stroke="#49494A" stroke-linecap="round" stroke-linejoin="round"/>
</svg>
