<svg width="44" height="29" viewBox="0 0 44 29" fill="none" xmlns="http://www.w3.org/2000/svg">
<path d="M16.6871 13.0303L17.8834 13.3542L18.5544 12.0477C18.9838 11.1868 20.0305 10.8358 20.896 11.2656C21.7615 11.6953 22.1129 12.7405 21.6835 13.6014L20.3621 16.2502C19.9949 16.9926 19.1617 17.3082 18.2962 17.0739L16.0444 16.4642L15.5856 18.1589L18.1306 19.5546C18.7536 19.9036 19.1053 20.5851 19.0199 21.2911L18.5211 25.3652C18.3993 26.3169 17.5277 26.9979 16.5698 26.8814C15.6138 26.7579 14.9279 25.8882 15.0426 24.9346L15.3999 22.0247L14.1923 21.352C13.0499 22.531 11.3181 23.0693 9.55181 22.5911C7.91222 22.1471 6.68503 20.8077 6.29484 19.2138L4.91284 19.1854L3.7526 21.8778C3.37192 22.7594 2.34369 23.165 1.45458 22.7889C0.567438 22.4059 0.157207 21.3779 0.537472 20.4962L2.16222 16.7269C2.44325 16.0739 3.0902 15.6628 3.8021 15.6751L6.57835 15.7202L7.0372 14.0255L4.7854 13.4158C4.04371 13.215 3.4871 12.5231 3.54134 11.696L3.7368 8.74233C3.80035 7.7824 4.63316 7.05781 5.59711 7.12337C6.5612 7.18897 7.29063 8.02085 7.2271 8.98079L7.143 10.4463L8.33787 10.7698C8.87148 10.11 9.62285 9.5693 10.4717 9.26547L9.51675 3.48385C9.35998 2.53417 10.0062 1.63992 10.9587 1.48592C11.912 1.33212 12.812 1.97734 12.9652 2.92627L13.6538 7.44066L16.6455 3.92271C17.2615 3.18202 18.362 3.07847 19.1095 3.69277C19.7938 4.28992 19.9603 5.40423 19.3445 6.14471L15.6079 10.6561C16.184 11.3458 16.5593 12.1915 16.6871 13.0303Z" fill="#EF484F"/>
<path opacity="0.4" d="M34.1192 13.9264L34.763 13.4017L34.2435 12.4961C33.9177 11.9238 34.1251 11.2201 34.6857 10.9541C35.2792 10.6123 36.0075 10.8251 36.2926 11.3773L37.3307 13.147C37.612 13.636 37.5025 14.2463 37.07 14.6001L35.8576 15.5891L36.6131 16.4617L38.3538 15.6489C38.7901 15.4462 39.2743 15.5084 39.6814 15.8419L41.807 17.7018C42.3057 18.1356 42.3569 18.8764 41.9178 19.3516C41.4833 19.8285 40.7241 19.8625 40.227 19.4241L38.7076 18.0989L37.8604 18.493C38.0777 19.614 37.7308 20.7314 36.8147 21.4771C35.8969 22.2274 34.665 22.3736 33.6079 21.9641L33.0601 22.7094L34.1471 24.3885C34.5016 24.9402 34.3367 25.6593 33.7781 25.9931C33.2242 26.3286 32.481 26.1569 32.1218 25.6035L30.6032 23.2468C30.3442 22.8432 30.3541 22.3309 30.5945 21.9332L31.7617 20.4222L31.0061 19.5496L29.7937 20.5386C29.3565 20.8907 28.7211 20.8922 28.2732 20.5388L26.6658 19.2796C26.1461 18.8743 26.0552 18.1397 26.4617 17.6372C26.8711 17.1409 27.6098 17.1047 28.1428 17.4735L28.9598 18.1621L29.6185 17.5964C29.4194 17.0133 29.3977 16.3967 29.5133 15.799L25.8997 14.0851C25.299 13.8 25.0353 13.1008 25.315 12.5213C25.5947 11.9418 26.3066 11.6998 26.9073 11.9849L29.7744 13.3452L28.8918 10.3681C28.7075 9.74402 29.0718 9.10757 29.7052 8.93505C30.3417 8.76881 31.0074 9.13938 31.1917 9.76342L32.3069 13.5988C32.9358 13.5124 33.5628 13.6368 34.1192 13.9264Z" fill="#EF484F"/>
</svg>
