<svg width="30" height="30" viewBox="0 0 30 30" fill="none" xmlns="http://www.w3.org/2000/svg">
<g clip-path="url(#clip0_56_291)">
<path d="M0.119213 27.4629C-0.138951 28.1514 0.0295061 28.875 0.549526 29.448C0.90642 29.8125 1.3863 30 1.87497 30C2.09652 30 2.31994 29.9616 2.53415 29.881L7.82224 27.8982L2.10173 22.1777L0.119213 27.4629ZM2.82537 20.25L9.75115 27.1758L13.2773 25.8533L4.14783 16.7227L2.82537 20.25ZM18.1992 21.1758L8.82419 11.8008C8.37302 11.3496 7.72263 11.1621 7.10154 11.291C6.48044 11.4258 5.96482 11.8711 5.74392 12.4629L4.87087 14.7949L15.2068 25.1309L17.5359 24.2578C18.133 24.0344 18.5742 23.5219 18.7095 22.899C18.8437 22.2773 18.6504 21.627 18.1992 21.1758Z" fill="#EF484F"/>
<path opacity="0.4" d="M22.834 10.3125C24.0568 8.87871 23.9689 7.48887 23.9033 6.47461C23.8466 5.59746 23.8411 5.18731 24.3043 4.64531C24.7658 4.10514 25.1704 4.04824 26.0422 3.96973C27.053 3.8782 28.4393 3.75363 29.6657 2.31973C30.1692 1.73027 30.1014 0.841992 29.51 0.336914C28.9223 -0.161133 28.0358 -0.0989062 27.5272 0.492539C27.0658 1.03271 26.6612 1.08961 25.7893 1.16813C24.7786 1.25965 23.3923 1.38422 22.1659 2.81813C20.943 4.25191 21.0309 5.64176 21.0966 6.65602C21.1533 7.53316 21.1588 7.94332 20.6955 8.48531C20.2359 9.02367 19.8313 9.08063 18.9618 9.15914C17.951 9.24885 16.5647 9.37154 15.3401 10.805C14.8359 11.3965 14.9004 12.2871 15.4922 12.791C15.7559 13.0137 16.084 13.125 16.3535 13.125C16.7508 13.125 17.1445 12.9584 17.4229 12.6325C17.8825 12.0941 18.2871 12.0371 19.1549 11.9586C20.2207 11.8711 21.6035 11.748 22.834 10.3125ZM13.541 0C12.7646 0 12.1875 0.629883 12.1875 1.40625V1.96471C12.1875 3.87252 11.3473 5.66725 9.88066 6.88834C9.28125 7.38867 9.20508 8.27344 9.70313 8.87109C9.97852 9.20508 10.377 9.375 10.7812 9.375C11.0998 9.375 11.4182 9.26883 11.6818 9.0491C13.7895 7.29129 14.9994 4.70965 14.9994 1.96512V1.40625C14.9473 0.629883 14.3672 0 13.541 0ZM3.75 7.61719e-05C2.71465 7.61719e-05 1.92773 0.839725 1.92773 1.82234C1.92773 2.85769 2.76738 3.64461 3.75 3.64461C4.73262 3.64461 5.57227 2.80496 5.57227 1.82234C5.625 0.839649 4.78594 7.61719e-05 3.75 7.61719e-05ZM28.541 15H27.9826C25.2891 15 22.7109 16.2129 20.9531 18.3164C20.4551 18.9135 20.5356 19.7994 21.1325 20.2975C21.3926 20.5195 21.7148 20.625 21.9785 20.625C22.3813 20.625 22.7807 20.4529 23.059 20.1196C24.334 18.6504 26.127 17.8125 28.0371 17.8125H28.5956C29.3719 17.8125 29.9491 17.1826 29.9491 16.4063C29.9491 15.6299 29.3672 15 28.541 15ZM28.0723 7.5C27.0369 7.5 26.25 8.33965 26.25 9.32227C26.25 10.3576 27.0896 11.1445 28.0723 11.1445C29.1076 11.1445 29.8945 10.3049 29.8945 9.32227C29.9473 8.33789 29.1621 7.5 28.0723 7.5ZM28.0723 24.375C27.0369 24.375 26.25 25.2147 26.25 26.1973C26.25 27.2326 27.0896 28.0195 28.0723 28.0195C29.1076 28.0195 29.8945 27.1799 29.8945 26.1973C29.9473 25.2129 29.1621 24.375 28.0723 24.375Z" fill="#EF484F"/>
</g>
<defs>
<clipPath id="clip0_56_291">
<rect width="30" height="30" fill="white"/>
</clipPath>
</defs>
</svg>
