<svg width="32" height="32" viewBox="0 0 32 32" fill="none" xmlns="http://www.w3.org/2000/svg">
<path d="M26.2299 21.0279C26.2299 21.3032 26.007 21.5261 25.7317 21.5261H6.26828C5.99299 21.5261 5.77002 21.3032 5.77002 21.0279V10.9719C5.77002 10.6966 5.99299 10.4736 6.26828 10.4736H25.7317C26.007 10.4736 26.2299 10.6966 26.2299 10.9719V21.0279Z" stroke="#49494A" stroke-miterlimit="10"/>
<g opacity="0.5">
<path fill-rule="evenodd" clip-rule="evenodd" d="M27.3207 27.0511C27.9164 27.0511 28.3988 26.5687 28.3988 25.9729V6.02689C28.3988 5.43115 27.9164 4.94873 27.3207 4.94873H4.67924C4.08371 4.94873 3.60107 5.43115 3.60107 6.02689V25.9729C3.60107 26.5687 4.08371 27.0511 4.67924 27.0511H27.3207ZM25.7317 21.5262C26.007 21.5262 26.2299 21.3032 26.2299 21.0279V10.972C26.2299 10.6967 26.007 10.4737 25.7317 10.4737H6.26828C5.99299 10.4737 5.77002 10.6967 5.77002 10.972V21.0279C5.77002 21.3032 5.99299 21.5262 6.26828 21.5262H25.7317Z" fill="#49494A"/>
<path d="M27.8988 25.9729C27.8988 26.2925 27.6402 26.5511 27.3207 26.5511V27.5511C28.1925 27.5511 28.8988 26.8448 28.8988 25.9729H27.8988ZM27.8988 6.02689V25.9729H28.8988V6.02689H27.8988ZM27.3207 5.44873C27.6402 5.44873 27.8988 5.70731 27.8988 6.02689H28.8988C28.8988 5.155 28.1925 4.44873 27.3207 4.44873V5.44873ZM4.67924 5.44873H27.3207V4.44873H4.67924V5.44873ZM4.10107 6.02689C4.10107 5.70736 4.35979 5.44873 4.67924 5.44873V4.44873C3.80764 4.44873 3.10107 5.15495 3.10107 6.02689H4.10107ZM4.10107 25.9729V6.02689H3.10107V25.9729H4.10107ZM4.67924 26.5511C4.35979 26.5511 4.10107 26.2925 4.10107 25.9729H3.10107C3.10107 26.8449 3.80763 27.5511 4.67924 27.5511V26.5511ZM27.3207 26.5511H4.67924V27.5511H27.3207V26.5511ZM25.7299 21.0279C25.7299 21.0287 25.7299 21.0281 25.7303 21.0272C25.7305 21.0266 25.7307 21.0266 25.7305 21.0267C25.7303 21.0269 25.7304 21.0268 25.731 21.0265C25.7319 21.0261 25.7325 21.0262 25.7317 21.0262V22.0262C26.2831 22.0262 26.7299 21.5794 26.7299 21.0279H25.7299ZM25.7299 10.972V21.0279H26.7299V10.972H25.7299ZM25.7317 10.9737C25.7325 10.9737 25.7319 10.9738 25.731 10.9734C25.7304 10.9731 25.7303 10.973 25.7305 10.9732C25.7307 10.9733 25.7305 10.9733 25.7303 10.9727C25.7299 10.9718 25.7299 10.9712 25.7299 10.972H26.7299C26.7299 10.4205 26.2831 9.97371 25.7317 9.97371V10.9737ZM6.26828 10.9737H25.7317V9.97371H6.26828V10.9737ZM6.27002 10.972C6.27002 10.9712 6.27008 10.9718 6.26969 10.9727C6.26945 10.9733 6.2693 10.9733 6.26946 10.9732C6.26963 10.973 6.26956 10.9731 6.26898 10.9734C6.26807 10.9738 6.2675 10.9737 6.26828 10.9737V9.97371C5.71687 9.97371 5.27002 10.4205 5.27002 10.972H6.27002ZM6.27002 21.0279V10.972H5.27002V21.0279H6.27002ZM6.26828 21.0262C6.2675 21.0262 6.26807 21.0261 6.26898 21.0265C6.26956 21.0268 6.26963 21.0269 6.26946 21.0267C6.2693 21.0266 6.26945 21.0266 6.26969 21.0272C6.27008 21.0281 6.27002 21.0287 6.27002 21.0279H5.27002C5.27002 21.5794 5.71686 22.0262 6.26828 22.0262V21.0262ZM25.7317 21.0262H6.26828V22.0262H25.7317V21.0262Z" fill="#49494A"/>
</g>
<path d="M21.8585 15.041L23.0443 13.7574L21.8585 12.4737" stroke="#49494A" stroke-miterlimit="10"/>
<path d="M24.23 12.4736L23.0442 13.7573L24.23 15.0409" stroke="#49494A" stroke-miterlimit="10"/>
</svg>
