<svg width="32" height="32" viewBox="0 0 32 32" fill="none" xmlns="http://www.w3.org/2000/svg">
<g opacity="0.5">
<path d="M28.3988 25.9729C28.3988 26.5687 27.9164 27.0511 27.3207 27.0511H4.67924C4.08371 27.0511 3.60107 26.5687 3.60107 25.9729V6.02689C3.60107 5.43115 4.08371 4.94873 4.67924 4.94873H27.3207C27.9164 4.94873 28.3988 5.43115 28.3988 6.02689V25.9729Z" fill="#49494A"/>
<path d="M27.8988 25.9729C27.8988 26.2925 27.6402 26.5511 27.3207 26.5511V27.5511C28.1925 27.5511 28.8988 26.8448 28.8988 25.9729H27.8988ZM27.3207 26.5511H4.67924V27.5511H27.3207V26.5511ZM4.67924 26.5511C4.35979 26.5511 4.10107 26.2925 4.10107 25.9729H3.10107C3.10107 26.8449 3.80763 27.5511 4.67924 27.5511V26.5511ZM4.10107 25.9729V6.02689H3.10107V25.9729H4.10107ZM4.10107 6.02689C4.10107 5.70736 4.35979 5.44873 4.67924 5.44873V4.44873C3.80764 4.44873 3.10107 5.15495 3.10107 6.02689H4.10107ZM4.67924 5.44873H27.3207V4.44873H4.67924V5.44873ZM27.3207 5.44873C27.6402 5.44873 27.8988 5.70731 27.8988 6.02689H28.8988C28.8988 5.155 28.1925 4.44873 27.3207 4.44873V5.44873ZM27.8988 6.02689V25.9729H28.8988V6.02689H27.8988Z" fill="#49494A"/>
</g>
</svg>
