<svg width="48" height="48" viewBox="0 0 48 48" fill="none" xmlns="http://www.w3.org/2000/svg">
<path d="M21.0312 26.9688V43H5V26.9688H21.0312ZM17 31H9.03125V38.9688H17V31ZM23 4L33.9688 22H12.0312L23 4ZM23 11.6875L19.1562 17.9688H26.8438L23 11.6875ZM33.9688 25.9375C36.4688 25.9375 38.5938 26.8125 40.3438 28.5625C42.0938 30.3125 42.9688 32.4375 42.9688 34.9375C42.9688 37.4375 42.0938 39.5625 40.3438 41.3125C38.5938 43.0625 36.4688 43.9375 33.9688 43.9375C31.4688 43.9375 29.3438 43.0625 27.5938 41.3125C25.8438 39.5625 24.9688 37.4375 24.9688 34.9375C24.9688 32.4375 25.8438 30.3125 27.5938 28.5625C29.3438 26.8125 31.4688 25.9375 33.9688 25.9375ZM33.9688 29.9688C32.5938 29.9688 31.4062 30.4688 30.4062 31.4688C29.4688 32.4062 29 33.5625 29 34.9375C29 36.3125 29.4688 37.5 30.4062 38.5C31.4062 39.5 32.5938 40 33.9688 40C35.3438 40 36.5312 39.5 37.5312 38.5C38.5312 37.5 39.0312 36.3125 39.0312 34.9375C39.0312 33.5625 38.5312 32.4062 37.5312 31.4688C36.5312 30.4688 35.3438 29.9688 33.9688 29.9688Z" fill="#757575"/>
</svg>
