<svg width="124" height="41" viewBox="0 0 124 41" fill="none" xmlns="http://www.w3.org/2000/svg">
<path d="M12.4218 0.682861C8.81825 0.682861 9.17314 0.710292 5.56934 0.710292V8.78579H13.5411V16.7795C23.6148 15.7427 23.2327 0.682861 12.4218 0.682861Z" fill="white"/>
<path d="M0 8.78516V22.3171H13.541V16.7793H5.56942V8.78516H0Z" fill="white"/>
<path d="M33.3428 7.43726C36.1246 7.43726 37.8437 8.93671 37.8437 11.3263C37.8437 13.8096 36.0308 15.3557 33.1395 15.3557H31.7017V18.0577H29.0605V7.43726H33.3428ZM33.2959 13.0443C34.4524 13.0443 35.2183 12.3728 35.2183 11.3263C35.2183 10.3735 34.4524 9.76448 33.2959 9.76448H31.7017V13.0443H33.2959Z" fill="white"/>
<path d="M50.8943 18.0577H43.002V7.43726H45.6431V15.7307H50.8943V18.0577Z" fill="white"/>
<path d="M58.9744 16.2307L58.2714 18.0579H55.458L59.9749 7.375H62.5065L67.0079 18.0579H64.1945L63.4755 16.2307H58.9744ZM61.2252 10.4518L59.8498 13.9816H62.6L61.2252 10.4518Z" fill="white"/>
<path d="M75.9165 9.7958V18.058H73.2906V9.7958H69.8994V7.4375H79.3078V9.7958H75.9165Z" fill="white"/>
<path d="M87.2017 11.6698H91.9214V13.9189H87.2017V15.7618H92.5935V18.0577H84.5605V7.43726H92.5935V9.73317H87.2017V11.6698Z" fill="white"/>
<path d="M100.924 16.2307L100.221 18.0579H97.4072L101.924 7.375H104.456L108.957 18.0579H106.144L105.425 16.2307H100.924ZM103.174 10.4518L101.799 13.9816H104.549L103.174 10.4518Z" fill="white"/>
<path d="M123.195 13.1069C123.195 16.4022 121.288 18.292 118.24 18.292C115.208 18.292 113.302 16.4022 113.302 13.1069V7.4375H115.958V13.1537C115.958 14.778 116.849 15.8244 118.24 15.8244C119.631 15.8244 120.538 14.778 120.538 13.1537V7.4375H123.195V13.1069Z" fill="white"/>
<rect x="56.1953" y="22.3171" width="67" height="18" rx="9" fill="#F1AE00"/>
<path d="M68.2273 29.4491C69.8113 29.4491 71.0833 30.7571 71.0833 32.4491C71.0833 34.1171 69.8113 35.4371 68.2273 35.4371C67.5793 35.4371 67.0393 35.2691 66.5953 34.9811V38.0891H64.9273V29.5691H66.5953V29.9051C67.0393 29.6171 67.5793 29.4491 68.2273 29.4491ZM67.9513 34.0211C68.8153 34.0211 69.4393 33.2891 69.4393 32.4491C69.4393 31.5971 68.8153 30.8531 67.9513 30.8531C67.4593 30.8531 66.9673 31.0211 66.5953 31.5251V33.3611C66.9673 33.8531 67.4593 34.0211 67.9513 34.0211ZM73.8492 29.5691V30.2171C74.3652 29.7371 75.0132 29.4731 75.8652 29.4731V31.0571C74.9652 31.0931 74.3292 31.3571 73.8492 31.8851V35.3171H72.1812V29.5691H73.8492ZM82.3678 32.3291C82.3678 32.5691 82.3678 32.8211 82.3318 33.0611H78.1438C78.3118 33.6371 78.7678 34.0691 79.5838 34.0691C80.0518 34.0691 80.3758 33.9251 80.5558 33.6371H82.2958C81.9838 34.7411 80.9038 35.4491 79.5478 35.4491C77.6998 35.4491 76.4638 34.1651 76.4638 32.4491C76.4638 30.7211 77.6878 29.4491 79.5238 29.4491C81.1438 29.4491 82.3678 30.6131 82.3678 32.3291ZM79.4758 30.8171C78.7198 30.8171 78.2878 31.2731 78.1318 31.8851H80.7238C80.6158 31.2131 80.1838 30.8171 79.4758 30.8171ZM90.4627 29.3891C91.8667 29.3891 92.9707 30.4811 92.9707 32.1611V35.3171H91.3027V32.3051C91.3027 31.3931 90.8587 30.9011 90.0787 30.9011C89.7307 30.9011 89.3467 31.0571 88.9987 31.5371C89.0227 31.7411 89.0467 31.9451 89.0467 32.1611V35.3171H87.3787V32.3051C87.3787 31.3931 86.9347 30.9011 86.1427 30.9011C85.8187 30.9011 85.4587 31.0931 85.1227 31.5491V35.3171H83.4547V29.5691H85.1227V29.9171C85.4827 29.5811 85.8667 29.3891 86.5387 29.3891C87.2707 29.3891 87.9187 29.6771 88.3747 30.2051C88.9867 29.6411 89.5627 29.3891 90.4627 29.3891ZM95.288 28.5011C94.724 28.5011 94.28 28.0931 94.28 27.5411C94.28 26.9771 94.724 26.5571 95.288 26.5571C95.84 26.5571 96.284 26.9771 96.284 27.5411C96.284 28.0931 95.84 28.5011 95.288 28.5011ZM96.128 29.5691V35.3171H94.46V29.5691H96.128ZM103.371 29.5691V35.3171H101.703V34.9091C101.235 35.2811 100.707 35.4971 100.059 35.4971C98.5466 35.4971 97.5386 34.4051 97.5386 32.7371V29.5691H99.2066V32.5811C99.2066 33.4931 99.6626 33.9851 100.443 33.9851C100.863 33.9851 101.319 33.7331 101.703 33.2651V29.5691H103.371ZM111.838 29.3891C113.242 29.3891 114.346 30.4811 114.346 32.1611V35.3171H112.678V32.3051C112.678 31.3931 112.234 30.9011 111.454 30.9011C111.106 30.9011 110.722 31.0571 110.374 31.5371C110.398 31.7411 110.422 31.9451 110.422 32.1611V35.3171H108.754V32.3051C108.754 31.3931 108.31 30.9011 107.518 30.9011C107.194 30.9011 106.834 31.0931 106.498 31.5491V35.3171H104.83V29.5691H106.498V29.9171C106.858 29.5811 107.242 29.3891 107.914 29.3891C108.646 29.3891 109.294 29.6771 109.75 30.2051C110.362 29.6411 110.938 29.3891 111.838 29.3891Z" fill="black"/>
</svg>
