<svg width="167" height="43" viewBox="0 0 167 43" fill="none" xmlns="http://www.w3.org/2000/svg">
<path d="M16.7974 0C11.9245 0 12.4044 0.0370924 7.53125 0.0370924V10.957H18.3109V21.7663C31.9329 20.3644 31.4162 0 16.7974 0Z" fill="white"/>
<path d="M0 10.9562V29.2545H18.3105V21.7661H7.53114V10.9562H0Z" fill="white"/>
<path d="M45.0875 9.13354C48.8491 9.13354 51.1737 11.1612 51.1737 14.3925C51.1737 17.7505 48.7223 19.8411 44.8125 19.8411H42.8683V23.4949H39.2969V9.13354H45.0875ZM45.0241 16.7155C46.5879 16.7155 47.6236 15.8075 47.6236 14.3925C47.6236 13.1041 46.5879 12.2805 45.0241 12.2805H42.8683V16.7155H45.0241Z" fill="white"/>
<path d="M68.8207 23.4949H58.1484V9.13354H61.7198V20.3482H68.8207V23.4949Z" fill="white"/>
<path d="M79.7471 21.0241L78.7965 23.4949H74.9922L81.1001 9.04919H84.5234L90.6102 23.4949H86.8059L85.8336 21.0241H79.7471ZM82.7907 13.2098L80.9309 17.9829H84.6498L82.7907 13.2098Z" fill="white"/>
<path d="M102.657 12.3227V23.495H99.1062V12.3227H94.5205V9.13373H107.243V12.3227H102.657Z" fill="white"/>
<path d="M117.916 14.857H124.298V17.8982H117.916V20.3903H125.207V23.4949H114.345V9.13361H125.207V12.2382H117.916V14.857Z" fill="white"/>
<path d="M136.472 21.0241L135.521 23.4949H131.717L137.825 9.04919H141.248L147.335 23.4949H143.531L142.559 21.0241H136.472ZM139.515 13.2098L137.655 17.9829H141.375L139.515 13.2098Z" fill="white"/>
<path d="M166.588 16.8002C166.588 21.2562 164.009 23.8117 159.888 23.8117C155.788 23.8117 153.21 21.2562 153.21 16.8002V9.13391H156.802V16.8636C156.802 19.0599 158.007 20.475 159.888 20.475C161.769 20.475 162.995 19.0599 162.995 16.8636V9.13391H166.588V16.8002Z" fill="white"/>
<path d="M111.628 42.1844C111.656 41.631 111.676 41.0619 111.691 40.4868C111.709 39.8306 111.715 39.0698 111.715 38.2299V36.1568C111.715 35.3168 111.709 34.5579 111.691 33.9018C111.678 33.3307 111.656 32.7457 111.628 32.1627C111.715 32.1726 111.804 32.1825 111.898 32.1923C112.072 32.2082 112.265 32.2161 112.475 32.2161C112.772 32.2161 113.082 32.2022 113.393 32.1765C113.704 32.1508 114.012 32.139 114.303 32.139C114.878 32.139 115.333 32.1904 115.652 32.2931C115.959 32.3919 116.203 32.5342 116.374 32.7141C116.626 32.9631 116.808 33.2358 116.921 33.5323C117.034 33.8287 117.092 34.1923 117.092 34.6192C117.092 35.1666 117.018 35.639 116.87 36.0283C116.725 36.4117 116.515 36.7259 116.253 36.9631C115.983 37.2062 115.66 37.386 115.291 37.5006C114.914 37.6172 114.494 37.6765 114.042 37.6765H113.234V37.882C113.234 38.6469 113.24 39.4077 113.252 40.1646C113.264 40.8425 113.288 41.5223 113.324 42.1864C113.232 42.1785 113.137 42.1765 113.04 42.1765H111.912C111.812 42.1765 111.717 42.1804 111.628 42.1864V42.1844ZM113.54 32.5975C113.484 32.5975 113.433 32.6054 113.389 32.6192L113.264 32.6568L113.26 32.8149C113.254 33.5461 113.248 34.2655 113.242 34.973C113.238 35.6805 113.236 36.39 113.236 37.1014V37.3069H113.403C113.621 37.3069 113.847 37.2812 114.079 37.2279C114.323 37.1706 114.551 37.054 114.754 36.8801C114.96 36.7022 115.128 36.4473 115.257 36.1232C115.384 35.803 115.45 35.3781 115.45 34.8603C115.45 34.4552 115.412 34.1054 115.335 33.8208C115.255 33.5283 115.146 33.2892 115.009 33.1113C114.869 32.9315 114.704 32.7971 114.518 32.7161C114.337 32.637 114.147 32.5975 113.954 32.5975H113.538H113.54Z" fill="#F1AE00"/>
<path d="M120.693 37.4018H120.314V38.2318C120.314 39.0797 120.322 39.8386 120.34 40.4868C120.354 41.0619 120.376 41.631 120.404 42.1844C120.314 42.1785 120.219 42.1745 120.12 42.1745H118.992C118.892 42.1745 118.797 42.1785 118.708 42.1844C118.734 41.633 118.756 41.0619 118.771 40.4868C118.787 39.8267 118.795 39.0698 118.795 38.2318V36.1568C118.795 35.3188 118.787 34.5599 118.771 33.9018C118.756 33.3247 118.734 32.7398 118.708 32.1627C118.795 32.1726 118.885 32.1825 118.978 32.1923C119.15 32.2082 119.345 32.2161 119.555 32.2161C119.785 32.2161 120.049 32.2022 120.338 32.1765C120.626 32.1508 120.983 32.139 121.397 32.139C121.709 32.139 121.978 32.1489 122.201 32.1686C122.419 32.1884 122.609 32.218 122.764 32.2556C122.915 32.2931 123.043 32.3425 123.154 32.4018C123.268 32.4631 123.373 32.5362 123.472 32.6192C123.7 32.8208 123.882 33.0777 124.015 33.3781C124.148 33.6785 124.216 34.0421 124.216 34.4631C124.216 35.1508 124.061 35.716 123.755 36.1429C123.446 36.5757 122.99 36.888 122.401 37.0698L122.187 37.135L122.296 37.3682C122.702 38.2417 123.137 39.1152 123.591 39.9631C123.989 40.7061 124.386 41.4433 124.785 42.1745C124.703 42.1706 124.626 42.1686 124.549 42.1686H123.414C123.256 42.1686 123.097 42.1765 122.938 42.1903L120.699 37.3979L120.693 37.4018ZM120.352 32.7991C120.328 34.1904 120.314 35.5876 120.314 36.9512V37.1231L120.455 37.1528C120.511 37.1647 120.562 37.1726 120.612 37.1785C120.664 37.1844 120.713 37.1864 120.759 37.1864C121.356 37.1864 121.82 36.9848 122.145 36.5836C122.468 36.1844 122.631 35.5856 122.631 34.801C122.631 34.3247 122.591 33.9552 122.51 33.6666C122.425 33.3643 122.288 33.1291 122.105 32.967C121.929 32.8089 121.701 32.7081 121.427 32.6627C121.173 32.6212 120.868 32.5995 120.521 32.5995H120.354L120.35 32.801L120.352 32.7991Z" fill="#F1AE00"/>
<path d="M130.716 42.1962C130.534 42.1903 130.326 42.1843 130.092 42.1824C129.76 42.1764 129.306 42.1745 128.729 42.1745H126.742C126.551 42.1745 126.407 42.1764 126.308 42.1824C126.286 42.1824 126.268 42.1824 126.248 42.1863C126.274 41.631 126.292 41.0598 126.304 40.4867C126.317 39.8326 126.325 39.0737 126.325 38.2318V36.1567C126.325 35.3148 126.317 34.5579 126.304 33.9018C126.292 33.3207 126.274 32.7298 126.248 32.1429C126.561 32.1528 126.871 32.1666 127.18 32.1844C127.549 32.2041 127.926 32.214 128.301 32.214C128.91 32.214 129.465 32.2061 129.955 32.1923C130.284 32.1804 130.536 32.1706 130.718 32.1567C130.708 32.2792 130.702 32.4176 130.702 32.5737C130.702 32.7496 130.708 32.882 130.716 32.9769C130.716 32.9966 130.72 33.0164 130.72 33.0381C130.536 33.0243 129.566 32.9532 129.294 32.9334C129.023 32.9136 128.777 32.8978 128.559 32.8879C128.338 32.8761 128.182 32.8721 128.089 32.8721H127.932L127.92 33.0619C127.886 33.6271 127.868 34.1903 127.864 34.7377C127.86 35.2852 127.858 35.8425 127.858 36.4018V36.6093L128.029 36.6053C128.574 36.5954 129.064 36.5796 129.505 36.5599C129.879 36.5441 130.268 36.5223 130.669 36.4966C130.663 36.5579 130.657 36.6093 130.653 36.6527C130.643 36.7516 130.639 36.8543 130.639 36.965C130.639 37.0579 130.645 37.1527 130.659 37.2516C130.665 37.2852 130.669 37.3227 130.675 37.3662C129.788 37.2871 128.9 37.2476 128.025 37.2476H127.856V37.4531C127.856 37.7792 127.856 38.1014 127.851 38.4255C127.847 38.7515 127.845 39.0776 127.845 39.4037C127.845 40.0638 127.858 40.7081 127.882 41.3207L127.892 41.5164H128.051C128.523 41.5164 129.009 41.5006 129.489 41.4689C129.899 41.4432 130.312 41.4017 130.722 41.3464C130.718 41.3642 130.718 41.38 130.716 41.3938C130.71 41.4907 130.704 41.6251 130.704 41.797C130.704 41.9689 130.708 42.0974 130.716 42.1942V42.1962Z" fill="#F1AE00"/>
<path d="M140.244 42.1884C140.203 41.2042 140.135 40.1272 140.046 38.9908C139.949 37.7695 139.852 36.56 139.75 35.3604L139.735 35.1766H139.477L139.405 35.2932L138.003 38.8307C137.561 39.9434 137.123 41.0619 136.688 42.1864C136.688 42.1864 136.687 42.1864 136.684 42.1864C136.643 42.1805 136.597 42.1785 136.549 42.1785C136.502 42.1785 136.454 42.1825 136.411 42.1864C136.411 42.1864 136.411 42.1864 136.407 42.1864C135.974 41.0936 135.542 40.0007 135.114 38.9078C134.667 37.7695 134.201 36.6035 133.727 35.4434L133.682 35.3288H133.43L133.384 35.5046C133.251 36.6746 133.148 37.8426 133.081 38.9809L132.894 42.1825C132.847 42.1785 132.795 42.1766 132.749 42.1766H132.166C132.137 42.1766 132.109 42.1766 132.077 42.1785C132.327 40.5323 132.553 38.8683 132.751 37.226C132.952 35.5699 133.138 33.8722 133.305 32.1746C133.335 32.1805 133.362 32.1865 133.39 32.1924C133.479 32.2102 133.575 32.2181 133.674 32.2181C133.755 32.2181 133.844 32.2102 133.935 32.1924C133.981 32.1845 134.027 32.1746 134.074 32.1647C134.285 32.7299 134.503 33.3031 134.731 33.8841C134.977 34.5145 135.225 35.143 135.471 35.7675C135.718 36.394 135.964 37.0066 136.212 37.6074C136.456 38.2062 136.696 38.7774 136.922 39.3169L137.067 39.6667L137.218 39.3208C137.716 38.1924 138.219 36.9869 138.719 35.7378C139.195 34.5462 139.655 33.3465 140.09 32.1667C140.254 32.2003 140.401 32.2181 140.53 32.2181C140.641 32.2181 140.766 32.2043 140.911 32.1766L141.44 37.7319C141.533 38.7042 141.627 39.6113 141.718 40.4275C141.795 41.1252 141.867 41.7161 141.93 42.1864C141.831 42.1805 141.728 42.1766 141.627 42.1766H140.605C140.482 42.1766 140.359 42.1805 140.238 42.1904L140.244 42.1884Z" fill="#F1AE00"/>
<path d="M145.52 42.1844C145.429 42.1785 145.334 42.1745 145.236 42.1745H144.108C144.009 42.1745 143.915 42.1785 143.824 42.1844C143.85 41.635 143.872 41.0658 143.888 40.4868C143.904 39.8168 143.912 39.0579 143.912 38.2319V36.1568C143.912 35.3307 143.904 34.5718 143.888 33.9018C143.874 33.3208 143.85 32.7378 143.822 32.1627C143.91 32.1726 143.999 32.1825 144.094 32.1924C144.268 32.2082 144.461 32.2161 144.671 32.2161C144.881 32.2161 145.074 32.2082 145.248 32.1924C145.341 32.1845 145.433 32.1746 145.518 32.1627C145.488 32.7477 145.47 33.3307 145.454 33.9018C145.439 34.5481 145.429 35.307 145.429 36.1568V38.2319C145.429 39.0797 145.439 39.8386 145.454 40.4868C145.47 41.056 145.49 41.6271 145.518 42.1844H145.52Z" fill="#F1AE00"/>
<path d="M151.69 42.4037C151.173 42.4037 150.681 42.3366 150.233 42.2022C149.794 42.0737 149.41 41.8543 149.086 41.552C148.767 41.2536 148.513 40.8622 148.329 40.3919C148.144 39.9196 148.049 39.3306 148.049 38.6429C148.049 38.2358 148.049 37.8741 148.055 37.5559C148.059 37.2338 148.059 36.9354 148.059 36.6607C148.059 36.386 148.063 36.1251 148.065 35.8722C148.069 35.6152 148.071 35.3504 148.071 35.0757C148.071 34.2516 148.067 33.5836 148.059 33.0737C148.055 32.7062 148.045 32.3998 148.035 32.1607C148.14 32.1726 148.247 32.1824 148.356 32.1923C148.537 32.2081 148.711 32.216 148.882 32.216C149.053 32.216 149.229 32.2081 149.41 32.1923C149.517 32.1824 149.62 32.1726 149.723 32.1627C149.652 33.0579 149.608 33.9058 149.59 34.6824C149.574 35.5105 149.568 36.382 149.568 37.2733C149.568 38.2101 149.624 38.9808 149.735 39.5599C149.85 40.1587 150.022 40.631 150.252 40.963C150.488 41.3049 150.78 41.5342 151.121 41.6468C151.442 41.7536 151.821 41.8069 152.244 41.8069C152.783 41.8069 153.219 41.635 153.533 41.299C153.838 40.9709 154.07 40.5322 154.225 39.9927C154.376 39.469 154.469 38.8642 154.505 38.1923C154.536 37.5362 154.556 36.8425 154.556 36.1291C154.556 35.4156 154.546 34.7299 154.53 34.0263C154.514 33.4058 154.493 32.7852 154.465 32.1706C154.512 32.1785 154.558 32.1844 154.604 32.1923C154.721 32.2081 154.828 32.216 154.925 32.216C155.038 32.216 155.151 32.2081 155.256 32.1923C155.292 32.1864 155.33 32.1805 155.365 32.1745C155.351 32.3583 155.343 32.5737 155.332 32.8247C155.314 33.2022 155.298 33.637 155.282 34.1311C155.266 34.6251 155.25 35.1706 155.236 35.7654C155.224 36.3603 155.217 36.9947 155.217 37.6528C155.217 39.3563 154.919 40.5895 154.326 41.3128C153.737 42.0362 152.847 42.4037 151.688 42.4037H151.69Z" fill="#F1AE00"/>
<path d="M165.307 42.1884C165.265 41.2003 165.2 40.1272 165.108 38.9908C165.013 37.7695 164.914 36.56 164.813 35.3604L164.799 35.1766H164.541L164.47 35.2932L163.066 38.8307C162.623 39.9434 162.185 41.0619 161.753 42.1864C161.709 42.1805 161.663 42.1785 161.614 42.1785C161.564 42.1785 161.521 42.1825 161.475 42.1884C161.041 41.0955 160.612 40.0026 160.182 38.9098C159.732 37.7635 159.266 36.5995 158.794 35.4454L158.748 35.3307H158.496L158.45 35.5066C158.318 36.6746 158.214 37.8446 158.149 38.9809L157.961 42.1825C157.913 42.1785 157.863 42.1746 157.816 42.1746H157.233C157.203 42.1746 157.175 42.1746 157.146 42.1785C157.395 40.5244 157.623 38.8604 157.82 37.226C158.02 35.5738 158.207 33.8762 158.375 32.1746C158.405 32.1805 158.431 32.1865 158.46 32.1924C158.55 32.2102 158.645 32.2181 158.744 32.2181C158.825 32.2181 158.913 32.2102 159.006 32.1924C159.051 32.1845 159.097 32.1746 159.147 32.1647C159.357 32.7299 159.573 33.3031 159.803 33.8841C160.047 34.5145 160.297 35.143 160.543 35.7675C160.789 36.394 161.037 37.0066 161.283 37.6074C161.53 38.2062 161.767 38.7774 161.991 39.3169L162.135 39.6667L162.288 39.3208C162.786 38.1904 163.292 36.9849 163.787 35.7378C164.265 34.5402 164.728 33.3406 165.158 32.1667C165.321 32.2003 165.469 32.2161 165.598 32.2161C165.707 32.2161 165.834 32.2023 165.979 32.1746L166.508 37.7299C166.6 38.7023 166.693 39.6094 166.784 40.4256C166.862 41.1192 166.933 41.7102 166.998 42.1864C166.897 42.1785 166.796 42.1746 166.693 42.1746H165.672C165.551 42.1746 165.428 42.1785 165.305 42.1884H165.307Z" fill="#F1AE00"/>
</svg>
