<svg width="427" height="280" viewBox="0 0 427 280" fill="none" xmlns="http://www.w3.org/2000/svg">
<path style="mix-blend-mode:multiply" opacity="0.7" d="M346.447 280L4.24512 278.991L4.28196 233.333L346.484 234.347L346.447 280Z" fill="url(#paint0_linear_9368_6131)"/>
<path d="M355.457 221.246L347.96 219.191L317.51 167.163C314.6 162.187 304.306 158.278 294.469 158.278H275.054L275.001 158.161C274.885 157.894 274.341 157.679 273.786 157.679H265.61C265.054 157.679 264.689 157.894 264.793 158.161L264.839 158.278H255.693L255.546 157.863C255.451 157.596 254.923 157.381 254.37 157.381H237.092C236.536 157.381 236.146 157.596 236.223 157.863L236.339 158.278H229.49L229.386 157.863C229.318 157.596 228.815 157.381 228.259 157.381H210.98C210.425 157.381 210.013 157.596 210.059 157.863L210.133 158.278H56.237C46.3973 158.278 36.3795 162.187 33.8129 167.163L1.78568 216.937C-2.63084 221.352 4.80024 244.305 18.0417 244.305H338.648C348.638 244.305 354.947 240.42 355.426 235.067H355.457C355.457 235.067 355.469 225.53 355.457 221.246ZM290.06 161.303H292.513L292.575 161.429C291.74 161.346 290.899 161.303 290.06 161.303Z" fill="#4D4D4D"/>
<path d="M331.634 227.007L292.518 148.704H308.421L352.483 227.007H331.634Z" fill="#1A1A1A"/>
<path d="M229.389 145.261L229.902 147.298H210.419L210.063 145.261C210.017 144.994 210.428 144.779 210.984 144.779H228.263C228.818 144.779 229.322 144.994 229.389 145.261Z" fill="#333333"/>
<path d="M255.553 145.261L256.281 147.298H236.798L236.227 145.261C236.153 144.994 236.543 144.779 237.096 144.779H254.374C254.93 144.779 255.455 144.994 255.55 145.261H255.553Z" fill="#333333"/>
<path d="M275.006 145.559L275.893 147.598H265.602L264.798 145.559C264.694 145.292 265.059 145.077 265.615 145.077H273.79C274.346 145.077 274.89 145.292 275.006 145.559Z" fill="#333333"/>
<path d="M340.528 204.396L317.275 163.253H315.942L338.99 204.396H340.528Z" fill="#333333"/>
<path d="M353.971 216.86L317.514 154.561C314.603 149.586 304.309 145.676 294.473 145.676H56.2374C46.3977 145.676 36.3799 149.586 33.8133 154.561L1.68445 216.86C-2.45101 224.879 4.80062 231.707 18.042 231.707H338.648C351.89 231.707 358.666 224.879 353.971 216.86ZM20.406 226.375C11.9049 226.375 7.14005 222.044 9.68518 216.86L40.2544 154.561C41.857 151.293 48.3963 148.704 54.8927 148.704H296.026C302.522 148.704 309.24 151.293 311.07 154.561L314.76 161.149C315.07 161.705 314.926 162.212 314.444 162.59L338.185 205.29C339.278 205.8 340.162 206.488 340.589 207.253L345.971 216.86C348.875 222.047 344.411 226.375 335.91 226.375H20.406Z" fill="#1A1A1A"/>
<path d="M4.40691 216.755L35.9278 154.629C37.6041 151.324 44.2601 148.704 50.8302 148.704H290.063C296.633 148.704 303.366 151.324 305.141 154.629L338.507 216.755C341.322 221.998 336.704 226.375 328.108 226.375H15.0909C6.49459 226.375 1.74818 221.998 4.40691 216.755Z" fill="#1A1A1A"/>
<path d="M21.1885 216.755L49.4489 154.629C50.9533 151.324 51.1148 149.882 52.4933 148.704H290.06C296.63 148.704 303.363 151.324 305.138 154.629L338.504 216.755C341.319 221.998 336.702 226.375 328.105 226.375H32.376C23.7797 226.375 18.803 221.998 21.1885 216.755Z" fill="#F2F2F2"/>
<path d="M259.105 235.368H232.134C230.928 235.368 229.951 236.345 229.951 237.551V238.804C229.951 240.011 230.928 240.988 232.134 240.988H259.105C260.311 240.988 261.288 240.011 261.288 238.804V237.551C261.288 236.345 260.311 235.368 259.105 235.368Z" fill="#333333"/>
<path d="M75.1561 203.454C84.9375 182.366 69.6084 164.251 76.3657 148.508L292.478 147.887C298.265 147.869 304.276 150.412 305.94 153.652L338.75 217.542C341.569 223.027 337.529 227.607 329.641 227.582L64.5918 226.728C68.2176 218.546 71.7482 210.8 75.1561 203.451V203.454Z" fill="#ECE8F7"/>
<path d="M119.498 179.657L128.582 148.419L125.315 148.428L115.798 179.574L81.9438 179.101L79.4355 187.9H171.441L169.768 227.069L173.436 227.081L174.063 187.655L187.43 186.991L188.139 227.13L191.351 227.14L190.872 205.109L204.319 204.891L206.182 224.99C206.182 224.99 206.247 226.071 206.916 227.189L221.177 227.235C221.944 226.608 222.491 225.84 222.733 224.984C223.086 223.73 223.277 221.98 222.915 219.639C222.052 214.071 221.754 209.544 221.754 209.544L220.787 204.916C220.787 204.916 220.547 200.438 215.064 201.076C209.563 201.718 190.915 201.973 190.915 201.973L190.279 186.991H230.789C230.789 186.991 235.195 211.66 238.379 227.29L242.873 227.305C242.987 225.487 244.384 209.037 258.359 199.341L265.353 210.822C266.044 211.952 267.806 212.707 269.43 212.557L288.673 210.794C289.803 210.69 290.608 210.161 290.78 209.415C291.059 208.208 291.004 206.936 290.626 205.656L287.424 194.848L296.223 196.869L310.002 201.651L312.734 212.216L296.726 208.764L297.171 210.637L314.429 214.44L311.322 202.059L325.192 206.792L327.292 209.9C328.032 210.997 328.95 212.081 330.028 213.134L333.559 216.583C334.378 217.385 335.121 218.214 335.772 219.062L338.019 221.986L339.045 223.393C339.343 222.812 339.53 222.186 339.604 221.525C339.054 220.966 338.538 220.401 338.072 219.827L337.006 218.528C336.715 218.171 336.405 217.815 336.082 217.465L334.952 216.243C334.541 215.797 334.105 215.358 333.645 214.931L331.247 212.692L331.176 212.625C330.056 211.537 329.11 210.413 328.355 209.28L327.102 207.403L334.876 209.996L333.46 207.237L321.244 203.368L302.154 196.872L297.531 195.198C295.879 194.599 294.338 193.859 292.965 193.008C292.342 192.621 291.802 192.188 291.369 191.724L290.724 191.036C290.07 190.339 289.508 189.623 289.048 188.899L287.685 186.758C287.138 185.876 287.052 184.98 287.442 184.209L290.058 179.034L308.466 185.112L308.614 183.416L290.635 177.529L292.978 164.795L294.169 158.846L296.122 148.197C295.154 148.032 294.163 147.927 293.171 147.896L288.885 170.584L286.389 178.032L284.916 180.683C284.427 181.561 283.417 182.252 282.045 182.645C281.182 182.891 280.203 183.014 279.168 183.002L275.822 182.965L275.751 180.155C275.708 178.468 275.985 176.847 276.574 175.317L276.869 174.549C277.249 173.557 277.495 172.541 277.599 171.512L277.86 168.957C277.928 168.296 277.937 167.633 277.888 166.966L277.63 163.443C277.578 162.709 277.596 161.991 277.692 161.284L278.152 157.795C278.207 157.387 278.287 156.981 278.392 156.585L279.819 151.195C279.976 150.599 280.071 149.994 280.105 149.386L280.181 147.924L278.425 147.93L278.419 148.726C278.41 149.644 278.26 150.556 277.968 151.444L276.531 155.796C276.316 156.444 276.172 157.107 276.098 157.786L275.73 161.134C275.668 161.699 275.653 162.276 275.684 162.86L275.899 166.8C275.936 167.479 275.911 168.155 275.828 168.828L275.334 172.75L274.354 175.379C273.94 176.49 273.688 177.648 273.602 178.843L273.32 182.79L266.891 182.535L262.823 170.388C262.703 170.031 262.476 169.684 262.151 169.359L261.445 168.652C260.781 167.989 259.747 167.461 258.552 167.172L257.343 166.88C256.885 166.77 256.413 166.696 255.94 166.665L242.751 165.756L243.211 167.802L255.292 168.441C256.575 168.508 257.846 168.874 258.82 169.457C259.673 169.967 260.244 170.612 260.431 171.282L263.514 182.283L247.018 182.289L229.841 181.187L228.057 181.104L224.456 154.494L239.352 156.656L238.855 154.386L224.413 152.669L223.697 148.111L221.524 148.118L225.579 180.935L192.321 180.277L191.857 165.099L213.13 166.708L213.164 164.54L191.698 162.743L191.406 148.213L188.815 148.222L189.484 180.446L174.631 180.79L173.931 159.902L174.379 148.268L171.726 148.277L171.281 154.094L170.99 180.793L119.504 179.654L119.498 179.657ZM217.413 203.905L220.277 221.826C220.514 223.313 219.157 224.609 217.13 224.812L211.991 225.328C210.745 225.453 209.563 224.756 209.452 223.835L207.214 204.882L217.41 203.905H217.413ZM260.048 198.343L267.453 194.436C270.425 195.158 273.504 195.345 276.301 194.968L283.829 193.951L285.741 194.338L288.667 205.855C288.931 206.893 288.062 207.741 286.589 207.879L270.434 209.372C268.871 209.516 267.164 208.825 266.44 207.757L260.045 198.343H260.048ZM270.845 186.288L269.439 187.403C267.345 189.064 264.892 190.56 262.126 191.853C260.367 192.673 258.712 193.589 257.171 194.59L256.001 195.351C253.333 197.084 251.009 199.077 249.078 201.298L247.964 202.578C245.504 205.404 243.687 208.58 242.579 212.029L240.933 217.161L237.627 202.935L234.698 186.294H250.727L270.848 186.291L270.845 186.288ZM270.827 192.166L273.931 189.144L275.742 186.626H279.681L282.966 191.5L278.953 192.099C278.02 192.237 277.059 192.335 276.074 192.385L271.336 192.63C270.956 192.649 270.633 192.357 270.83 192.166H270.827ZM285.686 186.002L286.524 187.584C287.448 189.326 288.695 191.061 290.251 192.756L291.351 193.954L284.762 191.608L282.143 186.626C283.942 186.835 285.689 186.002 285.689 186.002H285.686Z" fill="#D7D9E6"/>
<path d="M163.246 71.8474C141.053 71.8474 123.059 86.6512 123.059 115.248C123.059 143.845 163.246 186.187 163.246 186.187C163.246 186.187 203.434 143.845 203.434 115.248C203.434 86.6512 185.44 71.8474 163.246 71.8474ZM163.246 143.446C146.241 143.446 132.456 129.656 132.456 112.644C132.456 95.6317 146.241 81.8415 163.246 81.8415C180.252 81.8415 194.037 95.6317 194.037 112.644C194.037 129.656 180.252 143.446 163.246 143.446Z" fill="#FEBE16"/>
<path d="M268.12 56.1314L263.957 40.6827L259.742 56.1314C259.413 57.3047 259.152 58.1431 258.959 58.653C258.765 59.1628 258.428 59.6204 257.949 60.0228C257.47 60.4282 256.831 60.6278 256.033 60.6278C255.388 60.6278 254.86 60.5081 254.443 60.2685C254.025 60.0289 253.691 59.688 253.433 59.2488C253.175 58.8096 252.963 58.2875 252.8 57.6855C252.638 57.0835 252.49 56.5215 252.361 56.0055L248.075 38.6587C247.817 37.6513 247.688 36.8835 247.688 36.3552C247.688 35.6887 247.922 35.1236 248.392 34.669C248.861 34.2114 249.438 33.9841 250.132 33.9841C251.081 33.9841 251.72 34.2882 252.048 34.8994C252.377 35.5075 252.662 36.392 252.908 37.553L256.282 52.5963L260.058 38.5174C260.34 37.4394 260.592 36.6193 260.813 36.0573C261.034 35.4952 261.4 35.01 261.903 34.5984C262.407 34.1899 263.091 33.9841 263.96 33.9841C264.829 33.9841 265.52 34.1991 266.008 34.626C266.493 35.0529 266.831 35.5198 267.018 36.0235C267.205 36.5272 267.457 37.3595 267.773 38.5205L271.586 52.5994L274.96 37.5561C275.123 36.7698 275.28 36.1556 275.427 35.7102C275.574 35.2649 275.826 34.8656 276.182 34.5155C276.538 34.1653 277.057 33.9872 277.736 33.9872C278.414 33.9872 278.991 34.2114 279.467 34.6629C279.94 35.1144 280.18 35.6795 280.18 36.3583C280.18 36.8374 280.051 37.6052 279.793 38.6618L275.507 56.0086C275.215 57.1818 274.97 58.0387 274.779 58.5823C274.589 59.126 274.257 59.6051 273.797 60.0136C273.333 60.4221 272.682 60.6278 271.838 60.6278C271.043 60.6278 270.404 60.4282 269.922 60.0289C269.443 59.6297 269.109 59.1812 268.921 58.6837C268.734 58.1861 268.47 57.3323 268.129 56.1253L268.12 56.1314Z" fill="#FD454C"/>
<path d="M300.602 38.4497H288.85V44.7766H299.672C300.467 44.7766 301.063 44.9548 301.456 45.3141C301.849 45.6704 302.045 46.1434 302.045 46.73C302.045 47.3166 301.852 47.7927 301.465 48.1612C301.078 48.5298 300.483 48.7141 299.672 48.7141H288.85V56.0422H301.008C301.827 56.0422 302.444 56.2326 302.862 56.6135C303.276 56.9943 303.485 57.5011 303.485 58.1338C303.485 58.7665 303.276 59.2395 302.862 59.6203C302.447 60.0012 301.827 60.1916 301.008 60.1916H286.83C285.694 60.1916 284.877 59.9397 284.38 59.436C283.882 58.9323 283.634 58.1184 283.634 56.9943V37.6266C283.634 36.8772 283.744 36.266 283.968 35.7899C284.189 35.3139 284.539 34.9699 285.012 34.7518C285.488 34.5368 286.093 34.4263 286.83 34.4263H300.602C301.434 34.4263 302.051 34.6105 302.457 34.9791C302.862 35.3477 303.061 35.8329 303.061 36.4288C303.061 37.0246 302.859 37.5283 302.457 37.8969C302.051 38.2654 301.434 38.4497 300.602 38.4497Z" fill="#FD454C"/>
<path d="M321.878 37.1507V44.531H333.139V37.1507C333.139 36.0972 333.376 35.3048 333.852 34.7765C334.327 34.2483 334.951 33.9841 335.724 33.9841C336.498 33.9841 337.146 34.2452 337.631 34.7673C338.116 35.2894 338.359 36.0818 338.359 37.1476V57.4459C338.359 58.5117 338.113 59.3102 337.622 59.8354C337.13 60.3637 336.498 60.6278 335.724 60.6278C334.951 60.6278 334.312 60.3606 333.845 59.8293C333.376 59.2949 333.142 58.5025 333.142 57.449V48.7848H321.881V57.449C321.881 58.5148 321.636 59.3133 321.144 59.8385C320.653 60.3668 320.021 60.6309 319.247 60.6309C318.473 60.6309 317.835 60.3637 317.368 59.8324C316.898 59.298 316.665 58.5056 316.665 57.4521V37.1537C316.665 36.1003 316.895 35.3079 317.359 34.7796C317.822 34.2513 318.452 33.9872 319.247 33.9872C320.042 33.9872 320.665 34.2483 321.154 34.7704C321.639 35.2925 321.881 36.0849 321.881 37.1507H321.878Z" fill="#FD454C"/>
<path d="M360.442 57.2741L359.211 54.04H348.739L347.508 57.3447C347.026 58.6347 346.617 59.5038 346.277 59.9553C345.936 60.4068 345.38 60.631 344.606 60.631C343.949 60.631 343.369 60.3914 342.866 59.9092C342.362 59.4301 342.11 58.8834 342.11 58.2753C342.11 57.9252 342.169 57.5597 342.285 57.185C342.402 56.8103 342.595 56.2882 342.866 55.6217L349.454 38.8891C349.641 38.41 349.865 37.8326 350.13 37.1569C350.394 36.4843 350.673 35.9253 350.974 35.48C351.272 35.0346 351.665 34.6753 352.15 34.3989C352.635 34.1224 353.236 33.9873 353.952 33.9873C354.667 33.9873 355.284 34.1255 355.769 34.3989C356.254 34.6753 356.647 35.0285 356.948 35.4615C357.246 35.8946 357.498 36.3614 357.704 36.859C357.909 37.3565 358.17 38.023 358.486 38.8523L365.216 55.4773C365.744 56.7427 366.008 57.6641 366.008 58.2354C366.008 58.8066 365.759 59.381 365.262 59.8785C364.765 60.3761 364.163 60.6249 363.463 60.6249C363.052 60.6249 362.702 60.5512 362.41 60.4037C362.118 60.2563 361.87 60.0597 361.673 59.8048C361.474 59.553 361.259 59.166 361.031 58.6439C360.801 58.1217 360.608 57.6641 360.442 57.2648V57.2741ZM350.111 50.121H357.805L353.921 39.488L350.108 50.121H350.111Z" fill="#FD454C"/>
<path d="M371.826 37.4117L377.659 54.6879L383.511 37.2889C383.815 36.3736 384.045 35.7409 384.196 35.3816C384.346 35.0253 384.601 34.7028 384.951 34.4141C385.301 34.1285 385.783 33.9841 386.391 33.9841C386.836 33.9841 387.247 34.0947 387.628 34.3189C388.009 34.5431 388.306 34.838 388.524 35.2065C388.739 35.5751 388.85 35.9467 388.85 36.3214C388.85 36.5794 388.816 36.8589 388.745 37.1568C388.675 37.4547 388.589 37.7496 388.481 38.0352C388.377 38.3239 388.27 38.6188 388.165 38.9228L381.93 55.7598C381.706 56.4048 381.485 57.016 381.264 57.5964C381.039 58.1769 380.782 58.6868 380.49 59.126C380.198 59.5652 379.808 59.9245 379.323 60.2071C378.838 60.4896 378.243 60.6278 377.54 60.6278C376.836 60.6278 376.241 60.4896 375.756 60.2163C375.271 59.9399 374.878 59.5774 374.58 59.126C374.279 58.6745 374.021 58.1616 373.797 57.5872C373.573 57.0129 373.352 56.4048 373.131 55.7598L367 39.0641C366.895 38.76 366.785 38.4621 366.674 38.1673C366.564 37.8755 366.469 37.5591 366.392 37.2182C366.315 36.8773 366.278 36.5917 366.278 36.3583C366.278 35.7594 366.518 35.2157 367 34.7243C367.479 34.2329 368.084 33.9872 368.808 33.9872C369.698 33.9872 370.328 34.2605 370.696 34.8042C371.065 35.3478 371.442 36.2201 371.829 37.4148L371.826 37.4117Z" fill="#FD454C"/>
<path d="M409.739 38.4497H397.987V44.7766H408.809C409.604 44.7766 410.2 44.9548 410.593 45.3141C410.986 45.6704 411.182 46.1434 411.182 46.73C411.182 47.3166 410.989 47.7927 410.602 48.1612C410.215 48.5298 409.619 48.7141 408.809 48.7141H397.987V56.0422H410.144C410.964 56.0422 411.581 56.2326 411.999 56.6135C412.416 56.9943 412.622 57.5011 412.622 58.1338C412.622 58.7665 412.413 59.2395 411.999 59.6203C411.584 60.0012 410.964 60.1916 410.144 60.1916H395.967C394.831 60.1916 394.014 59.9397 393.517 59.436C393.019 58.9323 392.771 58.1184 392.771 56.9943V37.6266C392.771 36.8772 392.881 36.266 393.105 35.7899C393.326 35.3139 393.676 34.9699 394.149 34.7518C394.625 34.5368 395.23 34.4263 395.967 34.4263H409.739C410.571 34.4263 411.188 34.6105 411.593 34.9791C411.996 35.3477 412.198 35.8329 412.198 36.4288C412.198 37.0246 411.996 37.5283 411.593 37.8969C411.188 38.2654 410.571 38.4497 409.739 38.4497Z" fill="#FD454C"/>
<path d="M274.795 92.588L270.666 76.1718V93.9578C270.666 94.9406 270.448 95.6808 270.006 96.1722C269.567 96.6636 268.983 96.9093 268.259 96.9093C267.534 96.9093 266.981 96.6667 266.536 96.1814C266.091 95.6962 265.87 94.9529 265.87 93.9578V73.5704C265.87 72.4463 266.162 71.6877 266.748 71.2945C267.335 70.9014 268.124 70.7048 269.121 70.7048H270.736C271.709 70.7048 272.416 70.7939 272.852 70.969C273.291 71.144 273.616 71.4604 273.828 71.918C274.04 72.3756 274.279 73.1189 274.549 74.1509L278.292 88.2636L282.034 74.1509C282.304 73.1189 282.544 72.3756 282.756 71.918C282.968 71.4604 283.29 71.144 283.732 70.969C284.171 70.7939 284.877 70.7048 285.847 70.7048H287.462C288.457 70.7048 289.249 70.9014 289.835 71.2945C290.422 71.6877 290.714 72.4463 290.714 73.5704V93.9578C290.714 94.9406 290.492 95.6808 290.057 96.1722C289.617 96.6636 289.028 96.9093 288.291 96.9093C287.6 96.9093 287.032 96.6636 286.587 96.1722C286.142 95.6808 285.921 94.9406 285.921 93.9578V76.1718L281.792 92.588C281.522 93.6537 281.304 94.4369 281.135 94.9345C280.966 95.432 280.653 95.8866 280.195 96.2951C279.738 96.7036 279.105 96.9093 278.298 96.9093C277.69 96.9093 277.174 96.7773 276.751 96.5131C276.33 96.249 276.002 95.9142 275.768 95.5027C275.535 95.0942 275.351 94.6396 275.216 94.1421C275.08 93.6445 274.942 93.1255 274.804 92.588H274.795Z" fill="#FD454C"/>
<path d="M307.403 70.2687C310.074 70.2687 312.367 70.8092 314.28 71.8934C316.196 72.9776 317.645 74.5194 318.627 76.5158C319.61 78.5152 320.104 80.8586 320.104 83.5552C320.104 85.5485 319.834 87.3575 319.297 88.9853C318.756 90.6131 317.949 92.0259 316.871 93.2207C315.794 94.4154 314.47 95.3307 312.902 95.9634C311.333 96.5961 309.534 96.9124 307.507 96.9124C305.481 96.9124 303.688 96.5868 302.098 95.9357C300.504 95.2846 299.175 94.3693 298.11 93.1838C297.044 92.0014 296.24 90.5763 295.694 88.9116C295.15 87.247 294.877 85.4502 294.877 83.5153C294.877 81.5804 295.159 79.7191 295.727 78.0668C296.295 76.4144 297.118 75.0077 298.196 73.8499C299.273 72.6889 300.584 71.8013 302.132 71.187C303.679 70.5728 305.435 70.2656 307.403 70.2656V70.2687ZM314.817 83.5214C314.817 81.6357 314.513 80.0017 313.902 78.6165C313.295 77.2345 312.423 76.1871 311.293 75.4807C310.163 74.7713 308.864 74.4181 307.403 74.4181C306.359 74.4181 305.398 74.6146 304.514 75.0077C303.63 75.4009 302.868 75.9721 302.23 76.7215C301.591 77.4709 301.088 78.4292 300.719 79.5963C300.351 80.7634 300.167 82.0718 300.167 83.5245C300.167 84.9773 300.351 86.3133 300.719 87.4957C301.088 88.6782 301.61 89.661 302.285 90.4381C302.958 91.2182 303.731 91.7987 304.603 92.1856C305.475 92.5726 306.433 92.7661 307.477 92.7661C308.812 92.7661 310.04 92.4313 311.158 91.7649C312.275 91.0984 313.166 90.0664 313.829 88.672C314.492 87.2777 314.82 85.5608 314.82 83.5214H314.817Z" fill="#FD454C"/>
<path d="M327.448 73.6932L333.281 90.9694L339.133 73.5704C339.437 72.6551 339.667 72.0193 339.818 71.6631C339.968 71.3068 340.223 70.9843 340.573 70.6956C340.923 70.41 341.405 70.2656 342.013 70.2656C342.458 70.2656 342.869 70.3762 343.25 70.6004C343.631 70.8246 343.928 71.1195 344.146 71.488C344.361 71.8566 344.472 72.2282 344.472 72.6029C344.472 72.8609 344.438 73.1404 344.368 73.4383C344.297 73.7362 344.211 74.0311 344.103 74.3167C343.999 74.6054 343.892 74.9002 343.787 75.2043L337.552 92.0413C337.328 92.6863 337.107 93.2975 336.886 93.8779C336.662 94.4584 336.404 94.9683 336.112 95.4075C335.82 95.8467 335.43 96.206 334.945 96.4886C334.46 96.7711 333.865 96.9093 333.162 96.9093C332.459 96.9093 331.863 96.7711 331.378 96.4978C330.893 96.2214 330.5 95.8589 330.202 95.4075C329.904 94.956 329.643 94.4431 329.419 93.8687C329.195 93.2944 328.974 92.6863 328.753 92.0413L322.622 75.3456C322.517 75.0415 322.407 74.7436 322.296 74.4488C322.186 74.157 322.091 73.8406 322.014 73.4997C321.937 73.1588 321.9 72.8732 321.9 72.6398C321.9 72.0408 322.14 71.4972 322.622 71.0058C323.101 70.5144 323.706 70.2687 324.43 70.2687C325.321 70.2687 325.95 70.542 326.318 71.0857C326.687 71.6293 327.064 72.5015 327.451 73.6963L327.448 73.6932Z" fill="#FD454C"/>
<path d="M365.36 74.7312H353.608V81.0581H364.43C365.225 81.0581 365.821 81.2363 366.214 81.5956C366.607 81.9519 366.803 82.4249 366.803 83.0115C366.803 83.5981 366.61 84.0742 366.223 84.4427C365.836 84.8113 365.24 84.9955 364.43 84.9955H353.608V92.3237H365.765C366.585 92.3237 367.202 92.5141 367.62 92.895C368.037 93.2758 368.243 93.7826 368.243 94.4153C368.243 95.048 368.034 95.521 367.62 95.9018C367.205 96.2826 366.585 96.4731 365.765 96.4731H351.588C350.452 96.4731 349.635 96.2212 349.138 95.7175C348.64 95.2138 348.392 94.3999 348.392 93.2758V73.9081C348.392 73.1587 348.502 72.5475 348.726 72.0714C348.947 71.5954 349.297 71.2514 349.77 71.0333C350.246 70.8183 350.851 70.7078 351.588 70.7078H365.36C366.192 70.7078 366.809 70.892 367.215 71.2606C367.617 71.6292 367.819 72.1144 367.819 72.7103C367.819 73.3061 367.617 73.8098 367.215 74.1784C366.809 74.5469 366.192 74.7312 365.36 74.7312Z" fill="#FD454C"/>
<path d="M375.621 70.708H382.421C384.189 70.708 385.706 70.8708 386.971 71.1994C388.236 71.5281 389.384 72.1423 390.416 73.0453C393.096 75.3426 394.437 78.8347 394.437 83.5216C394.437 85.0695 394.302 86.4792 394.032 87.7569C393.762 89.0346 393.348 90.1863 392.786 91.2091C392.224 92.2349 391.502 93.1501 390.624 93.961C389.934 94.5814 389.178 95.0789 388.359 95.4536C387.539 95.8283 386.658 96.0925 385.715 96.246C384.773 96.3996 383.71 96.4733 382.528 96.4733H375.728C374.779 96.4733 374.064 96.329 373.585 96.0433C373.103 95.7577 372.793 95.3523 372.646 94.8302C372.498 94.308 372.428 93.6323 372.428 92.8V73.9053C372.428 72.7812 372.679 71.9672 373.183 71.4636C373.686 70.9599 374.5 70.708 375.624 70.708H375.621ZM377.641 74.8389V92.327H381.595C382.461 92.327 383.142 92.3025 383.634 92.2564C384.125 92.2103 384.635 92.0936 385.163 91.9063C385.691 91.7189 386.145 91.4548 386.532 91.1139C388.276 89.6366 389.151 87.0935 389.151 83.4847C389.151 80.9417 388.767 79.0374 387.999 77.772C387.232 76.5067 386.286 75.702 385.163 75.3549C384.039 75.0079 382.679 74.8359 381.085 74.8359H377.641V74.8389Z" fill="#FD454C"/>
<path d="M264.878 22.6941H261.08V25.0222H264.878V22.6941Z" fill="#FD454C"/>
<path d="M258.068 22.6941H254.271V25.0222H258.068V22.6941Z" fill="#FD454C"/>
<path d="M251.28 22.6941H247.482V25.0222H251.28V22.6941Z" fill="#FD454C"/>
<path d="M285.331 22.6941H281.533V25.0222H285.331V22.6941Z" fill="#FD454C"/>
<path d="M278.521 22.6941H274.724V25.0222H278.521V22.6941Z" fill="#FD454C"/>
<path d="M271.733 22.6941H267.936V25.0222H271.733V22.6941Z" fill="#FD454C"/>
<path d="M305.784 22.6941H301.986V25.0222H305.784V22.6941Z" fill="#FD454C"/>
<path d="M298.974 22.6941H295.177V25.0222H298.974V22.6941Z" fill="#FD454C"/>
<path d="M292.186 22.6941H288.389V25.0222H292.186V22.6941Z" fill="#FD454C"/>
<path d="M326.237 22.6941H322.439V25.0222H326.237V22.6941Z" fill="#FD454C"/>
<path d="M319.428 22.6941H315.63V25.0222H319.428V22.6941Z" fill="#FD454C"/>
<path d="M312.64 22.6941H308.842V25.0222H312.64V22.6941Z" fill="#FD454C"/>
<path d="M346.691 22.6941H342.894V25.0222H346.691V22.6941Z" fill="#FD454C"/>
<path d="M339.882 22.6941H336.084V25.0222H339.882V22.6941Z" fill="#FD454C"/>
<path d="M333.094 22.6941H329.296V25.0222H333.094V22.6941Z" fill="#FD454C"/>
<path d="M367.141 22.6941H363.344V25.0222H367.141V22.6941Z" fill="#FD454C"/>
<path d="M360.335 22.6941H356.537V25.0222H360.335V22.6941Z" fill="#FD454C"/>
<path d="M353.547 22.6941H349.749V25.0222H353.547V22.6941Z" fill="#FD454C"/>
<path d="M387.595 22.6941H383.797V25.0222H387.595V22.6941Z" fill="#FD454C"/>
<path d="M380.788 22.6941H376.99V25.0222H380.788V22.6941Z" fill="#FD454C"/>
<path d="M374 22.6941H370.202V25.0222H374V22.6941Z" fill="#FD454C"/>
<path d="M408.048 22.6941H404.25V25.0222H408.048V22.6941Z" fill="#FD454C"/>
<path d="M401.241 22.6941H397.443V25.0222H401.241V22.6941Z" fill="#FD454C"/>
<path d="M394.453 22.6941H390.655V25.0222H394.453V22.6941Z" fill="#FD454C"/>
<path fill-rule="evenodd" clip-rule="evenodd" d="M423.388 29.2668L421.54 30.6827C422.246 31.5888 422.82 32.59 423.287 33.6343L425.418 32.6944C424.877 31.4782 424.205 30.3172 423.388 29.2668Z" fill="#FD454C"/>
<path fill-rule="evenodd" clip-rule="evenodd" d="M417.973 24.6628L416.874 26.7176C417.887 27.255 418.827 27.9246 419.686 28.6832L421.237 26.9448C420.242 26.0634 419.149 25.2863 417.973 24.6628Z" fill="#FD454C"/>
<path fill-rule="evenodd" clip-rule="evenodd" d="M411.157 22.731L411.01 25.0559C412.155 25.1297 413.288 25.3385 414.381 25.6733L415.075 23.4496C413.801 23.0596 412.483 22.817 411.157 22.731Z" fill="#FD454C"/>
<path d="M426.837 49.5037H424.51V53.3029H426.837V49.5037Z" fill="#FD454C"/>
<path d="M426.837 42.6914H424.51V46.4906H426.837V42.6914Z" fill="#FD454C"/>
<path fill-rule="evenodd" clip-rule="evenodd" d="M426.425 35.7502L424.153 36.2632C424.285 36.8221 424.365 37.3903 424.433 37.9585C424.451 38.2442 424.482 38.5298 424.494 38.8154L424.503 39.2454L424.509 39.4635V39.7H426.837C426.84 39.3898 426.824 39.0427 426.818 38.7141C426.806 38.3824 426.772 38.0507 426.748 37.719C426.671 37.0586 426.576 36.3983 426.422 35.7502H426.425Z" fill="#FD454C"/>
<path d="M426.836 69.9617H424.509V73.7609H426.836V69.9617Z" fill="#FD454C"/>
<path d="M426.836 63.1526H424.509V66.9518H426.836V63.1526Z" fill="#FD454C"/>
<path d="M426.836 56.3618H424.509V60.161H426.836V56.3618Z" fill="#FD454C"/>
<path d="M426.836 90.4229H424.509V94.2221H426.836V90.4229Z" fill="#FD454C"/>
<path d="M426.836 83.6138H424.509V87.413H426.836V83.6138Z" fill="#FD454C"/>
<path d="M426.836 76.823H424.509V80.6222H426.836V76.823Z" fill="#FD454C"/>
<path d="M399.229 105.875H395.432V108.203H399.229V105.875Z" fill="#FD454C"/>
<path d="M406.039 105.875H402.241V108.203H406.039V105.875Z" fill="#FD454C"/>
<path d="M412.824 105.875H409.026V108.203H412.824V105.875Z" fill="#FD454C"/>
<path d="M378.776 105.875H374.979V108.203H378.776V105.875Z" fill="#FD454C"/>
<path d="M385.586 105.875H381.788V108.203H385.586V105.875Z" fill="#FD454C"/>
<path d="M392.371 105.875H388.573V108.203H392.371V105.875Z" fill="#FD454C"/>
<path d="M358.323 105.875H354.525V108.203H358.323V105.875Z" fill="#FD454C"/>
<path d="M365.133 105.875H361.335V108.203H365.133V105.875Z" fill="#FD454C"/>
<path d="M371.918 105.875H368.12V108.203H371.918V105.875Z" fill="#FD454C"/>
<path d="M337.87 105.875H334.072V108.203H337.87V105.875Z" fill="#FD454C"/>
<path d="M344.68 105.875H340.882V108.203H344.68V105.875Z" fill="#FD454C"/>
<path d="M351.465 105.875H347.667V108.203H351.465V105.875Z" fill="#FD454C"/>
<path d="M317.417 105.875H313.619V108.203H317.417V105.875Z" fill="#FD454C"/>
<path d="M324.226 105.875H320.429V108.203H324.226V105.875Z" fill="#FD454C"/>
<path d="M331.012 105.875H327.214V108.203H331.012V105.875Z" fill="#FD454C"/>
<path d="M296.964 105.875H293.166V108.203H296.964V105.875Z" fill="#FD454C"/>
<path d="M303.773 105.875H299.976V108.203H303.773V105.875Z" fill="#FD454C"/>
<path d="M310.558 105.875H306.761V108.203H310.558V105.875Z" fill="#FD454C"/>
<path d="M276.511 105.875H272.713V108.203H276.511V105.875Z" fill="#FD454C"/>
<path d="M283.32 105.875H279.522V108.203H283.32V105.875Z" fill="#FD454C"/>
<path d="M290.105 105.875H286.308V108.203H290.105V105.875Z" fill="#FD454C"/>
<path d="M256.058 105.875H252.26V108.203H256.058V105.875Z" fill="#FD454C"/>
<path d="M262.867 105.875H259.069V108.203H262.867V105.875Z" fill="#FD454C"/>
<path d="M269.652 105.875H265.854V108.203H269.652V105.875Z" fill="#FD454C"/>
<path fill-rule="evenodd" clip-rule="evenodd" d="M236.919 101.63L238.767 100.214C238.061 99.3082 237.487 98.3069 237.02 97.2627L234.89 98.2025C235.43 99.4188 236.102 100.58 236.919 101.63Z" fill="#FD454C"/>
<path fill-rule="evenodd" clip-rule="evenodd" d="M242.335 106.234L243.434 104.179C242.421 103.642 241.481 102.972 240.622 102.214L239.071 103.952C240.066 104.833 241.159 105.611 242.335 106.234Z" fill="#FD454C"/>
<path fill-rule="evenodd" clip-rule="evenodd" d="M249.148 108.166L249.295 105.841C248.15 105.767 247.017 105.558 245.924 105.223L245.23 107.447C246.505 107.837 247.822 108.08 249.148 108.166Z" fill="#FD454C"/>
<path d="M235.795 77.5969H233.468V81.3961H235.795V77.5969Z" fill="#FD454C"/>
<path d="M235.795 84.4092H233.468V88.2084H235.795V84.4092Z" fill="#FD454C"/>
<path fill-rule="evenodd" clip-rule="evenodd" d="M233.883 95.1465L236.154 94.6336C236.022 94.0746 235.943 93.5064 235.875 92.9382C235.857 92.6526 235.826 92.367 235.814 92.0813L235.804 91.6513L235.798 91.4333V91.1968H233.471C233.468 91.507 233.483 91.854 233.49 92.1827C233.502 92.5144 233.536 92.8461 233.56 93.1778C233.637 93.8381 233.732 94.4985 233.886 95.1465H233.883Z" fill="#FD454C"/>
<path d="M235.795 57.1357H233.468V60.935H235.795V57.1357Z" fill="#FD454C"/>
<path d="M235.795 63.948H233.468V67.7472H235.795V63.948Z" fill="#FD454C"/>
<path d="M235.795 70.7385H233.468V74.5377H235.795V70.7385Z" fill="#FD454C"/>
<path d="M235.795 36.6746H233.468V40.4738H235.795V36.6746Z" fill="#FD454C"/>
<path d="M235.795 43.4868H233.468V47.286H235.795V43.4868Z" fill="#FD454C"/>
<path d="M235.795 50.2773H233.468V54.0766H235.795V50.2773Z" fill="#FD454C"/>
<path d="M427.002 97.3333H424.666V101.218H427.002V97.3333Z" fill="#FD454C"/>
<path d="M244.17 22.6909H240.289V25.019H244.17V22.6909Z" fill="#FD454C"/>
<path d="M240.393 0C236.282 0 232.951 2.74269 232.951 8.03765C232.951 13.3326 240.393 21.1768 240.393 21.1768C240.393 21.1768 247.835 13.3357 247.835 8.03765C247.835 2.73962 244.504 0 240.393 0ZM240.393 13.2589C237.243 13.2589 234.692 10.7036 234.692 7.55545C234.692 4.40735 237.246 1.85201 240.393 1.85201C243.54 1.85201 246.094 4.40735 246.094 7.55545C246.094 10.7036 243.54 13.2589 240.393 13.2589Z" fill="#FD454C"/>
<path d="M412.931 88.967C409.898 88.967 407.438 90.991 407.438 94.9008C407.438 98.8106 412.931 104.597 412.931 104.597C412.931 104.597 418.423 98.8106 418.423 94.9008C418.423 90.991 415.964 88.967 412.931 88.967ZM412.931 98.7553C410.607 98.7553 408.722 96.8695 408.722 94.5446C408.722 92.2196 410.607 90.3338 412.931 90.3338C415.255 90.3338 417.14 92.2196 417.14 94.5446C417.14 96.8695 415.255 98.7553 412.931 98.7553Z" fill="#FD454C"/>
<defs>
<linearGradient id="paint0_linear_9368_6131" x1="178.142" y1="228.884" x2="178.054" y2="280.087" gradientUnits="userSpaceOnUse">
<stop stop-color="#71756F"/>
<stop offset="0.03" stop-color="#828580"/>
<stop offset="0.1" stop-color="#A3A6A2"/>
<stop offset="0.18" stop-color="#C0C1BF"/>
<stop offset="0.27" stop-color="#D7D8D6"/>
<stop offset="0.37" stop-color="#E9E9E8"/>
<stop offset="0.49" stop-color="#F5F5F5"/>
<stop offset="0.65" stop-color="#FCFCFC"/>
<stop offset="1" stop-color="white"/>
</linearGradient>
</defs>
</svg>
