<svg width="631" height="280" viewBox="0 0 631 280" fill="none" xmlns="http://www.w3.org/2000/svg">
<g clip-path="url(#clip0_9387_6454)">
<path style="mix-blend-mode:multiply" opacity="0.7" d="M346.729 280L4.52734 278.991L4.56419 233.333L346.766 234.347L346.729 280Z" fill="url(#paint0_linear_9387_6454)"/>
<path d="M355.739 221.246L348.242 219.191L317.793 167.163C314.882 162.187 304.588 158.277 294.751 158.277H275.336L275.284 158.161C275.167 157.894 274.624 157.679 274.068 157.679H265.892C265.336 157.679 264.971 157.894 265.076 158.161L265.122 158.277H255.976L255.828 157.863C255.733 157.596 255.205 157.381 254.652 157.381H237.374C236.818 157.381 236.428 157.596 236.505 157.863L236.622 158.277H229.772L229.668 157.863C229.6 157.596 229.097 157.381 228.541 157.381H211.262C210.707 157.381 210.295 157.596 210.341 157.863L210.415 158.277H56.5193C46.6795 158.277 36.6617 162.187 34.0951 167.163L2.0679 216.937C-2.34861 221.351 5.08247 244.305 18.3239 244.305H338.93C348.921 244.305 355.23 240.42 355.709 235.067H355.739C355.739 235.067 355.752 225.53 355.739 221.246ZM290.343 161.303H292.796L292.857 161.429C292.022 161.346 291.181 161.303 290.343 161.303Z" fill="#4D4D4D"/>
<path d="M331.916 227.007L292.8 148.704H308.703L352.765 227.007H331.916Z" fill="#1A1A1A"/>
<path d="M229.672 145.261L230.184 147.298H210.701L210.345 145.261C210.299 144.994 210.711 144.779 211.266 144.779H228.545C229.101 144.779 229.604 144.994 229.672 145.261Z" fill="#333333"/>
<path d="M255.835 145.261L256.563 147.298H237.08L236.509 145.261C236.435 144.994 236.825 144.779 237.378 144.779H254.656C255.212 144.779 255.737 144.994 255.832 145.261H255.835Z" fill="#333333"/>
<path d="M275.288 145.559L276.176 147.598H265.885L265.08 145.559C264.976 145.292 265.341 145.077 265.897 145.077H274.073C274.628 145.077 275.172 145.292 275.288 145.559Z" fill="#333333"/>
<path d="M340.81 204.396L317.557 163.253H316.225L339.272 204.396H340.81Z" fill="#333333"/>
<path d="M354.254 216.86L317.796 154.561C314.886 149.586 304.591 145.676 294.755 145.676H56.5196C46.6799 145.676 36.6621 149.586 34.0955 154.561L1.96667 216.86C-2.16878 224.879 5.08284 231.707 18.3243 231.707H338.931C352.172 231.707 358.948 224.879 354.254 216.86ZM20.6883 226.375C12.1871 226.375 7.42228 222.044 9.9674 216.86L40.5366 154.561C42.1392 151.293 48.6785 148.704 55.1749 148.704H296.308C302.805 148.704 309.522 151.293 311.352 154.561L315.042 161.149C315.352 161.705 315.208 162.212 314.726 162.59L338.467 205.29C339.56 205.8 340.444 206.488 340.871 207.253L346.253 216.86C349.157 222.047 344.693 226.375 336.192 226.375H20.6883Z" fill="#1A1A1A"/>
<path d="M4.68913 216.755L36.2101 154.629C37.8863 151.324 44.5424 148.704 51.1124 148.704H290.345C296.915 148.704 303.648 151.324 305.423 154.629L338.789 216.755C341.604 221.998 336.987 226.375 328.39 226.375H15.3732C6.77682 226.375 2.03041 221.998 4.68913 216.755Z" fill="#1A1A1A"/>
<path d="M21.4707 216.755L49.7312 154.629C51.2355 151.324 51.397 149.882 52.7755 148.704H290.343C296.913 148.704 303.645 151.324 305.42 154.629L338.786 216.755C341.601 221.998 336.984 226.375 328.388 226.375H32.6582C24.0619 226.375 19.0852 221.998 21.4707 216.755Z" fill="#ECE8F7"/>
<path d="M259.387 235.367H232.416C231.211 235.367 230.233 236.345 230.233 237.551V238.804C230.233 240.01 231.211 240.988 232.416 240.988H259.387C260.593 240.988 261.57 240.01 261.57 238.804V237.551C261.57 236.345 260.593 235.367 259.387 235.367Z" fill="#333333"/>
<path d="M75.4383 203.454C85.2197 182.366 69.8906 164.251 76.6479 148.508L292.76 147.887C298.547 147.869 304.558 150.412 306.222 153.652L339.033 217.542C341.851 223.027 337.811 227.607 329.924 227.582L64.874 226.728C68.4998 218.546 72.0305 210.8 75.4383 203.451V203.454Z" fill="#ECE8F7"/>
<path d="M119.78 179.657L128.864 148.419L125.598 148.428L116.08 179.574L82.2261 179.101L79.7178 187.9H171.723L170.05 227.069L173.719 227.081L174.345 187.655L187.712 186.991L188.421 227.13L191.633 227.14L191.154 205.109L204.601 204.891L206.465 224.99C206.465 224.99 206.529 226.071 207.198 227.189L221.459 227.235C222.227 226.608 222.773 225.84 223.016 224.984C223.369 223.73 223.559 221.98 223.197 219.639C222.334 214.071 222.036 209.544 222.036 209.544L221.069 204.916C221.069 204.916 220.83 200.438 215.346 201.076C209.845 201.718 191.197 201.973 191.197 201.973L190.561 186.991H231.072C231.072 186.991 235.477 211.66 238.661 227.29L243.156 227.305C243.269 225.487 244.666 209.037 258.641 199.341L265.635 210.822C266.326 211.952 268.088 212.707 269.712 212.557L288.956 210.794C290.085 210.69 290.89 210.161 291.062 209.415C291.341 208.208 291.286 206.936 290.908 205.656L287.706 194.848L296.505 196.869L310.284 201.651L313.016 212.216L297.009 208.764L297.454 210.637L314.711 214.44L311.604 202.059L325.475 206.792L327.575 209.9C328.315 210.997 329.233 212.081 330.31 213.134L333.841 216.583C334.661 217.385 335.403 218.214 336.054 219.062L338.302 221.986L339.327 223.393C339.625 222.812 339.812 222.186 339.886 221.525C339.336 220.966 338.82 220.401 338.354 219.827L337.289 218.528C336.997 218.171 336.687 217.815 336.364 217.465L335.235 216.243C334.823 215.797 334.387 215.358 333.927 214.931L331.529 212.692L331.458 212.625C330.338 211.537 329.392 210.413 328.637 209.28L327.384 207.403L335.158 209.996L333.743 207.237L321.527 203.368L302.437 196.872L297.813 195.198C296.161 194.599 294.62 193.859 293.248 193.008C292.624 192.621 292.084 192.188 291.651 191.724L291.006 191.036C290.353 190.339 289.791 189.623 289.33 188.899L287.967 186.758C287.421 185.876 287.335 184.98 287.725 184.209L290.34 179.034L308.749 185.112L308.896 183.416L290.917 177.529L293.26 164.795L294.451 158.846L296.404 148.197C295.437 148.032 294.445 147.927 293.453 147.896L289.167 170.584L286.671 178.032L285.198 180.683C284.71 181.561 283.7 182.252 282.327 182.645C281.465 182.891 280.485 183.014 279.451 183.002L276.104 182.965L276.033 180.155C275.991 178.468 276.267 176.847 276.856 175.317L277.151 174.549C277.532 173.557 277.777 172.541 277.882 171.512L278.143 168.957C278.21 168.296 278.219 167.633 278.17 166.966L277.912 163.443C277.86 162.709 277.879 161.991 277.974 161.284L278.434 157.795C278.49 157.387 278.569 156.981 278.674 156.585L280.101 151.195C280.258 150.599 280.353 149.994 280.387 149.386L280.464 147.924L278.708 147.93L278.701 148.726C278.692 149.644 278.542 150.556 278.25 151.444L276.813 155.796C276.598 156.444 276.454 157.107 276.38 157.786L276.012 161.134C275.951 161.699 275.935 162.276 275.966 162.86L276.181 166.8C276.218 167.479 276.193 168.155 276.11 168.828L275.616 172.75L274.637 175.379C274.222 176.49 273.97 177.648 273.884 178.843L273.602 182.79L267.173 182.535L263.105 170.388C262.985 170.031 262.758 169.684 262.433 169.359L261.727 168.652C261.064 167.989 260.029 167.461 258.835 167.172L257.625 166.88C257.168 166.77 256.695 166.696 256.222 166.665L243.033 165.756L243.493 167.802L255.574 168.441C256.858 168.508 258.129 168.874 259.102 169.457C259.955 169.967 260.526 170.612 260.714 171.282L263.796 182.283L247.3 182.289L230.123 181.187L228.339 181.104L224.738 154.494L239.634 156.656L239.137 154.386L224.695 152.669L223.98 148.111L221.806 148.118L225.862 180.935L192.603 180.277L192.139 165.099L213.412 166.708L213.446 164.54L191.98 162.743L191.688 148.213L189.097 148.222L189.766 180.446L174.913 180.79L174.213 159.902L174.661 148.268L172.009 148.277L171.563 154.094L171.272 180.793L119.786 179.654L119.78 179.657ZM217.695 203.905L220.56 221.826C220.796 223.313 219.439 224.609 217.413 224.812L212.273 225.328C211.027 225.453 209.845 224.756 209.734 223.835L207.496 204.882L217.692 203.905H217.695ZM260.33 198.343L267.735 194.436C270.707 195.158 273.786 195.345 276.583 194.968L284.111 193.951L286.024 194.338L288.949 205.855C289.214 206.893 288.345 207.741 286.871 207.879L270.716 209.372C269.153 209.516 267.446 208.825 266.722 207.757L260.327 198.343H260.33ZM271.127 186.288L269.721 187.403C267.628 189.064 265.175 190.56 262.408 191.853C260.649 192.673 258.994 193.589 257.453 194.59L256.283 195.351C253.615 197.084 251.291 199.077 249.36 201.298L248.246 202.578C245.787 205.404 243.969 208.58 242.861 212.029L241.215 217.161L237.909 202.935L234.98 186.294H251.009L271.131 186.291L271.127 186.288ZM271.109 192.166L274.213 189.144L276.024 186.626H279.963L283.248 191.5L279.236 192.099C278.302 192.237 277.341 192.335 276.356 192.385L271.619 192.63C271.238 192.649 270.916 192.357 271.112 192.166H271.109ZM285.968 186.002L286.807 187.584C287.731 189.326 288.977 191.061 290.534 192.756L291.633 193.954L285.044 191.608L282.425 186.626C284.225 186.835 285.971 186.002 285.971 186.002H285.968Z" fill="#D7D9E6"/>
<path d="M163.529 71.8474C141.335 71.8474 123.341 86.6512 123.341 115.248C123.341 143.845 163.529 186.187 163.529 186.187C163.529 186.187 203.717 143.845 203.717 115.248C203.717 86.6512 185.723 71.8474 163.529 71.8474ZM163.529 143.446C146.523 143.446 132.738 129.656 132.738 112.644C132.738 95.6317 146.523 81.8415 163.529 81.8415C180.534 81.8415 194.319 95.6317 194.319 112.644C194.319 129.656 180.534 143.446 163.529 143.446Z" fill="#FEBE16"/>
<path d="M388.424 85.4203L382.088 61.9106L375.674 85.4203C375.174 87.2057 374.777 88.4817 374.482 89.2575C374.188 90.0334 373.674 90.7298 372.945 91.3421C372.216 91.9591 371.244 92.2629 370.03 92.2629C369.049 92.2629 368.245 92.0806 367.61 91.716C366.974 91.3515 366.465 90.8327 366.073 90.1643C365.68 89.4959 365.358 88.7014 365.11 87.7853C364.862 86.8692 364.638 86.0139 364.442 85.2287L357.92 58.8305C357.527 57.2974 357.331 56.129 357.331 55.325C357.331 54.3108 357.686 53.4508 358.401 52.7591C359.116 52.0627 359.994 51.7168 361.05 51.7168C362.494 51.7168 363.465 52.1795 363.965 53.1096C364.465 54.035 364.9 55.3811 365.274 57.1479L370.408 80.0406L376.155 58.6155C376.585 56.9749 376.968 55.727 377.304 54.8717C377.641 54.0164 378.197 53.2779 378.963 52.6516C379.729 52.0299 380.771 51.7168 382.093 51.7168C383.415 51.7168 384.466 52.044 385.209 52.6936C385.947 53.3433 386.461 54.0537 386.746 54.8203C387.031 55.5868 387.415 56.8534 387.896 58.6201L393.698 80.0453L398.833 57.1525C399.081 55.956 399.319 55.0212 399.543 54.3435C399.767 53.6658 400.151 53.0582 400.693 52.5254C401.235 51.9926 402.024 51.7215 403.057 51.7215C404.089 51.7215 404.967 52.0627 405.692 52.7497C406.411 53.4368 406.776 54.2968 406.776 55.3297C406.776 56.0588 406.579 57.2273 406.187 58.8351L399.665 85.2333C399.221 87.0188 398.847 88.3228 398.557 89.1501C398.268 89.9773 397.763 90.7065 397.062 91.3281C396.357 91.9497 395.366 92.2629 394.082 92.2629C392.871 92.2629 391.9 91.9591 391.166 91.3515C390.437 90.7438 389.928 90.0615 389.643 89.3043C389.358 88.5471 388.956 87.2478 388.438 85.4109L388.424 85.4203Z" fill="#2F3160"/>
<path d="M437.855 58.5125H419.97V68.1407H436.439C437.649 68.1407 438.556 68.4118 439.154 68.9586C439.752 69.5008 440.051 70.2206 440.051 71.1133C440.051 72.006 439.756 72.7305 439.168 73.2913C438.579 73.8522 437.673 74.1326 436.439 74.1326H419.97V85.2845H438.471C439.719 85.2845 440.658 85.5743 441.293 86.1539C441.924 86.7335 442.242 87.5047 442.242 88.4675C442.242 89.4303 441.924 90.1501 441.293 90.7296C440.663 91.3092 439.719 91.599 438.471 91.599H416.896C415.167 91.599 413.924 91.2157 413.168 90.4492C412.411 89.6827 412.032 88.4441 412.032 86.7335V57.2599C412.032 56.1194 412.2 55.1893 412.541 54.4649C412.878 53.7404 413.41 53.2169 414.13 52.8851C414.854 52.5579 415.775 52.3896 416.896 52.3896H437.855C439.121 52.3896 440.06 52.6701 440.677 53.231C441.293 53.7918 441.597 54.5303 441.597 55.437C441.597 56.3438 441.289 57.1103 440.677 57.6712C440.06 58.232 439.121 58.5125 437.855 58.5125Z" fill="#2F3160"/>
<path d="M470.232 56.5356V67.767H487.369V56.5356C487.369 54.9324 487.729 53.7266 488.453 52.9227C489.177 52.1188 490.126 51.7168 491.303 51.7168C492.48 51.7168 493.466 52.1141 494.204 52.9086C494.943 53.7032 495.312 54.9091 495.312 56.5309V87.4207C495.312 89.0425 494.938 90.2578 494.19 91.057C493.443 91.8609 492.48 92.2629 491.303 92.2629C490.126 92.2629 489.154 91.8562 488.444 91.0476C487.729 90.2344 487.374 89.0285 487.374 87.4254V74.2403H470.237V87.4254C470.237 89.0472 469.863 90.2624 469.115 91.0617C468.368 91.8656 467.405 92.2675 466.228 92.2675C465.051 92.2675 464.079 91.8609 463.369 91.0523C462.654 90.2391 462.299 89.0332 462.299 87.43V56.5403C462.299 54.9371 462.649 53.7312 463.355 52.9273C464.06 52.1234 465.018 51.7215 466.228 51.7215C467.438 51.7215 468.387 52.1188 469.129 52.9133C469.868 53.7079 470.237 54.9137 470.237 56.5356H470.232Z" fill="#2F3160"/>
<path d="M528.918 87.1592L527.045 82.2376H511.108L509.235 87.2667C508.501 89.2297 507.88 90.5524 507.362 91.2395C506.843 91.9266 505.997 92.2677 504.82 92.2677C503.82 92.2677 502.937 91.9032 502.171 91.1694C501.405 90.4403 501.021 89.6083 501.021 88.6829C501.021 88.15 501.11 87.5938 501.288 87.0236C501.465 86.4534 501.76 85.6589 502.171 84.6446L512.197 59.1812C512.482 58.4521 512.823 57.5734 513.225 56.5451C513.627 55.5216 514.052 54.6709 514.51 53.9932C514.963 53.3155 515.561 52.7686 516.299 52.348C517.037 51.9273 517.953 51.7217 519.042 51.7217C520.13 51.7217 521.069 51.932 521.808 52.348C522.546 52.7686 523.144 53.3061 523.602 53.9651C524.055 54.6242 524.438 55.3346 524.751 56.0918C525.064 56.8489 525.461 57.8632 525.942 59.1251L536.183 84.4249C536.987 86.3506 537.389 87.7528 537.389 88.6221C537.389 89.4915 537.01 90.3655 536.254 91.1226C535.497 91.8798 534.581 92.2584 533.516 92.2584C532.89 92.2584 532.357 92.1462 531.913 91.9219C531.469 91.6975 531.091 91.3984 530.792 91.0105C530.488 90.6272 530.161 90.0383 529.815 89.2437C529.465 88.4492 529.171 87.7528 528.918 87.1452V87.1592ZM513.197 76.2737H524.905L518.995 60.0926L513.192 76.2737H513.197Z" fill="#2F3160"/>
<path d="M546.242 56.9329L555.119 83.2235L564.024 56.7459C564.487 55.3531 564.837 54.3903 565.066 53.8434C565.295 53.3012 565.683 52.8105 566.215 52.3711C566.748 51.9365 567.481 51.7168 568.407 51.7168C569.084 51.7168 569.71 51.8851 570.289 52.2263C570.869 52.5674 571.322 53.0161 571.654 53.577C571.981 54.1379 572.149 54.7034 572.149 55.2736C572.149 55.6662 572.098 56.0916 571.99 56.5449C571.883 56.9983 571.752 57.447 571.588 57.8817C571.429 58.321 571.266 58.7697 571.107 59.2324L561.618 84.8547C561.277 85.8363 560.941 86.7664 560.604 87.6497C560.263 88.5331 559.871 89.309 559.427 89.9773C558.983 90.6457 558.39 91.1925 557.651 91.6225C556.913 92.0525 556.007 92.2629 554.937 92.2629C553.867 92.2629 552.961 92.0525 552.222 91.6366C551.484 91.2159 550.886 90.6644 550.433 89.9773C549.975 89.2903 549.583 88.5097 549.242 87.6357C548.901 86.7617 548.564 85.8363 548.228 84.8547L538.898 59.4474C538.739 58.9847 538.571 58.5313 538.403 58.0826C538.234 57.6386 538.089 57.1572 537.973 56.6384C537.856 56.1196 537.8 55.6849 537.8 55.3297C537.8 54.4183 538.164 53.591 538.898 52.8432C539.627 52.0954 540.547 51.7215 541.65 51.7215C543.004 51.7215 543.962 52.1374 544.523 52.9647C545.084 53.792 545.658 55.1194 546.247 56.9375L546.242 56.9329Z" fill="#2F3160"/>
<path d="M603.938 58.5125H586.053V68.1407H602.522C603.732 68.1407 604.639 68.4118 605.237 68.9586C605.835 69.5008 606.134 70.2206 606.134 71.1133C606.134 72.006 605.839 72.7305 605.251 73.2913C604.662 73.8522 603.756 74.1326 602.522 74.1326H586.053V85.2845H604.554C605.802 85.2845 606.741 85.5743 607.376 86.1539C608.012 86.7335 608.325 87.5047 608.325 88.4675C608.325 89.4303 608.007 90.1501 607.376 90.7296C606.746 91.3092 605.802 91.599 604.554 91.599H582.979C581.25 91.599 580.007 91.2157 579.251 90.4492C578.494 89.6827 578.115 88.4441 578.115 86.7335V57.2599C578.115 56.1194 578.283 55.1893 578.624 54.4649C578.961 53.7404 579.493 53.2169 580.213 52.8851C580.937 52.5579 581.858 52.3896 582.979 52.3896H603.938C605.204 52.3896 606.143 52.6701 606.76 53.231C607.372 53.7918 607.68 54.5303 607.68 55.437C607.68 56.3438 607.372 57.1103 606.76 57.6712C606.143 58.232 605.204 58.5125 603.938 58.5125Z" fill="#2F3160"/>
<path d="M398.581 140.899L392.297 115.917V142.984C392.297 144.479 391.965 145.606 391.292 146.354C390.624 147.101 389.736 147.475 388.634 147.475C387.531 147.475 386.69 147.106 386.013 146.368C385.335 145.629 384.999 144.498 384.999 142.984V111.958C384.999 110.248 385.443 109.093 386.335 108.495C387.228 107.897 388.428 107.598 389.947 107.598H392.404C393.885 107.598 394.96 107.733 395.623 108C396.291 108.266 396.787 108.747 397.109 109.444C397.431 110.14 397.796 111.271 398.207 112.842L403.902 134.318L409.597 112.842C410.009 111.271 410.373 110.14 410.695 109.444C411.018 108.747 411.508 108.266 412.181 108C412.849 107.733 413.924 107.598 415.4 107.598H417.858C419.371 107.598 420.577 107.897 421.469 108.495C422.362 109.093 422.805 110.248 422.805 111.958V142.984C422.805 144.479 422.469 145.606 421.806 146.354C421.137 147.101 420.24 147.475 419.119 147.475C418.068 147.475 417.204 147.101 416.526 146.354C415.849 145.606 415.512 144.479 415.512 142.984V115.917L409.228 140.899C408.817 142.521 408.486 143.713 408.229 144.47C407.972 145.227 407.495 145.919 406.799 146.541C406.103 147.162 405.14 147.475 403.912 147.475C402.986 147.475 402.202 147.274 401.557 146.872C400.917 146.47 400.417 145.961 400.062 145.335C399.707 144.713 399.426 144.021 399.221 143.264C399.015 142.507 398.805 141.717 398.595 140.899H398.581Z" fill="#2F3160"/>
<path d="M448.204 106.934C452.268 106.934 455.758 107.757 458.669 109.407C461.584 111.056 463.79 113.403 465.285 116.441C466.78 119.484 467.532 123.05 467.532 127.153C467.532 130.187 467.121 132.94 466.303 135.417C465.481 137.894 464.252 140.044 462.612 141.862C460.972 143.68 458.959 145.073 456.571 146.036C454.184 146.999 451.446 147.48 448.363 147.48C445.279 147.48 442.55 146.985 440.13 145.994C437.706 145.003 435.682 143.61 434.061 141.806C432.44 140.007 431.216 137.838 430.384 135.305C429.557 132.771 429.142 130.037 429.142 127.093C429.142 124.148 429.571 121.316 430.436 118.801C431.3 116.287 432.552 114.146 434.192 112.384C435.832 110.617 437.827 109.266 440.182 108.332C442.536 107.397 445.209 106.929 448.204 106.929V106.934ZM459.487 127.102C459.487 124.232 459.024 121.746 458.094 119.638C457.169 117.535 455.842 115.941 454.123 114.866C452.404 113.786 450.428 113.249 448.204 113.249C446.615 113.249 445.153 113.548 443.807 114.146C442.462 114.744 441.303 115.614 440.331 116.754C439.359 117.894 438.593 119.353 438.033 121.129C437.472 122.905 437.192 124.896 437.192 127.107C437.192 129.317 437.472 131.351 438.033 133.15C438.593 134.949 439.387 136.445 440.415 137.628C441.438 138.815 442.616 139.698 443.943 140.287C445.27 140.876 446.727 141.17 448.316 141.17C450.348 141.17 452.217 140.661 453.918 139.647C455.618 138.632 456.973 137.062 457.982 134.94C458.991 132.818 459.491 130.205 459.491 127.102H459.487Z" fill="#2F3160"/>
<path d="M478.708 112.146L487.585 138.436L496.49 111.959C496.952 110.566 497.303 109.598 497.532 109.056C497.761 108.514 498.149 108.023 498.681 107.584C499.214 107.149 499.947 106.929 500.872 106.929C501.55 106.929 502.176 107.098 502.755 107.439C503.335 107.78 503.788 108.229 504.119 108.79C504.446 109.351 504.615 109.916 504.615 110.486C504.615 110.879 504.563 111.304 504.456 111.758C504.348 112.211 504.218 112.66 504.054 113.094C503.895 113.534 503.732 113.982 503.573 114.445L494.084 140.067C493.743 141.049 493.406 141.979 493.07 142.862C492.729 143.746 492.336 144.522 491.893 145.19C491.449 145.858 490.855 146.405 490.117 146.835C489.379 147.265 488.473 147.476 487.403 147.476C486.333 147.476 485.426 147.265 484.688 146.849C483.95 146.429 483.352 145.877 482.899 145.19C482.446 144.503 482.049 143.722 481.708 142.848C481.366 141.974 481.03 141.049 480.694 140.067L471.364 114.66C471.205 114.197 471.036 113.744 470.868 113.295C470.7 112.851 470.555 112.37 470.438 111.851C470.322 111.332 470.266 110.898 470.266 110.542C470.266 109.631 470.63 108.804 471.364 108.056C472.092 107.308 473.013 106.934 474.115 106.934C475.47 106.934 476.428 107.35 476.989 108.177C477.549 109.005 478.124 110.332 478.713 112.15L478.708 112.146Z" fill="#2F3160"/>
<path d="M536.402 113.725H518.517V123.353H534.986C536.196 123.353 537.102 123.624 537.7 124.171C538.299 124.713 538.598 125.433 538.598 126.326C538.598 127.219 538.303 127.943 537.715 128.504C537.126 129.065 536.219 129.345 534.986 129.345H518.517V140.497H537.018C538.266 140.497 539.205 140.787 539.84 141.367C540.476 141.946 540.789 142.717 540.789 143.68C540.789 144.643 540.471 145.363 539.84 145.942C539.21 146.522 538.266 146.812 537.018 146.812H515.443C513.714 146.812 512.471 146.428 511.714 145.662C510.958 144.895 510.579 143.657 510.579 141.946V112.472C510.579 111.332 510.747 110.402 511.088 109.678C511.425 108.953 511.957 108.43 512.677 108.098C513.401 107.771 514.321 107.602 515.443 107.602H536.402C537.668 107.602 538.607 107.883 539.224 108.444C539.836 109.004 540.144 109.743 540.144 110.65C540.144 111.556 539.836 112.323 539.224 112.884C538.607 113.445 537.668 113.725 536.402 113.725Z" fill="#2F3160"/>
<path d="M552.016 107.603H562.365C565.056 107.603 567.364 107.85 569.289 108.35C571.214 108.85 572.961 109.785 574.531 111.159C578.61 114.655 580.651 119.97 580.651 127.102C580.651 129.458 580.446 131.603 580.035 133.547C579.623 135.492 578.993 137.244 578.138 138.801C577.283 140.362 576.185 141.755 574.849 142.989C573.797 143.933 572.648 144.69 571.401 145.26C570.153 145.83 568.812 146.232 567.378 146.466C565.944 146.7 564.327 146.812 562.528 146.812H552.18C550.736 146.812 549.647 146.592 548.919 146.158C548.185 145.723 547.713 145.106 547.489 144.311C547.265 143.517 547.157 142.489 547.157 141.222V112.468C547.157 110.757 547.54 109.519 548.307 108.752C549.073 107.986 550.311 107.603 552.021 107.603H552.016ZM555.09 113.889V140.502H561.108C562.426 140.502 563.463 140.465 564.21 140.395C564.958 140.325 565.733 140.147 566.537 139.862C567.341 139.577 568.032 139.175 568.621 138.656C571.274 136.408 572.606 132.538 572.606 127.046C572.606 123.176 572.022 120.278 570.854 118.353C569.686 116.427 568.247 115.202 566.537 114.674C564.827 114.146 562.757 113.884 560.333 113.884H555.09V113.889Z" fill="#2F3160"/>
<path d="M383.489 34.5356H377.71V38.0785H383.489V34.5356Z" fill="#2F3160"/>
<path d="M373.126 34.5356H367.347V38.0785H373.126V34.5356Z" fill="#2F3160"/>
<path d="M362.796 34.5356H357.017V38.0785H362.796V34.5356Z" fill="#2F3160"/>
<path d="M414.613 34.5356H408.834V38.0785H414.613V34.5356Z" fill="#2F3160"/>
<path d="M404.251 34.5356H398.472V38.0785H404.251V34.5356Z" fill="#2F3160"/>
<path d="M393.921 34.5356H388.142V38.0785H393.921V34.5356Z" fill="#2F3160"/>
<path d="M445.739 34.5356H439.96V38.0785H445.739V34.5356Z" fill="#2F3160"/>
<path d="M435.377 34.5356H429.598V38.0785H435.377V34.5356Z" fill="#2F3160"/>
<path d="M425.047 34.5356H419.268V38.0785H425.047V34.5356Z" fill="#2F3160"/>
<path d="M476.865 34.5356H471.086V38.0785H476.865V34.5356Z" fill="#2F3160"/>
<path d="M466.503 34.5356H460.724V38.0785H466.503V34.5356Z" fill="#2F3160"/>
<path d="M456.173 34.5356H450.394V38.0785H456.173V34.5356Z" fill="#2F3160"/>
<path d="M507.991 34.5356H502.212V38.0785H507.991V34.5356Z" fill="#2F3160"/>
<path d="M497.629 34.5356H491.85V38.0785H497.629V34.5356Z" fill="#2F3160"/>
<path d="M487.299 34.5356H481.52V38.0785H487.299V34.5356Z" fill="#2F3160"/>
<path d="M539.113 34.5356H533.334V38.0785H539.113V34.5356Z" fill="#2F3160"/>
<path d="M528.755 34.5356H522.976V38.0785H528.755V34.5356Z" fill="#2F3160"/>
<path d="M518.425 34.5356H512.646V38.0785H518.425V34.5356Z" fill="#2F3160"/>
<path d="M570.237 34.5356H564.458V38.0785H570.237V34.5356Z" fill="#2F3160"/>
<path d="M559.879 34.5356H554.1V38.0785H559.879V34.5356Z" fill="#2F3160"/>
<path d="M549.549 34.5356H543.77V38.0785H549.549V34.5356Z" fill="#2F3160"/>
<path d="M601.363 34.5356H595.584V38.0785H601.363V34.5356Z" fill="#2F3160"/>
<path d="M591.005 34.5356H585.226V38.0785H591.005V34.5356Z" fill="#2F3160"/>
<path d="M580.675 34.5356H574.896V38.0785H580.675V34.5356Z" fill="#2F3160"/>
<path fill-rule="evenodd" clip-rule="evenodd" d="M624.707 44.5378L621.895 46.6925C622.969 48.0713 623.843 49.595 624.553 51.1841L627.795 49.7539C626.973 47.903 625.95 46.1363 624.707 44.5378Z" fill="#2F3160"/>
<path fill-rule="evenodd" clip-rule="evenodd" d="M616.467 37.5315L614.794 40.6583C616.336 41.4763 617.765 42.4952 619.074 43.6496L621.433 41.0042C619.919 39.6628 618.256 38.4803 616.467 37.5315Z" fill="#2F3160"/>
<path fill-rule="evenodd" clip-rule="evenodd" d="M606.094 34.5916L605.87 38.1297C607.613 38.2419 609.337 38.5597 611 39.0691L612.056 35.6852C610.117 35.0917 608.113 34.7224 606.094 34.5916Z" fill="#2F3160"/>
<path d="M629.956 75.334H626.415V81.1156H629.956V75.334Z" fill="#2F3160"/>
<path d="M629.956 64.9673H626.415V70.7489H629.956V64.9673Z" fill="#2F3160"/>
<path fill-rule="evenodd" clip-rule="evenodd" d="M629.33 54.4043L625.873 55.1848C626.074 56.0355 626.195 56.9002 626.298 57.7648C626.326 58.1995 626.373 58.6342 626.392 59.0688L626.406 59.7232L626.415 60.055V60.4149H629.956C629.961 59.9429 629.938 59.4147 629.928 58.9146C629.91 58.4098 629.858 57.905 629.821 57.4003C629.704 56.3954 629.559 55.3905 629.326 54.4043H629.33Z" fill="#2F3160"/>
<path d="M629.955 106.467H626.414V112.248H629.955V106.467Z" fill="#2F3160"/>
<path d="M629.955 96.105H626.414V101.887H629.955V96.105Z" fill="#2F3160"/>
<path d="M629.955 85.7708H626.414V91.5524H629.955V85.7708Z" fill="#2F3160"/>
<path d="M629.955 137.604H626.414V143.386H629.955V137.604Z" fill="#2F3160"/>
<path d="M629.955 127.243H626.414V133.024H629.955V127.243Z" fill="#2F3160"/>
<path d="M629.955 116.908H626.414V122.69H629.955V116.908Z" fill="#2F3160"/>
<path d="M587.943 161.119H582.164V164.661H587.943V161.119Z" fill="#2F3160"/>
<path d="M598.306 161.119H592.526V164.661H598.306V161.119Z" fill="#2F3160"/>
<path d="M608.632 161.119H602.853V164.661H608.632V161.119Z" fill="#2F3160"/>
<path d="M556.818 161.118H551.039V164.661H556.818V161.118Z" fill="#2F3160"/>
<path d="M567.181 161.118H561.401V164.661H567.181V161.118Z" fill="#2F3160"/>
<path d="M577.507 161.118H571.728V164.661H577.507V161.118Z" fill="#2F3160"/>
<path d="M525.693 161.118H519.914V164.661H525.693V161.118Z" fill="#2F3160"/>
<path d="M536.056 161.118H530.276V164.661H536.056V161.118Z" fill="#2F3160"/>
<path d="M546.382 161.118H540.603V164.661H546.382V161.118Z" fill="#2F3160"/>
<path d="M494.567 161.119H488.788V164.661H494.567V161.119Z" fill="#2F3160"/>
<path d="M504.931 161.119H499.151V164.661H504.931V161.119Z" fill="#2F3160"/>
<path d="M515.256 161.119H509.477V164.661H515.256V161.119Z" fill="#2F3160"/>
<path d="M463.442 161.119H457.663V164.661H463.442V161.119Z" fill="#2F3160"/>
<path d="M473.805 161.119H468.025V164.661H473.805V161.119Z" fill="#2F3160"/>
<path d="M484.131 161.119H478.352V164.661H484.131V161.119Z" fill="#2F3160"/>
<path d="M432.317 161.118H426.538V164.661H432.317V161.118Z" fill="#2F3160"/>
<path d="M442.68 161.118H436.9V164.661H442.68V161.118Z" fill="#2F3160"/>
<path d="M453.006 161.118H447.227V164.661H453.006V161.118Z" fill="#2F3160"/>
<path d="M401.191 161.119H395.412V164.661H401.191V161.119Z" fill="#2F3160"/>
<path d="M411.555 161.119H405.775V164.661H411.555V161.119Z" fill="#2F3160"/>
<path d="M421.88 161.119H416.101V164.661H421.88V161.119Z" fill="#2F3160"/>
<path d="M370.066 161.119H364.287V164.661H370.066V161.119Z" fill="#2F3160"/>
<path d="M380.429 161.119H374.649V164.661H380.429V161.119Z" fill="#2F3160"/>
<path d="M390.755 161.119H384.976V164.661H390.755V161.119Z" fill="#2F3160"/>
<path fill-rule="evenodd" clip-rule="evenodd" d="M340.941 154.659L343.753 152.505C342.679 151.126 341.805 149.602 341.095 148.013L337.853 149.443C338.675 151.294 339.698 153.061 340.941 154.659Z" fill="#2F3160"/>
<path fill-rule="evenodd" clip-rule="evenodd" d="M349.182 161.666L350.855 158.539C349.313 157.721 347.883 156.702 346.575 155.547L344.216 158.193C345.73 159.534 347.393 160.717 349.182 161.666Z" fill="#2F3160"/>
<path fill-rule="evenodd" clip-rule="evenodd" d="M359.55 164.605L359.775 161.067C358.032 160.955 356.308 160.637 354.645 160.128L353.589 163.512C355.528 164.105 357.532 164.474 359.55 164.605Z" fill="#2F3160"/>
<path d="M339.231 118.086H335.689V123.868H339.231V118.086Z" fill="#2F3160"/>
<path d="M339.231 128.453H335.689V134.235H339.231V128.453Z" fill="#2F3160"/>
<path fill-rule="evenodd" clip-rule="evenodd" d="M336.321 144.793L339.778 144.012C339.577 143.162 339.456 142.297 339.353 141.432C339.325 140.998 339.278 140.563 339.26 140.128L339.246 139.474L339.236 139.142V138.782H335.695C335.69 139.254 335.714 139.782 335.723 140.283C335.742 140.787 335.793 141.292 335.83 141.797C335.947 142.802 336.092 143.807 336.326 144.793H336.321Z" fill="#2F3160"/>
<path d="M339.231 86.9485H335.689V92.7301H339.231V86.9485Z" fill="#2F3160"/>
<path d="M339.231 97.3152H335.689V103.097H339.231V97.3152Z" fill="#2F3160"/>
<path d="M339.231 107.649H335.689V113.431H339.231V107.649Z" fill="#2F3160"/>
<path d="M339.231 55.8108H335.689V61.5924H339.231V55.8108Z" fill="#2F3160"/>
<path d="M339.231 66.1777H335.689V71.9594H339.231V66.1777Z" fill="#2F3160"/>
<path d="M339.231 76.5115H335.689V82.2931H339.231V76.5115Z" fill="#2F3160"/>
<path d="M630.208 148.121H626.652V154.033H630.208V148.121Z" fill="#2F3160"/>
<path d="M351.976 34.5308H346.07V38.0736H351.976V34.5308Z" fill="#2F3160"/>
<path d="M346.228 0C339.973 0 334.903 4.17379 334.903 12.2316C334.903 20.2894 346.228 32.2265 346.228 32.2265C346.228 32.2265 357.554 20.2941 357.554 12.2316C357.554 4.16912 352.484 0 346.228 0ZM346.228 20.1772C341.435 20.1772 337.552 16.2885 337.552 11.4978C337.552 6.70704 341.44 2.81836 346.228 2.81836C351.017 2.81836 354.904 6.70704 354.904 11.4978C354.904 16.2885 351.017 20.1772 346.228 20.1772Z" fill="#FEBE16"/>
<path d="M608.794 135.389C604.178 135.389 600.436 138.469 600.436 144.419C600.436 150.369 608.794 159.174 608.794 159.174C608.794 159.174 617.152 150.369 617.152 144.419C617.152 138.469 613.41 135.389 608.794 135.389ZM608.794 150.285C605.257 150.285 602.388 147.415 602.388 143.877C602.388 140.339 605.257 137.469 608.794 137.469C612.331 137.469 615.199 140.339 615.199 143.877C615.199 147.415 612.331 150.285 608.794 150.285Z" fill="#FEBE16"/>
</g>
<defs>
<linearGradient id="paint0_linear_9387_6454" x1="178.425" y1="228.884" x2="178.336" y2="280.087" gradientUnits="userSpaceOnUse">
<stop stop-color="#71756F"/>
<stop offset="0.03" stop-color="#828580"/>
<stop offset="0.1" stop-color="#A3A6A2"/>
<stop offset="0.18" stop-color="#C0C1BF"/>
<stop offset="0.27" stop-color="#D7D8D6"/>
<stop offset="0.37" stop-color="#E9E9E8"/>
<stop offset="0.49" stop-color="#F5F5F5"/>
<stop offset="0.65" stop-color="#FCFCFC"/>
<stop offset="1" stop-color="white"/>
</linearGradient>
<clipPath id="clip0_9387_6454">
<rect width="629.417" height="280" fill="white" transform="translate(0.791016)"/>
</clipPath>
</defs>
</svg>
