<svg width="32" height="32" viewBox="0 0 32 32" fill="none" xmlns="http://www.w3.org/2000/svg">
<path opacity="0.5" d="M25.8562 28.7512C25.8562 29.3689 25.3558 29.8691 24.7383 29.8691H7.26173C6.64425 29.8691 6.1438 29.3689 6.1438 28.7512V3.24879C6.1438 2.63108 6.64425 2.13086 7.26173 2.13086H24.7383C25.3558 2.13086 25.8562 2.63108 25.8562 3.24879V28.7512Z" stroke="#49494A" stroke-miterlimit="10"/>
<path opacity="0.5" d="M6.61231 21.5296L25.3878 21.5297" stroke="#49494A" stroke-miterlimit="10"/>
<path d="M22.0554 25.6475C22.0554 26.3335 21.4994 26.8894 20.8136 26.8894C20.1277 26.8894 19.5717 26.3335 19.5717 25.6475C19.5717 24.9616 20.1277 24.4057 20.8136 24.4057C21.4994 24.4057 22.0554 24.9616 22.0554 25.6475Z" stroke="#49494A" stroke-miterlimit="10"/>
<path d="M17.2417 25.6475C17.2417 26.3335 16.6857 26.8894 15.9999 26.8894C15.314 26.8894 14.758 26.3335 14.758 25.6475C14.758 24.9616 15.314 24.4057 15.9999 24.4057C16.6857 24.4057 17.2417 24.9616 17.2417 25.6475Z" stroke="#49494A" stroke-miterlimit="10"/>
<path d="M12.4282 25.6473C12.4282 26.3332 11.8722 26.8892 11.1864 26.8892C10.5005 26.8892 9.94452 26.3332 9.94452 25.6473C9.94452 24.9614 10.5005 24.4054 11.1864 24.4054C11.8722 24.4054 12.4282 24.9614 12.4282 25.6473Z" stroke="#49494A" stroke-miterlimit="10"/>
</svg>
