<svg width="32" height="32" viewBox="0 0 32 32" fill="none" xmlns="http://www.w3.org/2000/svg">
<path d="M28.8562 28.7512C28.8562 29.3689 28.3558 29.8691 27.7383 29.8691H4.26173C3.64425 29.8691 3.1438 29.3689 3.1438 28.7512V3.24879C3.1438 2.63108 3.64425 2.13086 4.26173 2.13086H27.7383C28.3558 2.13086 28.8562 2.63108 28.8562 3.24879V28.7512Z" stroke="#49494A" stroke-miterlimit="10"/>
<path d="M11.7706 15.6021L19.6091 15.6021" stroke="#49494A" stroke-miterlimit="10"/>
<path opacity="0.5" d="M5.77771 11.3689L26.021 11.3689" stroke="#49494A" stroke-miterlimit="10"/>
<path d="M9.16059 15.6021C9.16059 16.2881 8.60459 16.844 7.91874 16.844C7.23288 16.844 6.67688 16.2881 6.67688 15.6021C6.67688 14.9162 7.23288 14.3603 7.91874 14.3603C8.60459 14.3603 9.16059 14.9162 9.16059 15.6021Z" stroke="#49494A" stroke-miterlimit="10"/>
<path d="M9.16059 20.6248C9.16059 21.3108 8.60459 21.8667 7.91874 21.8667C7.23288 21.8667 6.67688 21.3108 6.67688 20.6248C6.67688 19.9389 7.23288 19.383 7.91874 19.383C8.60459 19.383 9.16059 19.9389 9.16059 20.6248Z" stroke="#49494A" stroke-miterlimit="10"/>
<path d="M9.16059 25.6475C9.16059 26.3335 8.60459 26.8894 7.91874 26.8894C7.23288 26.8894 6.67688 26.3335 6.67688 25.6475C6.67688 24.9616 7.23288 24.4057 7.91874 24.4057C8.60459 24.4057 9.16059 24.9616 9.16059 25.6475Z" stroke="#49494A" stroke-miterlimit="10"/>
<path d="M11.7706 20.6248H22.1333" stroke="#49494A" stroke-miterlimit="10"/>
<path d="M11.7706 25.6475H16.9519" stroke="#49494A" stroke-miterlimit="10"/>
<path d="M5.77765 6.88403L10.0598 6.88395" stroke="#49494A" stroke-miterlimit="10"/>
<path d="M5.77765 5.14917L10.0598 5.14909" stroke="#49494A" stroke-miterlimit="10"/>
<path d="M5.77765 8.59912L10.0598 8.59904" stroke="#49494A" stroke-miterlimit="10"/>
</svg>
