<svg width="32" height="32" viewBox="0 0 32 32" fill="none" xmlns="http://www.w3.org/2000/svg">
<path d="M16.0015 21V28" stroke="#49494A" stroke-linecap="round" stroke-linejoin="round"/>
<path d="M5.60771 10C4.28694 12.2876 3.7579 14.9472 4.10266 17.5661C4.44741 20.1851 5.64668 22.6171 7.51448 24.485C9.38228 26.3529 11.8142 27.5524 14.4332 27.8973C17.0521 28.2422 19.7117 27.7133 21.9994 26.3927C24.2871 25.072 26.0752 23.0334 27.0862 20.593C28.0973 18.1526 28.2749 15.4468 27.5914 12.8952C26.908 10.3436 25.4017 8.08882 23.3062 6.48053C21.2106 4.87224 18.643 4.00032 16.0015 4V11C17.1021 11.0002 18.1719 11.3636 19.0449 12.0338C19.918 12.704 20.5455 13.6436 20.8302 14.7067C21.1149 15.7699 21.0408 16.8973 20.6195 17.9141C20.1981 18.9309 19.4531 19.7802 18.4999 20.3304C17.5466 20.8806 16.4385 21.1009 15.3473 20.9572C14.2561 20.8134 13.2428 20.3136 12.4646 19.5353C11.6864 18.757 11.1867 17.7437 11.0431 16.6525C10.8995 15.5613 11.1199 14.4532 11.6702 13.5L5.60771 10Z" stroke="#49494A" stroke-linecap="round" stroke-linejoin="round"/>
<path d="M11.1702 17.2949L4.40771 19.1062" stroke="#49494A" stroke-linecap="round" stroke-linejoin="round"/>
</svg>
