<svg width="32" height="32" viewBox="0 0 32 32" fill="none" xmlns="http://www.w3.org/2000/svg">
<path d="M4.2013 18.1875C3.68062 15.3771 4.1802 12.473 5.61013 9.99816C7.04006 7.52328 9.30643 5.64007 12.0013 4.6875V13.6875L4.2013 18.1875Z" stroke="#49494A" stroke-linecap="round" stroke-linejoin="round"/>
<path d="M16.0013 16.0525V4C18.1037 4.00031 20.1692 4.553 21.9908 5.6027C23.8125 6.6524 25.3264 8.16228 26.3809 9.98113C27.4354 11.8 27.9936 13.864 27.9995 15.9664C28.0054 18.0688 27.4588 20.1359 26.4144 21.9606C25.3701 23.7854 23.8647 25.3037 22.049 26.3636C20.2332 27.4235 18.1709 27.9877 16.0685 27.9998C13.9661 28.0119 11.8974 27.4714 10.0696 26.4325C8.24181 25.3935 6.71904 23.8926 5.65381 22.08L16.0013 16.0525Z" stroke="#49494A" stroke-linecap="round" stroke-linejoin="round"/>
</svg>
