<svg width="32" height="32" viewBox="0 0 32 32" fill="none" xmlns="http://www.w3.org/2000/svg">
<path d="M28.3988 25.9729C28.3988 26.5686 27.9164 27.051 27.3207 27.051H4.67924C4.08371 27.051 3.60107 26.5686 3.60107 25.9729V6.02683C3.60107 5.43109 4.08371 4.94866 4.67924 4.94866H27.3207C27.9164 4.94866 28.3988 5.43109 28.3988 6.02683V25.9729Z" stroke="#49494A" stroke-miterlimit="10"/>
<path d="M21.074 22.9352H10.9258C10.7763 22.9352 10.6329 22.8758 10.5272 22.77C10.4215 22.6643 10.3621 22.5209 10.3621 22.3714V9.96808C10.3621 9.81856 10.4215 9.67516 10.5272 9.56943C10.6329 9.4637 10.7763 9.4043 10.9258 9.4043H17.6913L21.6378 13.3508V22.3714C21.6378 22.5209 21.5784 22.6643 21.4726 22.77C21.3669 22.8758 21.2235 22.9352 21.074 22.9352Z" stroke="black" stroke-linecap="round" stroke-linejoin="round"/>
<path d="M17.6914 9.4043V13.3508H21.6379" stroke="black" stroke-linecap="round" stroke-linejoin="round"/>
</svg>
