<svg width="32" height="32" viewBox="0 0 32 32" fill="none" xmlns="http://www.w3.org/2000/svg">
<path d="M25.0648 7.75928H6.93539C6.48028 7.75928 6.11133 8.12822 6.11133 8.58334V23.4165C6.11133 23.8717 6.48028 24.2406 6.93539 24.2406H25.0648C25.52 24.2406 25.8889 23.8717 25.8889 23.4165V8.58334C25.8889 8.12822 25.52 7.75928 25.0648 7.75928Z" stroke="#49494A" stroke-linecap="round" stroke-linejoin="round"/>
<path d="M20.0579 13.1157C20.0579 13.7639 19.5325 14.2893 18.8843 14.2893C18.2361 14.2893 17.7107 13.7639 17.7107 13.1157C17.7107 12.4676 18.2361 11.9421 18.8843 11.9421C19.5325 11.9421 20.0579 12.4676 20.0579 13.1157Z" fill="#49494A" stroke="#49494A" stroke-width="0.125"/>
<path d="M17.9893 19.7083L20.6355 17.0651C20.7901 16.9107 20.9996 16.824 21.2181 16.824C21.4365 16.824 21.646 16.9107 21.8006 17.0651L25.889 21.1566" stroke="#49494A" stroke-linecap="round" stroke-linejoin="round"/>
<path d="M6.11133 20.1915L11.7088 14.593C11.7853 14.5164 11.8762 14.4556 11.9763 14.4141C12.0763 14.3727 12.1835 14.3513 12.2918 14.3513C12.4001 14.3513 12.5074 14.3727 12.6074 14.4141C12.7074 14.4556 12.7983 14.5164 12.8749 14.593L22.5216 24.2408" stroke="#49494A" stroke-linecap="round" stroke-linejoin="round"/>
</svg>
