<svg width="32" height="32" viewBox="0 0 32 32" fill="none" xmlns="http://www.w3.org/2000/svg">
<path d="M28.8862 19.8975H22.8499V12.1024H28.8862V19.8975Z" stroke="#49494A" stroke-miterlimit="10"/>
<path d="M9.15031 19.8975H3.11401V12.1024H9.15031V19.8975Z" stroke="#49494A" stroke-miterlimit="10"/>
<path d="M6.1321 17.2359C6.81477 17.2359 7.36819 16.6824 7.36819 15.9998C7.36819 15.3171 6.81477 14.7637 6.1321 14.7637C5.44942 14.7637 4.896 15.3171 4.896 15.9998C4.896 16.6824 5.44942 17.2359 6.1321 17.2359Z" fill="#49494A"/>
<path d="M16 17.2359C16.6827 17.2359 17.2361 16.6824 17.2361 15.9998C17.2361 15.3171 16.6827 14.7637 16 14.7637C15.3173 14.7637 14.7639 15.3171 14.7639 15.9998C14.7639 16.6824 15.3173 17.2359 16 17.2359Z" fill="#49494A"/>
<path d="M18.9838 19.8975H12.9475V12.1024H18.9838V19.8975Z" stroke="#49494A" stroke-miterlimit="10"/>
</svg>
