<svg width="32" height="32" viewBox="0 0 32 32" fill="none" xmlns="http://www.w3.org/2000/svg">
<path d="M28.8562 20.7512C28.8562 21.3689 28.3558 21.8691 27.7383 21.8691H4.26173C3.64425 21.8691 3.1438 21.3689 3.1438 20.7512V11.2488C3.1438 10.6311 3.64425 10.1309 4.26173 10.1309H27.7383C28.3558 10.1309 28.8562 10.6311 28.8562 11.2488V20.7512Z" stroke="#49494A" stroke-miterlimit="10"/>
<path d="M13.2058 11.6626L13.2058 20.3374" stroke="#49494A" stroke-miterlimit="10"/>
<path d="M7.85693 18.1824C7.85693 18.4585 8.08079 18.6824 8.35693 18.6824C8.63308 18.6824 8.85693 18.4585 8.85693 18.1824L7.85693 18.1824ZM7.85693 13.8176L7.85693 18.1824L8.85693 18.1824L8.85693 13.8176L7.85693 13.8176Z" fill="#49494A"/>
<path d="M10.2666 13.8176H6.44702" stroke="#49494A" stroke-miterlimit="10" stroke-linecap="round"/>
</svg>
