<svg width="32" height="32" viewBox="0 0 32 32" fill="none" xmlns="http://www.w3.org/2000/svg">
<path d="M14.0458 9.48608H10.1375C9.77772 9.48608 9.48608 9.77772 9.48608 10.1375V14.0458C9.48608 14.4055 9.77772 14.6972 10.1375 14.6972H14.0458C14.4055 14.6972 14.6972 14.4055 14.6972 14.0458V10.1375C14.6972 9.77772 14.4055 9.48608 14.0458 9.48608Z" stroke="#49494A" stroke-linecap="round" stroke-linejoin="round"/>
<path d="M14.0458 17.3027H10.1375C9.77772 17.3027 9.48608 17.5944 9.48608 17.9541V21.8624C9.48608 22.2222 9.77772 22.5138 10.1375 22.5138H14.0458C14.4055 22.5138 14.6972 22.2222 14.6972 21.8624V17.9541C14.6972 17.5944 14.4055 17.3027 14.0458 17.3027Z" stroke="#49494A" stroke-linecap="round" stroke-linejoin="round"/>
<path d="M21.8624 9.48608H17.9541C17.5944 9.48608 17.3027 9.77772 17.3027 10.1375V14.0458C17.3027 14.4055 17.5944 14.6972 17.9541 14.6972H21.8624C22.2222 14.6972 22.5138 14.4055 22.5138 14.0458V10.1375C22.5138 9.77772 22.2222 9.48608 21.8624 9.48608Z" stroke="#49494A" stroke-linecap="round" stroke-linejoin="round"/>
<path d="M17.3027 17.3027V19.9083" stroke="#49494A" stroke-linecap="round" stroke-linejoin="round"/>
<path d="M17.3027 22.5138H19.9083V17.3027" stroke="#49494A" stroke-linecap="round" stroke-linejoin="round"/>
<path d="M19.9082 18.6055H22.5137" stroke="#49494A" stroke-linecap="round" stroke-linejoin="round"/>
<path d="M22.5139 21.2112V22.514" stroke="#49494A" stroke-linecap="round" stroke-linejoin="round"/>
</svg>
