<svg width="32" height="32" viewBox="0 0 32 32" fill="none" xmlns="http://www.w3.org/2000/svg">
<path d="M14.3452 13.7774V18.2225C14.3452 18.4465 14.599 18.5772 14.7816 18.4465L17.8922 16.2245C18.0467 16.1142 18.0467 15.8858 17.8922 15.7755L14.7816 13.5535C14.599 13.4227 14.3452 13.5535 14.3452 13.7774Z" stroke="#49494A" stroke-miterlimit="10"/>
<path d="M6.62207 17.6548L5.5188 15.9999L6.62207 14.345" stroke="#49494A" stroke-miterlimit="10"/>
<path d="M8.82862 17.6548L7.72534 15.9999L8.82862 14.345" stroke="#49494A" stroke-miterlimit="10"/>
<path d="M9.93191 19.8616H3.31226V12.1386H9.93191" stroke="#49494A" stroke-miterlimit="10"/>
<path d="M25.3779 17.6548L26.4812 15.9999L25.3779 14.345" stroke="#49494A" stroke-miterlimit="10"/>
<path d="M23.1711 17.6548L24.2744 15.9999L23.1711 14.345" stroke="#49494A" stroke-miterlimit="10"/>
<path d="M22.0679 19.8616H28.6875V12.1386H22.0679" stroke="#49494A" stroke-miterlimit="10"/>
<path d="M20.9646 21.5164H11.0352V10.4836H20.9646V21.5164Z" stroke="#49494A" stroke-miterlimit="10"/>
</svg>
