<svg width="32" height="32" viewBox="0 0 32 32" fill="none" xmlns="http://www.w3.org/2000/svg">
<circle cx="15.9999" cy="15.9999" r="11.2851" stroke="black"/>
<circle cx="15.9998" cy="15.9998" r="7.79181" stroke="black"/>
<path fill-rule="evenodd" clip-rule="evenodd" d="M26.0307 15.9998C26.0307 15.8328 26.0265 15.6661 26.0182 15.4998C26.014 15.4146 26.0087 15.3295 26.0022 15.2446C25.9961 15.1629 25.9889 15.0813 25.9807 14.9998H25.1948V15.3056L25.0051 15.3199C25.0221 15.5455 25.0307 15.7723 25.0307 15.9998H26.0307ZM9.27054 9.97722C9.42224 9.80772 9.57989 9.64445 9.74309 9.48765L9.61127 9.35045L9.81516 9.12263L9.22951 8.59849C9.16912 8.65374 9.10936 8.70977 9.05025 8.76655C8.98883 8.82557 8.92812 8.88541 8.86813 8.94606C8.75108 9.06441 8.63679 9.18586 8.52539 9.31033L9.27054 9.97722ZM10.2151 7.80506L10.7918 8.62202C11.1627 8.36024 11.5527 8.12678 11.9587 7.92365L11.5112 7.02937C11.0603 7.25499 10.627 7.5143 10.2151 7.80506ZM12.909 6.45707L13.2171 7.40842C13.4324 7.33868 13.6508 7.2769 13.8719 7.22329C14.093 7.16969 14.3154 7.1246 14.5387 7.08798L14.3769 6.10116C14.1289 6.14183 13.8818 6.19192 13.6363 6.25145C13.3907 6.31099 13.1482 6.37962 12.909 6.45707ZM15.8816 5.96969L15.8934 6.96962C16.3473 6.96427 16.801 6.99315 17.2505 7.05601L17.389 6.06565C16.8897 5.99583 16.3858 5.96375 15.8816 5.96969ZM18.8649 6.38685L18.5793 7.34519C18.7962 7.40983 19.0111 7.48277 19.2236 7.56397C19.4361 7.64517 19.6448 7.73415 19.8496 7.83062L20.2758 6.92602C20.0484 6.81887 19.8165 6.72003 19.5805 6.62985C19.3445 6.53966 19.1058 6.45865 18.8649 6.38685ZM21.5898 7.67094L21.0325 8.50127C21.4094 8.75423 21.7668 9.03527 22.1014 9.34195L22.777 8.60471C22.4053 8.26407 22.0085 7.95192 21.5898 7.67094ZM23.8106 9.70615L23.0319 10.3336C23.1739 10.5098 23.3096 10.6917 23.4386 10.8791C23.5676 11.0665 23.6891 11.2582 23.803 11.4537L24.6671 10.9503C24.5405 10.7331 24.4055 10.5202 24.2623 10.3121C24.119 10.104 23.9683 9.90189 23.8106 9.70615ZM25.327 12.3089L24.3971 12.6769C24.5642 13.099 24.6991 13.5331 24.8009 13.9755L25.7754 13.7513C25.6624 13.2599 25.5125 12.7778 25.327 12.3089Z" fill="black"/>
</svg>
