<svg width="32" height="32" viewBox="0 0 32 32" fill="none" xmlns="http://www.w3.org/2000/svg">
<path d="M10.6444 20.8201H4.75324C4.16161 20.8201 3.68213 20.3407 3.68213 19.749V17.6067C3.68213 17.0149 4.16161 16.5356 4.75324 16.5356H10.6444" stroke="#49494A" stroke-miterlimit="10"/>
<path d="M21.3555 16.5356H27.2466C27.8384 16.5356 28.3177 17.0149 28.3177 17.6067V19.749C28.3177 20.3407 27.8384 20.8201 27.2466 20.8201H21.3555" stroke="#49494A" stroke-miterlimit="10"/>
<path d="M10.6443 14.9287L13.1499 12.094C13.5177 11.7566 13.2573 11.1798 12.7372 11.1798H8.55147C8.03139 11.1798 7.77095 11.7566 8.13872 12.094L10.6443 14.9287Z" stroke="#49494A" stroke-miterlimit="10"/>
<path d="M21.3554 20.8201H10.6443V16.5356H21.3554V20.8201Z" stroke="#49494A" stroke-miterlimit="10"/>
<path d="M21.3556 14.9287L23.8614 12.094C24.2288 11.7566 23.9685 11.1798 23.4485 11.1798H19.2626C18.7426 11.1798 18.4823 11.7566 18.8497 12.094L21.3556 14.9287Z" stroke="#49494A" stroke-miterlimit="10"/>
</svg>
