<svg width="32" height="32" viewBox="0 0 32 32" fill="none" xmlns="http://www.w3.org/2000/svg">
<path d="M9.83066 10.4924L11.4612 13.824C11.5111 13.926 11.6096 13.9956 11.7224 14.0086L15.2066 14.4042C15.4773 14.4349 15.5983 14.7604 15.4134 14.9606L12.8928 17.6909C12.8235 17.7659 12.7927 17.8686 12.8087 17.9694L13.3447 21.3092C13.3864 21.5698 13.122 21.7732 12.8806 21.6653L9.6673 20.2323C9.58105 20.1942 9.48261 20.1942 9.39637 20.2323L6.18304 21.6653C5.94166 21.7732 5.67728 21.5698 5.71903 21.3092L6.25494 17.9694C6.27117 17.8686 6.24018 17.7659 6.17082 17.6909L3.65024 14.9606C3.46535 14.7604 3.58636 14.4349 3.85706 14.4042L7.3413 14.0086C7.45409 13.9956 7.55254 13.926 7.6025 13.824L9.23321 10.4924C9.35465 10.2436 9.70901 10.2436 9.83066 10.4924Z" stroke="#49494A" stroke-miterlimit="10"/>
<path d="M14.573 13.2077L15.9018 10.4924C16.0234 10.2436 16.3779 10.2436 16.4995 10.4924L18.13 13.824C18.1799 13.926 18.2784 13.9956 18.3912 14.0086L21.8754 14.4042C22.1461 14.4349 22.2671 14.7604 22.0822 14.9606L19.5617 17.6909C19.4923 17.7659 19.4613 17.8686 19.4775 17.9694L20.0135 21.3092C20.0552 21.5698 19.7908 21.7732 19.5494 21.6653L16.3361 20.2323C16.2499 20.1942 16.1514 20.1942 16.0652 20.2323L14.8538 20.7727" stroke="#49494A" stroke-miterlimit="10"/>
<path d="M20.8406 13.2077L22.1694 10.4924C22.291 10.2436 22.6454 10.2436 22.767 10.4924L24.3975 13.824C24.4475 13.926 24.546 13.9956 24.6588 14.0086L28.143 14.4042C28.4137 14.4349 28.5347 14.7604 28.3498 14.9606L25.8293 17.6909C25.7599 17.7659 25.7289 17.8686 25.7451 17.9694L26.281 21.3092C26.3228 21.5698 26.0584 21.7732 25.817 21.6653L22.6037 20.2323C22.5174 20.1942 22.419 20.1942 22.3328 20.2323L21.1214 20.7727" stroke="#49494A" stroke-miterlimit="10"/>
</svg>
