<svg width="32" height="32" viewBox="0 0 32 32" fill="none" xmlns="http://www.w3.org/2000/svg">
<path d="M14.333 21.0014C14.333 21.3082 14.084 21.5571 13.7772 21.5571H10.4429C10.1362 21.5571 9.88721 21.3082 9.88721 21.0014V10.9985C9.88721 10.6917 10.1362 10.4428 10.4429 10.4428H13.7772C14.084 10.4428 14.333 10.6917 14.333 10.9985V21.0014Z" stroke="#49494A" stroke-miterlimit="10"/>
<path d="M9.88713 18.2229H4.32994C3.71587 18.2229 3.21851 17.7255 3.21851 17.1115V14.8886C3.21851 14.2745 3.71587 13.7772 4.32994 13.7772H9.88713" stroke="#49494A" stroke-miterlimit="10"/>
<path d="M14.333 13.7772H27.6702C28.2843 13.7772 28.7817 14.2745 28.7817 14.8886V17.1115C28.7817 17.7255 28.2843 18.2229 27.6702 18.2229H14.333" stroke="#49494A" stroke-miterlimit="10"/>
</svg>
