<svg width="32" height="32" viewBox="0 0 32 32" fill="none" xmlns="http://www.w3.org/2000/svg">
<path d="M12.9305 24.9524H5.25702C4.69174 24.9524 4.23389 24.4946 4.23389 23.9293V21.883C4.23389 21.3177 4.69174 20.8599 5.25702 20.8599H12.9305" stroke="#49494A" stroke-miterlimit="10"/>
<path d="M19.0693 20.8599H26.7428C27.3081 20.8599 27.766 21.3177 27.766 21.883V23.9293C27.766 24.4946 27.3081 24.9524 26.7428 24.9524H19.0693" stroke="#49494A" stroke-miterlimit="10"/>
<path d="M19.5809 22.9061C19.5809 24.8838 17.9776 26.4871 15.9999 26.4871C14.0222 26.4871 12.4189 24.8838 12.4189 22.9061C12.4189 20.9284 14.0222 19.3251 15.9999 19.3251C17.9776 19.3251 19.5809 20.9284 19.5809 22.9061Z" stroke="#49494A" stroke-miterlimit="10"/>
<path d="M9.86108 6.0246V14.2097C9.86108 14.492 10.0903 14.7212 10.3726 14.7212H13.9536L15.9999 17.2791L18.0461 14.7212H21.6271C21.9095 14.7212 22.1387 14.492 22.1387 14.2097V6.0246C22.1387 5.74222 21.9095 5.51303 21.6271 5.51303H10.3726C10.0903 5.51303 9.86108 5.74222 9.86108 6.0246Z" stroke="#49494A" stroke-miterlimit="10"/>
</svg>
