<svg width="32" height="32" viewBox="0 0 32 32" fill="none" xmlns="http://www.w3.org/2000/svg">
<path opacity="0.5" d="M28.3988 25.9729C28.3988 26.5686 27.9164 27.051 27.3207 27.051H4.67924C4.08371 27.051 3.60107 26.5686 3.60107 25.9729V6.02683C3.60107 5.43109 4.08371 4.94866 4.67924 4.94866H27.3207C27.9164 4.94866 28.3988 5.43109 28.3988 6.02683V25.9729Z" stroke="#49494A" stroke-miterlimit="10"/>
<path d="M20.7299 23.5276C20.7299 23.8029 20.507 24.0259 20.2317 24.0259H11.7683C11.493 24.0259 11.27 23.8029 11.27 23.5276V22.4717C11.27 22.1963 11.493 21.9734 11.7683 21.9734H20.2317C20.507 21.9734 20.7299 22.1963 20.7299 22.4717V23.5276Z" fill="#49494A" stroke="#49494A" stroke-miterlimit="10"/>
</svg>
