<svg width="32" height="32" viewBox="0 0 32 32" fill="none" xmlns="http://www.w3.org/2000/svg">
<path d="M15.8452 12.2774V16.7225C15.8452 16.9465 16.099 17.0772 16.2816 16.9465L19.3922 14.7245C19.5467 14.6142 19.5467 14.3858 19.3922 14.2755L16.2816 12.0535C16.099 11.9227 15.8452 12.0535 15.8452 12.2774Z" stroke="#49494A" stroke-miterlimit="10"/>
<path d="M24.9469 20.9189C24.9469 21.2882 24.6479 21.5872 24.2787 21.5872H10.246C9.87689 21.5872 9.57776 21.2882 9.57776 20.9189V8.55681C9.57776 8.18758 9.87689 7.88858 10.246 7.88858H24.2787C24.6479 7.88858 24.9469 8.18758 24.9469 8.55681V20.9189Z" stroke="#49494A" stroke-miterlimit="10"/>
<path d="M21.7539 24.1118H7.7212C7.35211 24.1118 7.05298 23.8128 7.05298 23.4436V11.0815" stroke="#49494A" stroke-miterlimit="10"/>
</svg>
