<svg width="32" height="32" viewBox="0 0 32 32" fill="none" xmlns="http://www.w3.org/2000/svg">
<path d="M25.1307 23.3444C25.1307 23.7832 24.7754 24.1384 24.3367 24.1384H7.66312C7.22457 24.1384 6.86914 23.7832 6.86914 23.3444V8.65582C6.86914 8.21711 7.22457 7.86184 7.66312 7.86184H24.3367C24.7754 7.86184 25.1307 8.21711 25.1307 8.65582V23.3444Z" stroke="#49494A" stroke-miterlimit="10"/>
<path d="M16 17.7317C17.7001 17.7317 19.0783 16.3535 19.0783 14.6535C19.0783 12.9534 17.7001 11.5752 16 11.5752C14.2999 11.5752 12.9218 12.9534 12.9218 14.6535C12.9218 16.3535 14.2999 17.7317 16 17.7317Z" stroke="#49494A" stroke-linecap="round" stroke-linejoin="round"/>
<path d="M11.3826 20.4249C12.3142 18.8151 14.0063 17.7314 16 17.7314C17.9936 17.7314 19.6857 18.8151 20.6174 20.4249" stroke="#49494A" stroke-linecap="round" stroke-linejoin="round"/>
</svg>
