<svg width="32" height="32" viewBox="0 0 32 32" fill="none" xmlns="http://www.w3.org/2000/svg">
<path d="M24.8235 16.0001C24.8235 18.373 22.8999 20.2966 20.5269 20.2966H11.4727C9.09978 20.2966 7.17615 18.373 7.17615 16.0001V16.0001C7.17615 13.6272 9.09978 11.7035 11.4727 11.7035H20.5269C22.8999 11.7035 24.8235 13.6272 24.8235 16.0001V16.0001Z" stroke="#49494A" stroke-miterlimit="10"/>
<path d="M19.4736 16.9895L20.3662 16.0232L19.4736 15.0569" stroke="#49494A" stroke-miterlimit="10"/>
<path d="M21.2587 15.0569L20.3661 16.0232L21.2587 16.9895" stroke="#49494A" stroke-miterlimit="10"/>
<path d="M22.647 16.0001C22.647 17.2597 21.6259 18.2808 20.3664 18.2808C19.1068 18.2808 18.0857 17.2597 18.0857 16.0001C18.0857 14.7405 19.1068 13.7194 20.3664 13.7194C21.6259 13.7194 22.647 14.7405 22.647 16.0001Z" stroke="#49494A" stroke-miterlimit="10"/>
<path d="M11.6366 17.4293C11.6366 17.7054 11.8605 17.9293 12.1366 17.9293C12.4127 17.9293 12.6366 17.7054 12.6366 17.4293L11.6366 17.4293ZM11.6366 14.5703L11.6366 17.4293L12.6366 17.4293L12.6366 14.5703L11.6366 14.5703Z" fill="#49494A"/>
<path d="M13.3877 14.5703H10.8858" stroke="#49494A" stroke-miterlimit="10" stroke-linecap="round"/>
</svg>
