<svg width="32" height="32" viewBox="0 0 32 32" fill="none" xmlns="http://www.w3.org/2000/svg">
<path d="M24.8235 10.0623C24.8235 12.4353 22.8999 14.3589 20.5269 14.3589H11.4727C9.09978 14.3589 7.17615 12.4353 7.17615 10.0623V10.0623C7.17615 7.68942 9.09978 5.76579 11.4727 5.76579H20.5269C22.8999 5.76579 24.8235 7.68942 24.8235 10.0623V10.0623Z" stroke="#49494A" stroke-miterlimit="10"/>
<path d="M19.4738 11.0518L20.3663 10.0855L19.4738 9.11919" stroke="#49494A" stroke-miterlimit="10"/>
<path d="M21.2588 9.11914L20.3662 10.0854L21.2588 11.0517" stroke="#49494A" stroke-miterlimit="10"/>
<path d="M22.6472 10.0623C22.6472 11.3219 21.6261 12.343 20.3665 12.343C19.1069 12.343 18.0858 11.3219 18.0858 10.0623C18.0858 8.80277 19.1069 7.78168 20.3665 7.78168C21.6261 7.78168 22.6472 8.80277 22.6472 10.0623Z" stroke="#49494A" stroke-miterlimit="10"/>
<path d="M11.6367 11.4915C11.6367 11.7677 11.8606 11.9915 12.1367 11.9915C12.4129 11.9915 12.6367 11.7677 12.6367 11.4915L11.6367 11.4915ZM11.6367 8.63257L11.6367 11.4915L12.6367 11.4915L12.6367 8.63257L11.6367 8.63257Z" fill="#49494A"/>
<path d="M13.3878 8.63257H10.8859" stroke="#49494A" stroke-miterlimit="10" stroke-linecap="round"/>
<path d="M24.8234 21.9373C24.8234 24.3103 22.8997 26.2339 20.5268 26.2339H11.4726C9.09966 26.2339 7.17603 24.3103 7.17603 21.9373V21.9373C7.17603 19.5644 9.09965 17.6408 11.4726 17.6408H20.5268C22.8997 17.6408 24.8234 19.5644 24.8234 21.9373V21.9373Z" stroke="#49494A" stroke-miterlimit="10"/>
<path d="M19.4738 22.9268L20.3663 21.9605L19.4738 20.9942" stroke="#49494A" stroke-miterlimit="10"/>
<path d="M21.2588 20.9941L20.3662 21.9604L21.2588 22.9267" stroke="#49494A" stroke-miterlimit="10"/>
<path d="M22.6472 21.9373C22.6472 23.1969 21.6261 24.218 20.3665 24.218C19.1069 24.218 18.0858 23.1969 18.0858 21.9373C18.0858 20.6778 19.1069 19.6567 20.3665 19.6567C21.6261 19.6567 22.6472 20.6778 22.6472 21.9373Z" stroke="#49494A" stroke-miterlimit="10"/>
<path d="M10.5146 23.4892C10.5146 23.7654 10.7385 23.9892 11.0146 23.9892C11.2908 23.9892 11.5146 23.7654 11.5146 23.4892L10.5146 23.4892ZM10.5146 20.3853L10.5146 23.4892L11.5146 23.4892L11.5146 20.3853L10.5146 20.3853Z" fill="#49494A"/>
<path d="M13.0653 20.3853H11.0136" stroke="#49494A" stroke-miterlimit="10" stroke-linecap="round"/>
<path d="M12.5665 21.9373H11.0139" stroke="#49494A" stroke-miterlimit="10" stroke-linecap="round"/>
<path d="M13.0653 23.4893H11.0136" stroke="#49494A" stroke-miterlimit="10" stroke-linecap="round"/>
</svg>
