<svg width="32" height="32" viewBox="0 0 32 32" fill="none" xmlns="http://www.w3.org/2000/svg">
<path d="M28.3988 25.9729C28.3988 26.5686 27.9164 27.051 27.3207 27.051H4.67924C4.08371 27.051 3.60107 26.5686 3.60107 25.9729V6.02683C3.60107 5.43109 4.08371 4.94866 4.67924 4.94866H27.3207C27.9164 4.94866 28.3988 5.43109 28.3988 6.02683V25.9729Z" stroke="#49494A" stroke-miterlimit="10"/>
<path d="M11.423 22.6108H20.5768" stroke="#49494A" stroke-linecap="round" stroke-linejoin="round"/>
<path d="M16 16.5083C17.1235 16.5083 18.0342 15.5976 18.0342 14.4741C18.0342 13.3507 17.1235 12.4399 16 12.4399C14.8766 12.4399 13.9658 13.3507 13.9658 14.4741C13.9658 15.5976 14.8766 16.5083 16 16.5083Z" stroke="#49494A" stroke-linecap="round" stroke-linejoin="round"/>
<path d="M21.0854 14.4742C21.0854 19.0511 15.9999 22.6109 15.9999 22.6109C15.9999 22.6109 10.9144 19.0511 10.9144 14.4742C10.9144 13.1254 11.4502 11.8319 12.4039 10.8782C13.3576 9.92446 14.6512 9.38867 15.9999 9.38867C17.3487 9.38867 18.6422 9.92446 19.5959 10.8782C20.5496 11.8319 21.0854 13.1254 21.0854 14.4742Z" stroke="#49494A" stroke-linecap="round" stroke-linejoin="round"/>
</svg>
