<svg width="32" height="32" viewBox="0 0 32 32" fill="none" xmlns="http://www.w3.org/2000/svg">
<path opacity="0.5" d="M27.0647 5.75928H8.93527C8.48015 5.75928 8.11121 6.12822 8.11121 6.58334V21.4165C8.11121 21.8717 8.48015 22.2406 8.93527 22.2406H27.0647C27.5198 22.2406 27.8888 21.8717 27.8888 21.4165V6.58334C27.8888 6.12822 27.5198 5.75928 27.0647 5.75928Z" stroke="#49494A" stroke-linecap="round" stroke-linejoin="round"/>
<path d="M23.0647 9.75928H4.93527C4.48015 9.75928 4.11121 10.1282 4.11121 10.5833V25.4165C4.11121 25.8717 4.48015 26.2406 4.93527 26.2406H23.0647C23.5198 26.2406 23.8888 25.8717 23.8888 25.4165V10.5833C23.8888 10.1282 23.5198 9.75928 23.0647 9.75928Z" stroke="#49494A" stroke-linecap="round" stroke-linejoin="round"/>
<path d="M18.0578 15.1157C18.0578 15.7639 17.5323 16.2893 16.8842 16.2893C16.236 16.2893 15.7106 15.7639 15.7106 15.1157C15.7106 14.4676 16.236 13.9421 16.8842 13.9421C17.5323 13.9421 18.0578 14.4676 18.0578 15.1157Z" fill="#49494A" stroke="#49494A" stroke-width="0.125"/>
<path d="M15.989 21.7083L18.6353 19.0651C18.7898 18.9107 18.9993 18.824 19.2178 18.824C19.4363 18.824 19.6458 18.9107 19.8003 19.0651L23.8887 23.1566" stroke="#49494A" stroke-linecap="round" stroke-linejoin="round"/>
<path d="M4.11121 22.1915L9.70868 16.593C9.78521 16.5164 9.87609 16.4556 9.97613 16.4141C10.0762 16.3727 10.1834 16.3513 10.2917 16.3513C10.4 16.3513 10.5072 16.3727 10.6073 16.4141C10.7073 16.4556 10.7982 16.5164 10.8747 16.593L20.5215 26.2408" stroke="#49494A" stroke-linecap="round" stroke-linejoin="round"/>
</svg>
