<svg width="32" height="32" viewBox="0 0 32 32" fill="none" xmlns="http://www.w3.org/2000/svg">
<path d="M27.8237 19.1815C27.8237 19.7977 27.3246 20.2966 26.7086 20.2966H3.29149C2.6754 20.2966 2.17639 19.7977 2.17639 19.1815V10.8183C2.17639 10.2021 2.6754 9.7032 3.29149 9.7032H26.7086C27.3246 9.7032 27.8237 10.2021 27.8237 10.8183V19.1815Z" stroke="#49494A" stroke-miterlimit="10"/>
<path opacity="0.5" fill-rule="evenodd" clip-rule="evenodd" d="M26.7086 20.2966C27.3246 20.2966 27.8237 19.7976 27.8237 19.1815V11.7031H28.7086C29.3246 11.7031 29.8237 12.2021 29.8237 12.8182V21.1815C29.8237 21.7976 29.3246 22.2966 28.7086 22.2966H5.29149C4.6754 22.2966 4.17639 21.7976 4.17639 21.1815V20.2966H26.7086Z" fill="#49494A"/>
</svg>
