<svg width="32" height="32" viewBox="0 0 32 32" fill="none" xmlns="http://www.w3.org/2000/svg">
<path d="M27.6575 11.0038C27.6575 11.6172 27.1606 12.114 26.5472 12.114H5.45276C4.83936 12.114 4.34253 11.6172 4.34253 11.0038V5.4526C4.34253 4.8392 4.83936 4.34237 5.45276 4.34237H26.5472C27.1606 4.34237 27.6575 4.8392 27.6575 5.4526V11.0038Z" stroke="#49494A" stroke-miterlimit="10"/>
<path d="M7.35754 9.64258C7.35754 9.91872 7.5814 10.1426 7.85754 10.1426C8.13369 10.1426 8.35754 9.91872 8.35754 9.64258L7.35754 9.64258ZM7.35754 6.81396L7.35754 9.64258L8.35754 9.64258L8.35754 6.81396L7.35754 6.81396Z" fill="#49494A"/>
<path d="M9.09521 6.81396H6.6199" stroke="#49494A" stroke-miterlimit="10" stroke-linecap="round"/>
<path d="M9.88208 9.64258C9.88208 9.91872 10.1059 10.1426 10.3821 10.1426C10.6582 10.1426 10.8821 9.91872 10.8821 9.64258L9.88208 9.64258ZM9.88208 6.81396L9.88208 9.64258L10.8821 9.64258L10.8821 6.81396L9.88208 6.81396Z" fill="#49494A"/>
<path d="M12.2509 6.81396H10.382" stroke="#49494A" stroke-miterlimit="10" stroke-linecap="round"/>
<path d="M11.7963 8.22827H10.3821" stroke="#49494A" stroke-miterlimit="10" stroke-linecap="round"/>
<path d="M12.2509 9.64258H10.382" stroke="#49494A" stroke-miterlimit="10" stroke-linecap="round"/>
<path d="M7.35754 17.6426C7.35754 17.9187 7.5814 18.1426 7.85754 18.1426C8.13369 18.1426 8.35754 17.9187 8.35754 17.6426L7.35754 17.6426ZM7.35754 14.814L7.35754 17.6426L8.35754 17.6426L8.35754 14.814L7.35754 14.814Z" fill="#49494A"/>
<path d="M9.09521 14.814H6.6199" stroke="#49494A" stroke-miterlimit="10" stroke-linecap="round"/>
<path d="M16.292 14.8345L13.4838 17.6426" stroke="#49494A" stroke-miterlimit="10" stroke-linecap="round"/>
<path d="M16.292 17.6426L13.4838 14.8344" stroke="#49494A" stroke-miterlimit="10" stroke-linecap="round"/>
<path d="M18.285 17.6426C18.285 17.9187 18.5089 18.1426 18.785 18.1426C19.0612 18.1426 19.285 17.9187 19.285 17.6426L18.285 17.6426ZM18.285 14.814L18.285 17.6426L19.285 17.6426L19.285 14.814L18.285 14.814Z" fill="#49494A"/>
<path d="M20.0227 14.814H17.5474" stroke="#49494A" stroke-miterlimit="10" stroke-linecap="round"/>
<path d="M9.88208 17.6426C9.88208 17.9187 10.1059 18.1426 10.3821 18.1426C10.6582 18.1426 10.8821 17.9187 10.8821 17.6426L9.88208 17.6426ZM9.88208 14.814L9.88208 17.6426L10.8821 17.6426L10.8821 14.814L9.88208 14.814Z" fill="#49494A"/>
<path d="M12.2509 14.814H10.382" stroke="#49494A" stroke-miterlimit="10" stroke-linecap="round"/>
<path d="M11.7963 16.2283H10.3821" stroke="#49494A" stroke-miterlimit="10" stroke-linecap="round"/>
<path d="M12.2509 17.6426H10.382" stroke="#49494A" stroke-miterlimit="10" stroke-linecap="round"/>
<path d="M27.6575 13.2244V27.6575H4.34253V13.2244" stroke="#49494A" stroke-miterlimit="10"/>
<path d="M20.4409 7.11815L22.6614 9.33862L24.8819 7.11815" stroke="#49494A" stroke-miterlimit="10"/>
</svg>
