<svg width="32" height="32" viewBox="0 0 32 32" fill="none" xmlns="http://www.w3.org/2000/svg">
<path d="M13.1226 25.1555C13.1226 25.1555 13.1226 24.0333 13.1226 23.586C13.1226 23.1387 11.6405 21.3285 11.2753 20.7567C11.0477 20.401 9.46045 15.3362 9.46045 15.3362C9.46045 14.8308 10.7422 14.1831 11.5793 15.3362L12.9468 17.4555L13.6458 16.7848V9.46048C13.6458 8.88238 14.114 8.41415 14.6921 8.41415C15.2702 8.41415 15.7385 8.88238 15.7385 9.46048V15.2153" stroke="#49494A" stroke-miterlimit="10"/>
<path d="M15.7384 13.6458H16.7847C17.1143 13.6458 17.6307 13.8551 17.8311 14.169H18.8774C19.3681 14.169 19.9237 14.6268 19.9237 15.2153H20.9701C21.4608 15.2153 22.0164 15.6731 22.0164 16.2617V21.4933C22.0164 22.5517 20.9701 23.4045 20.9701 24.1092C20.9701 24.8139 20.9701 25.1555 20.9701 25.1555" stroke="#49494A" stroke-miterlimit="10"/>
<path d="M17.8311 14.1688V15.7383" stroke="#49494A" stroke-miterlimit="10"/>
<path d="M19.9237 15.2151V16.2615" stroke="#49494A" stroke-miterlimit="10"/>
<path d="M22.0164 28.2944V25.1554H12.0762V28.2944" stroke="#49494A" stroke-miterlimit="10"/>
<path d="M13.6458 27.248H15.2153" stroke="#49494A" stroke-miterlimit="10"/>
<path d="M12.5993 11.553H7.89082C7.31272 11.553 6.84448 11.0847 6.84448 10.5066V4.7518C6.84448 4.1737 7.31272 3.70546 7.89082 3.70546H24.109C24.6871 3.70546 25.1554 4.1737 25.1554 4.7518V10.5066C25.1554 11.0847 24.6871 11.553 24.109 11.553H16.7847" stroke="#49494A" stroke-miterlimit="10"/>
</svg>
