<svg width="32" height="32" viewBox="0 0 32 32" fill="none" xmlns="http://www.w3.org/2000/svg">
<path d="M6.68261 24.3215C6.68261 24.3215 6.68261 23.3968 6.68261 23.0282C6.68261 22.6596 5.46126 21.1679 5.16034 20.6967C4.9728 20.4035 3.66479 16.2299 3.66479 16.2299C3.66479 15.8134 4.72103 15.2797 5.41082 16.2299L6.53775 17.9764L7.11373 17.4237V11.388C7.11373 10.9116 7.49958 10.5258 7.97596 10.5258C8.45235 10.5258 8.8382 10.9116 8.8382 11.388V16.1303" stroke="#49494A" stroke-miterlimit="10"/>
<path d="M8.83813 14.837H9.70037C9.97197 14.837 10.3975 15.0094 10.5626 15.2681H11.4248C11.8292 15.2681 12.2871 15.6453 12.2871 16.1303H13.1493C13.5537 16.1303 14.0115 16.5075 14.0115 16.9925V21.3037C14.0115 22.1759 13.1493 22.8786 13.1493 23.4593C13.1493 24.04 13.1493 24.3215 13.1493 24.3215" stroke="#49494A" stroke-miterlimit="10"/>
<path d="M10.5626 15.2679V16.5613" stroke="#49494A" stroke-miterlimit="10"/>
<path d="M12.2871 16.1302V16.9924" stroke="#49494A" stroke-miterlimit="10"/>
<path d="M14.0115 26.9082V24.3215H5.82031V26.9082" stroke="#49494A" stroke-miterlimit="10"/>
<path d="M7.11377 26.0459H8.40712" stroke="#49494A" stroke-miterlimit="10"/>
<mask id="path-7-inside-1_2409_2005" fill="white">
<path fill-rule="evenodd" clip-rule="evenodd" d="M4.66479 5.09155C4.11251 5.09155 3.66479 5.53927 3.66479 6.09155V11.5898C3.66479 12.1421 4.11251 12.5898 4.6648 12.5898H5.73166L5.73166 11.3715C5.73166 10.13 6.73809 9.12354 7.97958 9.12354C9.22108 9.12354 10.2275 10.13 10.2275 11.3715V12.5898H12.5974V5.09155H4.66479Z"/>
</mask>
<path fill-rule="evenodd" clip-rule="evenodd" d="M4.66479 5.09155C4.11251 5.09155 3.66479 5.53927 3.66479 6.09155V11.5898C3.66479 12.1421 4.11251 12.5898 4.6648 12.5898H5.73166L5.73166 11.3715C5.73166 10.13 6.73809 9.12354 7.97958 9.12354C9.22108 9.12354 10.2275 10.13 10.2275 11.3715V12.5898H12.5974V5.09155H4.66479Z" fill="#444444"/>
<path d="M5.73166 12.5898V13.5898H6.73166L6.73166 12.5898H5.73166ZM5.73166 11.3715H6.73166H5.73166ZM10.2275 12.5898H9.22751V13.5898H10.2275V12.5898ZM12.5974 12.5898V13.5898H13.5974V12.5898H12.5974ZM12.5974 5.09155H13.5974V4.09155H12.5974V5.09155ZM4.66479 6.09155V4.09155C3.56023 4.09155 2.66479 4.98698 2.66479 6.09155H4.66479ZM4.66479 11.5898V6.09155H2.66479V11.5898H4.66479ZM4.6648 11.5898H4.66479H2.66479C2.66479 12.6944 3.56023 13.5898 4.6648 13.5898V11.5898ZM5.73166 11.5898H4.6648V13.5898H5.73166V11.5898ZM6.73166 12.5898L6.73166 11.3715H4.73166L4.73166 12.5898H6.73166ZM6.73166 11.3715C6.73166 10.6823 7.29037 10.1235 7.97958 10.1235V8.12354C6.1858 8.12354 4.73166 9.57768 4.73166 11.3715H6.73166ZM7.97958 10.1235C8.66879 10.1235 9.22751 10.6823 9.22751 11.3715H11.2275C11.2275 9.57768 9.77336 8.12354 7.97958 8.12354V10.1235ZM9.22751 11.3715V12.5898H11.2275V11.3715H9.22751ZM12.5974 11.5898H10.2275V13.5898H12.5974V11.5898ZM11.5974 5.09155V12.5898H13.5974V5.09155H11.5974ZM4.66479 6.09155H12.5974V4.09155H4.66479V6.09155Z" fill="#444444" mask="url(#path-7-inside-1_2409_2005)"/>
<rect x="12.0894" y="5.59155" width="7.93259" height="6.49829" stroke="#444444"/>
<path d="M19.9025 5.59155H27.3351C27.6112 5.59155 27.8351 5.81541 27.8351 6.09155V11.5898C27.8351 11.866 27.6112 12.0898 27.3351 12.0898H19.9025V5.59155Z" stroke="#444444"/>
</svg>
