<svg width="32" height="32" viewBox="0 0 32 32" fill="none" xmlns="http://www.w3.org/2000/svg">
<path d="M26.5977 5.84253H5.4023C4.817 5.84253 4.34253 6.317 4.34253 6.9023V25.0977C4.34253 25.683 4.817 26.1575 5.4023 26.1575H26.5977C27.183 26.1575 27.6575 25.683 27.6575 25.0977V6.9023C27.6575 6.317 27.183 5.84253 26.5977 5.84253Z" stroke="#49494A" stroke-linecap="round" stroke-linejoin="round"/>
<path d="M8.93262 10.7058L8.93262 26.1575" stroke="#49494A" stroke-linecap="round" stroke-linejoin="round"/>
<path d="M18.3326 10.7058L18.3326 26.1575" stroke="#49494A" stroke-linecap="round" stroke-linejoin="round"/>
<path d="M4.34253 13.6492L27.5124 13.6492" stroke="#49494A" stroke-linecap="round" stroke-linejoin="round"/>
<path d="M4.34253 16.8914L27.5124 16.8914" stroke="#49494A" stroke-linecap="round" stroke-linejoin="round"/>
<path d="M4.34253 20.0701L27.5124 20.0701" stroke="#49494A" stroke-linecap="round" stroke-linejoin="round"/>
<path d="M4.34253 23.1216L27.5124 23.1216" stroke="#49494A" stroke-linecap="round" stroke-linejoin="round"/>
<path d="M13.6669 10.7058L13.6669 26.1575" stroke="#49494A" stroke-linecap="round" stroke-linejoin="round"/>
<path d="M23.0394 10.7058L23.0394 26.1575" stroke="#49494A" stroke-linecap="round" stroke-linejoin="round"/>
<path d="M4.34253 10.4148H27.6575" stroke="#49494A" stroke-linecap="round" stroke-linejoin="round"/>
</svg>
