<svg width="32" height="32" viewBox="0 0 32 32" fill="none" xmlns="http://www.w3.org/2000/svg">
<path d="M26.5977 5.84253H5.4023C4.817 5.84253 4.34253 6.317 4.34253 6.9023V25.0977C4.34253 25.683 4.817 26.1575 5.4023 26.1575H26.5977C27.183 26.1575 27.6575 25.683 27.6575 25.0977V6.9023C27.6575 6.317 27.183 5.84253 26.5977 5.84253Z" stroke="#49494A" stroke-linecap="round" stroke-linejoin="round"/>
<path d="M22.3586 9.08179V11.7488" stroke="#49494A" stroke-linecap="round" stroke-linejoin="round"/>
<path d="M9.64136 9.08179V11.7488" stroke="#49494A" stroke-linecap="round" stroke-linejoin="round"/>
<path d="M4.34253 10.4148H27.6575" stroke="#49494A" stroke-linecap="round" stroke-linejoin="round"/>
<path d="M11.567 15.4364L13.3402 14.5498V21.6425" stroke="#49494A" stroke-linecap="round" stroke-linejoin="round"/>
<path d="M17.1238 15.4361C17.2451 15.2272 17.4078 15.0453 17.602 14.9015C17.7961 14.7578 18.0176 14.6552 18.2528 14.6002C18.488 14.5451 18.732 14.5387 18.9698 14.5813C19.2076 14.6239 19.4342 14.7146 19.6357 14.8479C19.8371 14.9813 20.0092 15.1544 20.1414 15.3566C20.2735 15.5588 20.363 15.7859 20.4042 16.0239C20.4455 16.262 20.4376 16.5059 20.3812 16.7408C20.3248 16.9757 20.2209 17.1966 20.0761 17.3899L16.8866 21.6422H20.4329" stroke="#49494A" stroke-linecap="round" stroke-linejoin="round"/>
</svg>
