<svg width="32" height="32" viewBox="0 0 32 32" fill="none" xmlns="http://www.w3.org/2000/svg">
<path d="M30.7882 20.1493C30.7882 21.0661 30.0452 21.8091 29.1285 21.8091H12.9982C12.0814 21.8091 11.3384 21.0661 11.3384 20.1493V11.8504C11.3384 10.9337 12.0814 10.1907 12.9982 10.1907H29.1285C30.0452 10.1907 30.7882 10.9337 30.7882 11.8504V20.1493Z" stroke="#49494A" stroke-miterlimit="10"/>
<path d="M14.2058 11.6626L14.2058 20.3374" stroke="#49494A" stroke-miterlimit="10"/>
<path d="M4.13307 14.4629L4.19962 18.5643C4.20387 18.8509 4.32072 19.1243 4.52492 19.3254C4.72912 19.5266 5.00427 19.6393 5.2909 19.6392C5.57753 19.6392 5.85262 19.5263 6.05673 19.3251C6.26084 19.1239 6.37757 18.8504 6.3817 18.5638L6.31564 12.9197C6.31564 12.3409 6.08569 11.7857 5.67638 11.3764C5.26707 10.9671 4.71193 10.7372 4.13307 10.7372C3.55422 10.7372 2.99908 10.9671 2.58977 11.3764C2.18046 11.7857 1.95051 12.3409 1.95051 12.9197L2.01706 18.5643C2.02409 19.4278 2.37206 20.2536 2.98517 20.8617C3.59828 21.4699 4.42686 21.8111 5.29042 21.8111C6.15398 21.8111 6.98256 21.4699 7.59567 20.8617C8.20878 20.2536 8.55675 19.4278 8.56378 18.5643L8.56957 14.6557" stroke="#49494A" stroke-linecap="round" stroke-linejoin="round"/>
</svg>
