<svg width="32" height="32" viewBox="0 0 32 32" fill="none" xmlns="http://www.w3.org/2000/svg">
<path d="M28.8562 13.7512C28.8562 14.3689 28.3558 14.8691 27.7383 14.8691H4.26173C3.64425 14.8691 3.1438 14.3689 3.1438 13.7512V4.24879C3.1438 3.63108 3.64425 3.13086 4.26173 3.13086H27.7383C28.3558 3.13086 28.8562 3.63108 28.8562 4.24879V13.7512Z" stroke="#49494A" stroke-miterlimit="10"/>
<path d="M28.8562 27.7512C28.8562 28.3689 28.3558 28.8691 27.7383 28.8691H4.26173C3.64425 28.8691 3.1438 28.3689 3.1438 27.7512V18.2488C3.1438 17.6311 3.64425 17.1309 4.26173 17.1309H27.7383C28.3558 17.1309 28.8562 17.6311 28.8562 18.2488V27.7512Z" stroke="#49494A" stroke-miterlimit="10"/>
<path d="M13.2058 4.6626L13.2058 13.3374" stroke="#49494A" stroke-miterlimit="10"/>
<path d="M7.85681 11.1824C7.85681 11.4585 8.08067 11.6824 8.35681 11.6824C8.63295 11.6824 8.85681 11.4585 8.85681 11.1824L7.85681 11.1824ZM7.85681 6.81763L7.85681 11.1824L8.85681 11.1824L8.85681 6.81763L7.85681 6.81763Z" fill="#49494A"/>
<path d="M10.2666 6.81763L6.44702 6.81763" stroke="#49494A" stroke-miterlimit="10" stroke-linecap="round"/>
</svg>
