<svg width="32" height="32" viewBox="0 0 32 32" fill="none" xmlns="http://www.w3.org/2000/svg">
<path d="M25.0647 7.75928H6.93527C6.48015 7.75928 6.11121 8.12822 6.11121 8.58334V23.4165C6.11121 23.8717 6.48015 24.2406 6.93527 24.2406H25.0647C25.5198 24.2406 25.8888 23.8717 25.8888 23.4165V8.58334C25.8888 8.12822 25.5198 7.75928 25.0647 7.75928Z" stroke="#49494A" stroke-linecap="round" stroke-linejoin="round"/>
<path d="M20.0578 13.1157C20.0578 13.7639 19.5323 14.2893 18.8842 14.2893C18.236 14.2893 17.7106 13.7639 17.7106 13.1157C17.7106 12.4676 18.236 11.9421 18.8842 11.9421C19.5323 11.9421 20.0578 12.4676 20.0578 13.1157Z" fill="#49494A" stroke="#49494A" stroke-width="0.125"/>
<path d="M17.989 19.7083L20.6353 17.0651C20.7898 16.9107 20.9993 16.824 21.2178 16.824C21.4363 16.824 21.6458 16.9107 21.8003 17.0651L25.8887 21.1566" stroke="#49494A" stroke-linecap="round" stroke-linejoin="round"/>
<path d="M6.11121 20.1915L11.7087 14.593C11.7852 14.5164 11.8761 14.4556 11.9761 14.4141C12.0762 14.3727 12.1834 14.3513 12.2917 14.3513C12.4 14.3513 12.5072 14.3727 12.6073 14.4141C12.7073 14.4556 12.7982 14.5164 12.8747 14.593L22.5215 24.2408" stroke="#49494A" stroke-linecap="round" stroke-linejoin="round"/>
</svg>
