<svg width="32" height="32" viewBox="0 0 32 32" fill="none" xmlns="http://www.w3.org/2000/svg">
<path d="M27.6575 6.60558C27.6575 7.21899 27.1606 7.71582 26.5472 7.71582H5.45276C4.83936 7.71582 4.34253 7.21899 4.34253 6.60558V3.05441C4.34253 2.441 4.83936 1.94417 5.45276 1.94417H26.5472C27.1606 1.94417 27.6575 2.441 27.6575 3.05441V6.60558Z" stroke="#49494A" stroke-miterlimit="10"/>
<path d="M26.5977 9.74097H5.4023C4.817 9.74097 4.34253 10.2154 4.34253 10.8007V28.9961C4.34253 29.5814 4.817 30.0559 5.4023 30.0559H26.5977C27.183 30.0559 27.6575 29.5814 27.6575 28.9961V10.8007C27.6575 10.2154 27.183 9.74097 26.5977 9.74097Z" stroke="#49494A" stroke-linecap="round" stroke-linejoin="round"/>
<path d="M22.3586 12.9802V15.6472" stroke="#49494A" stroke-linecap="round" stroke-linejoin="round"/>
<path d="M9.64136 12.9802V15.6472" stroke="#49494A" stroke-linecap="round" stroke-linejoin="round"/>
<path d="M4.34253 14.3132H27.6575" stroke="#49494A" stroke-linecap="round" stroke-linejoin="round"/>
<path d="M16 27.3342C18.8191 27.3342 21.1045 25.0489 21.1045 22.2297C21.1045 19.4106 18.8191 17.1252 16 17.1252C13.1809 17.1252 10.8955 19.4106 10.8955 22.2297C10.8955 25.0489 13.1809 27.3342 16 27.3342Z" stroke="#49494A" stroke-linecap="round" stroke-linejoin="round"/>
<path d="M16 19.252V22.2296H18.9776" stroke="#49494A" stroke-linecap="round" stroke-linejoin="round"/>
</svg>
