<svg width="32" height="32" viewBox="0 0 32 32" fill="none" xmlns="http://www.w3.org/2000/svg">
<path d="M27.6575 6.60558C27.6575 7.21899 27.1606 7.71582 26.5472 7.71582H5.45276C4.83936 7.71582 4.34253 7.21899 4.34253 6.60558V3.05441C4.34253 2.441 4.83936 1.94417 5.45276 1.94417H26.5472C27.1606 1.94417 27.6575 2.441 27.6575 3.05441V6.60558Z" stroke="#49494A" stroke-miterlimit="10"/>
<path d="M26.5977 9.74097H5.4023C4.817 9.74097 4.34253 10.2154 4.34253 10.8007V28.9961C4.34253 29.5814 4.817 30.0559 5.4023 30.0559H26.5977C27.183 30.0559 27.6575 29.5814 27.6575 28.9961V10.8007C27.6575 10.2154 27.183 9.74097 26.5977 9.74097Z" stroke="#49494A" stroke-linecap="round" stroke-linejoin="round"/>
<path d="M22.3586 12.9802V15.6472" stroke="#49494A" stroke-linecap="round" stroke-linejoin="round"/>
<path d="M9.64136 12.9802V15.6472" stroke="#49494A" stroke-linecap="round" stroke-linejoin="round"/>
<path d="M4.34253 14.3132H27.6575" stroke="#49494A" stroke-linecap="round" stroke-linejoin="round"/>
<path d="M11.567 19.4364L13.3402 18.5498V25.6425" stroke="#49494A" stroke-linecap="round" stroke-linejoin="round"/>
<path d="M17.1238 19.4361C17.2451 19.2272 17.4078 19.0453 17.602 18.9015C17.7961 18.7578 18.0176 18.6552 18.2528 18.6002C18.488 18.5451 18.732 18.5387 18.9698 18.5813C19.2076 18.6239 19.4342 18.7146 19.6357 18.8479C19.8371 18.9813 20.0092 19.1544 20.1414 19.3566C20.2735 19.5588 20.363 19.7859 20.4042 20.0239C20.4455 20.262 20.4376 20.5059 20.3812 20.7408C20.3248 20.9757 20.2209 21.1966 20.0761 21.3899L16.8866 25.6422H20.4329" stroke="#49494A" stroke-linecap="round" stroke-linejoin="round"/>
</svg>
