<svg width="32" height="32" viewBox="0 0 32 32" fill="none" xmlns="http://www.w3.org/2000/svg">
<path d="M14.3315 7.89543C14.3315 9.47534 13.0508 10.7559 11.471 10.7559C9.89126 10.7559 8.6106 9.47534 8.6106 7.89543C8.6106 6.31552 9.89126 5.035 11.471 5.035C13.0508 5.035 14.3315 6.31552 14.3315 7.89543Z" stroke="#49494A" stroke-miterlimit="10"/>
<path d="M14.3315 15.9999C14.3315 17.5798 13.0508 18.8604 11.471 18.8604C9.89126 18.8604 8.6106 17.5798 8.6106 15.9999C8.6106 14.42 9.89126 13.1395 11.471 13.1395C13.0508 13.1395 14.3315 14.42 14.3315 15.9999Z" stroke="#49494A" stroke-miterlimit="10"/>
<path d="M14.3315 24.1044C14.3315 25.6843 13.0508 26.9648 11.471 26.9648C9.89126 26.9648 8.6106 25.6843 8.6106 24.1044C8.6106 22.5245 9.89126 21.244 11.471 21.244C13.0508 21.244 14.3315 22.5245 14.3315 24.1044Z" stroke="#49494A" stroke-miterlimit="10"/>
<path d="M12.4245 15.9996C12.4245 16.5264 11.9977 16.9531 11.4711 16.9531C10.9444 16.9531 10.5176 16.5264 10.5176 15.9996C10.5176 15.4729 10.9444 15.0462 11.4711 15.0462C11.9977 15.0462 12.4245 15.4729 12.4245 15.9996Z" stroke="#49494A" stroke-miterlimit="10"/>
<path d="M17.1919 7.89526H23.3895" stroke="#49494A" stroke-miterlimit="10"/>
<path d="M17.1919 16H23.3895" stroke="#49494A" stroke-miterlimit="10"/>
<path d="M17.1919 24.1045H23.3895" stroke="#49494A" stroke-miterlimit="10"/>
</svg>
