<svg width="32" height="32" viewBox="0 0 32 32" fill="none" xmlns="http://www.w3.org/2000/svg">
<path d="M7.81091 24.3223C7.81091 24.3223 7.81091 23.3975 7.81091 23.0289C7.81091 22.6603 6.58955 21.1686 6.28863 20.6974C6.1011 20.4043 4.79309 16.2306 4.79309 16.2306C4.79309 15.8142 5.84933 15.2805 6.53911 16.2306L7.66605 17.9771L8.24203 17.4244V11.3888C8.24203 10.9124 8.62788 10.5265 9.10426 10.5265C9.58064 10.5265 9.96649 10.9124 9.96649 11.3888V16.131" stroke="#49494A" stroke-miterlimit="10"/>
<path d="M9.96655 14.8377H10.8288C11.1004 14.8377 11.5259 15.0101 11.691 15.2688H12.5533C12.9576 15.2688 13.4155 15.646 13.4155 16.131H14.2777C14.6821 16.131 15.14 16.5083 15.14 16.9933V21.3044C15.14 22.1766 14.2777 22.8793 14.2777 23.46C14.2777 24.0407 14.2777 24.3223 14.2777 24.3223" stroke="#49494A" stroke-miterlimit="10"/>
<path d="M11.6909 15.2687V16.562" stroke="#49494A" stroke-miterlimit="10"/>
<path d="M13.4154 16.1309V16.9932" stroke="#49494A" stroke-miterlimit="10"/>
<path d="M15.1398 26.9087V24.322H6.94861V26.9087" stroke="#49494A" stroke-miterlimit="10"/>
<path d="M8.24207 26.0464H9.53542" stroke="#49494A" stroke-miterlimit="10"/>
<rect x="15.7074" y="5.5918" width="4" height="4" rx="2" stroke="#444444"/>
<path fill-rule="evenodd" clip-rule="evenodd" d="M6.81692 11.055C6.36119 10.5288 6.08545 9.84251 6.08545 9.0918C6.08545 7.43494 7.4286 6.0918 9.08545 6.0918C10.7423 6.0918 12.0854 7.43494 12.0854 9.0918C12.0854 9.84251 11.8097 10.5288 11.354 11.055C11.3727 11.1731 11.3824 11.2942 11.3824 11.4176V12.3669C12.4124 11.6433 13.0854 10.4461 13.0854 9.0918C13.0854 6.88266 11.2946 5.0918 9.08545 5.0918C6.87631 5.0918 5.08545 6.88266 5.08545 9.0918C5.08545 10.4461 5.75854 11.6433 6.78845 12.3669V11.4176C6.78845 11.2942 6.79818 11.1731 6.81692 11.055Z" fill="#444444"/>
<rect x="22.707" y="5.5918" width="4" height="4" rx="2" stroke="#444444"/>
</svg>
