<svg width="32" height="32" viewBox="0 0 32 32" fill="none" xmlns="http://www.w3.org/2000/svg">
<path d="M26.4382 15.9999C26.4382 18.6317 24.3047 20.7651 21.673 20.7651H10.3271C7.69544 20.7651 5.56189 18.6317 5.56189 15.9999C5.56189 13.3681 7.69544 11.2346 10.3271 11.2346H21.673C24.3047 11.2346 26.4382 13.3681 26.4382 15.9999Z" stroke="#49494A" stroke-miterlimit="10"/>
<path d="M13.7309 16.0003C13.7309 17.6295 12.4101 18.9502 10.781 18.9502C9.15178 18.9502 7.83105 17.6295 7.83105 16.0003C7.83105 14.371 9.15178 13.0504 10.781 13.0504C12.4101 13.0504 13.7309 14.371 13.7309 16.0003Z" stroke="#49494A" stroke-miterlimit="10"/>
<path d="M13.7309 16.0003C13.7309 17.6295 12.4101 18.9502 10.781 18.9502C9.15178 18.9502 7.83105 17.6295 7.83105 16.0003C7.83105 14.371 9.15178 13.0504 10.781 13.0504C12.4101 13.0504 13.7309 14.371 13.7309 16.0003Z" stroke="#49494A" stroke-miterlimit="10"/>
<path d="M13.7309 16.0003C13.7309 17.6295 12.4101 18.9502 10.781 18.9502C9.15178 18.9502 7.83105 17.6295 7.83105 16.0003C7.83105 14.371 9.15178 13.0504 10.781 13.0504C12.4101 13.0504 13.7309 14.371 13.7309 16.0003Z" stroke="#49494A" stroke-miterlimit="10"/>
</svg>
