<svg width="32" height="32" viewBox="0 0 32 32" fill="none" xmlns="http://www.w3.org/2000/svg">
<path d="M28.8562 26.7512C28.8562 27.3689 28.3558 27.8691 27.7383 27.8691H4.26173C3.64425 27.8691 3.1438 27.3689 3.1438 26.7512V5.24879C3.1438 4.63108 3.64425 4.13086 4.26173 4.13086H27.7383C28.3558 4.13086 28.8562 4.63108 28.8562 5.24879V26.7512Z" stroke="#49494A" stroke-miterlimit="10"/>
<path d="M13.2058 5.6626L13.2058 14.3374" stroke="#49494A" stroke-miterlimit="10"/>
<path d="M7.85681 12.1821C7.85681 12.4583 8.08067 12.6821 8.35681 12.6821C8.63295 12.6821 8.85681 12.4583 8.85681 12.1821L7.85681 12.1821ZM7.85681 7.81738L7.85681 12.1821L8.85681 12.1821L8.85681 7.81738L7.85681 7.81738Z" fill="#49494A"/>
<path d="M10.2666 7.81738L6.44702 7.81738" stroke="#49494A" stroke-miterlimit="10" stroke-linecap="round"/>
</svg>
