<svg width="32" height="32" viewBox="0 0 32 32" fill="none" xmlns="http://www.w3.org/2000/svg">
<path d="M7.06909 18.1824C7.06909 18.4585 7.29295 18.6824 7.56909 18.6824C7.84523 18.6824 8.06909 18.4585 8.06909 18.1824L7.06909 18.1824ZM7.06909 13.8176L7.06909 18.1824L8.06909 18.1824L8.06909 13.8176L7.06909 13.8176Z" fill="#49494A"/>
<path d="M9.47888 13.8176H5.6593" stroke="#49494A" stroke-miterlimit="10" stroke-linecap="round"/>
<path d="M20.584 13.8491L16.2508 18.1823" stroke="#49494A" stroke-miterlimit="10" stroke-linecap="round"/>
<path d="M20.584 18.1824L16.2508 13.8492" stroke="#49494A" stroke-miterlimit="10" stroke-linecap="round"/>
<path d="M23.9309 18.1824C23.9309 18.4585 24.1548 18.6824 24.4309 18.6824C24.7071 18.6824 24.9309 18.4585 24.9309 18.1824L23.9309 18.1824ZM23.9309 13.8176L23.9309 18.1824L24.9309 18.1824L24.9309 13.8176L23.9309 13.8176Z" fill="#49494A"/>
<path d="M26.3407 13.8176H22.5211" stroke="#49494A" stroke-miterlimit="10" stroke-linecap="round"/>
<path d="M10.9645 18.1824C10.9645 18.4585 11.1883 18.6824 11.4645 18.6824C11.7406 18.6824 11.9645 18.4585 11.9645 18.1824L10.9645 18.1824ZM10.9645 13.8176L10.9645 18.1824L11.9645 18.1824L11.9645 13.8176L10.9645 13.8176Z" fill="#49494A"/>
<path d="M14.3481 13.8176H11.4644" stroke="#49494A" stroke-miterlimit="10" stroke-linecap="round"/>
<path d="M13.6467 16H11.4645" stroke="#49494A" stroke-miterlimit="10" stroke-linecap="round"/>
<path d="M14.3481 18.1824H11.4644" stroke="#49494A" stroke-miterlimit="10" stroke-linecap="round"/>
</svg>
