<svg width="32" height="32" viewBox="0 0 32 32" fill="none" xmlns="http://www.w3.org/2000/svg">
<path d="M26.5977 5.84277H5.4023C4.817 5.84277 4.34253 6.31725 4.34253 6.90254V25.0979C4.34253 25.6832 4.817 26.1577 5.4023 26.1577H26.5977C27.183 26.1577 27.6575 25.6832 27.6575 25.0979V6.90254C27.6575 6.31725 27.183 5.84277 26.5977 5.84277Z" stroke="#49494A" stroke-linecap="round" stroke-linejoin="round"/>
<path d="M22.3586 9.08203V11.749" stroke="#49494A" stroke-linecap="round" stroke-linejoin="round"/>
<path d="M9.64136 9.08203V11.749" stroke="#49494A" stroke-linecap="round" stroke-linejoin="round"/>
<path d="M4.34253 10.415H27.6575" stroke="#49494A" stroke-linecap="round" stroke-linejoin="round"/>
<path d="M16 23.3345C18.8191 23.3345 21.1045 21.0491 21.1045 18.23C21.1045 15.4108 18.8191 13.1255 16 13.1255C13.1809 13.1255 10.8955 15.4108 10.8955 18.23C10.8955 21.0491 13.1809 23.3345 16 23.3345Z" stroke="#49494A" stroke-linecap="round" stroke-linejoin="round"/>
<path d="M16 15.252V18.2296H18.9776" stroke="#49494A" stroke-linecap="round" stroke-linejoin="round"/>
</svg>
