<svg width="32" height="32" viewBox="0 0 32 32" fill="none" xmlns="http://www.w3.org/2000/svg">
<path d="M28.2652 22.334H3.73474V6.33586H28.2652V22.334Z" stroke="#49494A" stroke-miterlimit="10"/>
<path d="M14.5403 24.7734C14.5403 25.2307 14.1695 25.6014 13.7122 25.6014C13.2549 25.6014 12.8842 25.2307 12.8842 24.7734C12.8842 24.316 13.2549 23.9453 13.7122 23.9453C14.1695 23.9453 14.5403 24.316 14.5403 24.7734Z" fill="#49494A" stroke="#49494A" stroke-width="0.125"/>
<path d="M16.828 24.7734C16.828 25.2307 16.4572 25.6014 15.9999 25.6014C15.5426 25.6014 15.1719 25.2307 15.1719 24.7734C15.1719 24.316 15.5426 23.9453 15.9999 23.9453C16.4572 23.9453 16.828 24.316 16.828 24.7734Z" fill="#49494A" stroke="#49494A" stroke-width="0.125"/>
<path d="M19.1158 24.7734C19.1158 25.2307 18.7451 25.6014 18.2878 25.6014C17.8304 25.6014 17.4597 25.2307 17.4597 24.7734C17.4597 24.316 17.8304 23.9453 18.2878 23.9453C18.7451 23.9453 19.1158 24.316 19.1158 24.7734Z" fill="#49494A" stroke="#49494A" stroke-width="0.125"/>
</svg>
