<svg width="32" height="32" viewBox="0 0 32 32" fill="none" xmlns="http://www.w3.org/2000/svg">
<path d="M14.1995 15.9998C14.1995 17.8418 12.7063 19.335 10.8644 19.335C9.02247 19.335 7.5293 17.8418 7.5293 15.9998C7.5293 14.1579 9.02247 12.6647 10.8644 12.6647C12.7063 12.6647 14.1995 14.1579 14.1995 15.9998Z" stroke="#49494A" stroke-miterlimit="10"/>
<path d="M17.853 18.0854C17.475 18.0854 17.1689 17.7791 17.1689 17.4013L17.169 14.5984C17.169 14.2205 17.4751 13.9143 17.8531 13.9143L23.7867 13.9143C24.1647 13.9143 24.4708 14.2205 24.4708 14.5984L24.4707 17.4013C24.4707 17.7791 24.1646 18.0854 23.7866 18.0854L17.853 18.0854Z" stroke="#49494A" stroke-miterlimit="10"/>
<path d="M18.7889 16L22.852 16" stroke="#49494A" stroke-miterlimit="10"/>
</svg>
