<svg width="32" height="32" viewBox="0 0 32 32" fill="none" xmlns="http://www.w3.org/2000/svg">
<path opacity="0.5" d="M9.60467 15.9998C9.60467 17.8418 8.1115 19.335 6.26956 19.335C4.42763 19.335 2.93445 17.8418 2.93445 15.9998C2.93445 14.1579 4.42763 12.6647 6.26956 12.6647C8.1115 12.6647 9.60467 14.1579 9.60467 15.9998Z" stroke="#49494A" stroke-miterlimit="10"/>
<path opacity="0.5" d="M29.0656 15.9998C29.0656 17.8418 27.5724 19.335 25.7305 19.335C23.8886 19.335 22.3954 17.8418 22.3954 15.9998C22.3954 14.1579 23.8886 12.6647 25.7305 12.6647C27.5724 12.6647 29.0656 14.1579 29.0656 15.9998Z" stroke="#49494A" stroke-miterlimit="10"/>
<path d="M13.2582 18.0854C12.8802 18.0854 12.5741 17.7791 12.5741 17.4013L12.5742 14.5984C12.5742 14.2205 12.8802 13.9143 13.2582 13.9143L19.1918 13.9143C19.5698 13.9143 19.8759 14.2205 19.8759 14.5984L19.8759 17.4013C19.8759 17.7791 19.5698 18.0854 19.1918 18.0854L13.2582 18.0854Z" stroke="#49494A" stroke-miterlimit="10"/>
<path d="M14.194 16L18.2572 16" stroke="#49494A" stroke-miterlimit="10"/>
</svg>
