<svg width="32" height="32" viewBox="0 0 32 32" fill="none" xmlns="http://www.w3.org/2000/svg">
<path opacity="0.5" d="M9.81402 8.62167C9.81402 10.4636 8.32085 11.9568 6.47891 11.9568C4.63698 11.9568 3.1438 10.4636 3.1438 8.62167C3.1438 6.77974 4.63698 5.28656 6.47891 5.28656C8.32085 5.28656 9.81402 6.77974 9.81402 8.62167Z" stroke="#49494A" stroke-miterlimit="10"/>
<path d="M28.8562 25.5954C28.8562 26.2132 28.3558 26.7134 27.7383 26.7134H4.26173C3.64425 26.7134 3.1438 26.2132 3.1438 25.5954V16.093C3.1438 15.4753 3.64425 14.9751 4.26173 14.9751H27.7383C28.3558 14.9751 28.8562 15.4753 28.8562 16.093V25.5954Z" stroke="#49494A" stroke-miterlimit="10"/>
<g opacity="0.5">
<path d="M13.8528 10.7072C13.4748 10.7072 13.1688 10.401 13.1688 10.0231L13.1688 7.2202C13.1688 6.84236 13.4749 6.53613 13.8529 6.53613L19.7865 6.53613C20.1645 6.53613 20.4706 6.84236 20.4706 7.2202L20.4705 10.0231C20.4705 10.401 20.1644 10.7072 19.7865 10.7072L13.8528 10.7072Z" stroke="#49494A" stroke-miterlimit="10"/>
<path d="M14.7887 8.62183L18.8519 8.62183" stroke="#49494A" stroke-miterlimit="10"/>
</g>
</svg>
