<svg width="32" height="32" viewBox="0 0 32 32" fill="none" xmlns="http://www.w3.org/2000/svg">
<path d="M23.663 16.1381C23.663 16.78 23.1426 17.3003 22.5008 17.3003C21.8589 17.3003 21.3386 16.78 21.3386 16.1381C21.3386 15.4962 21.8589 14.9759 22.5008 14.9759C23.1426 14.9759 23.663 15.4962 23.663 16.1381Z" stroke="#49494A" stroke-miterlimit="10"/>
<path d="M8.60437 19.2075L16.8812 19.2075C17.0288 19.2075 17.1485 19.0878 17.1485 18.9402L17.1485 17.0691L18.485 15.9999L17.1485 14.9307L17.1485 13.0595C17.1485 12.912 17.0288 12.7922 16.8812 12.7922L8.60437 12.7922C8.45681 12.7922 8.33706 12.912 8.33706 13.0595L8.33706 18.9402C8.33706 19.0878 8.45681 19.2075 8.60437 19.2075Z" stroke="#49494A" stroke-miterlimit="10"/>
</svg>
