<svg width="32" height="32" viewBox="0 0 32 32" fill="none" xmlns="http://www.w3.org/2000/svg">
<path d="M17.1252 7.50455C17.1252 8.14642 16.6049 8.66675 15.963 8.66675C15.3212 8.66675 14.8008 8.14642 14.8008 7.50455C14.8008 6.86268 15.3212 6.34234 15.963 6.34234C16.6049 6.34234 17.1252 6.86268 17.1252 7.50455Z" stroke="#49494A" stroke-miterlimit="10"/>
<path d="M17.1252 16.069C17.1252 16.7109 16.6049 17.2312 15.963 17.2312C15.3212 17.2312 14.8008 16.7109 14.8008 16.069C14.8008 15.4271 15.3212 14.9068 15.963 14.9068C16.6049 14.9068 17.1252 15.4271 17.1252 16.069Z" stroke="#49494A" stroke-miterlimit="10"/>
<path d="M16 18.8669L16 21.8361" stroke="#49494A" stroke-miterlimit="10"/>
<path d="M16 10.3025L16 13.2716" stroke="#49494A" stroke-miterlimit="10"/>
<path d="M17.1252 24.6337C17.1252 25.2756 16.6049 25.7959 15.963 25.7959C15.3212 25.7959 14.8008 25.2756 14.8008 24.6337C14.8008 23.9918 15.3212 23.4715 15.963 23.4715C16.6049 23.4715 17.1252 23.9918 17.1252 24.6337Z" stroke="#49494A" stroke-miterlimit="10"/>
<path d="M2.06665 10.574L10.3435 10.574C10.4911 10.574 10.6108 10.4542 10.6108 10.3067L10.6108 8.43555L11.9473 7.36633L10.6108 6.29712L10.6108 4.42599C10.6108 4.27844 10.4911 4.15869 10.3435 4.15869L2.06665 4.15869C1.91909 4.15869 1.79934 4.27844 1.79934 4.42599L1.79934 10.3067C1.79934 10.4542 1.91909 10.574 2.06665 10.574Z" stroke="#49494A" stroke-miterlimit="10"/>
<path d="M2.06665 27.8416L10.3435 27.8416C10.4911 27.8416 10.6108 27.7218 10.6108 27.5742L10.6108 25.7031L11.9473 24.6339L10.6108 23.5647L10.6108 21.6936C10.6108 21.546 10.4911 21.4263 10.3435 21.4263L2.06665 21.4263C1.91909 21.4263 1.79934 21.546 1.79934 21.6936L1.79934 27.5742C1.79934 27.7218 1.91909 27.8416 2.06665 27.8416Z" stroke="#49494A" stroke-miterlimit="10"/>
<path d="M29.9334 12.8613L21.6565 12.8613C21.5089 12.8613 21.3892 12.9811 21.3892 13.1286L21.3892 14.9998L20.0527 16.069L21.3892 17.1382L21.3892 19.0093C21.3892 19.1569 21.5089 19.2766 21.6565 19.2766L29.9334 19.2766C30.0809 19.2766 30.2007 19.1569 30.2007 19.0093L30.2007 13.1286C30.2007 12.9811 30.0809 12.8613 29.9334 12.8613Z" stroke="#49494A" stroke-miterlimit="10"/>
</svg>
