<svg width="32" height="32" viewBox="0 0 32 32" fill="none" xmlns="http://www.w3.org/2000/svg">
<path d="M28.8562 20.7512C28.8562 21.3689 28.3558 21.8691 27.7383 21.8691H4.26172C3.64424 21.8691 3.14379 21.3689 3.14379 20.7512V11.2488C3.14379 10.6311 3.64424 10.1309 4.26172 10.1309H27.7383C28.3558 10.1309 28.8562 10.6311 28.8562 11.2488V20.7512Z" stroke="#49494A" stroke-miterlimit="10"/>
<path d="M12.3388 16.0001C12.3388 17.7979 10.8814 19.2551 9.08374 19.2551C7.28603 19.2551 5.8287 17.7979 5.8287 16.0001C5.8287 14.2023 7.28603 12.7451 9.08374 12.7451C10.8814 12.7451 12.3388 14.2023 12.3388 16.0001Z" stroke="#49494A" stroke-miterlimit="10"/>
<path d="M9.08348 15.7227V17.8726" stroke="#49494A" stroke-miterlimit="10"/>
<path d="M9.08348 14.7617L9.08348 14.9043" stroke="#49494A" stroke-miterlimit="10" stroke-linecap="round"/>
</svg>
