<svg width="33" height="33" viewBox="0 0 33 33" fill="none" xmlns="http://www.w3.org/2000/svg">
<rect x="0.67041" y="0.243896" width="32" height="32" rx="4" fill="#D5D5D5"/>
<path d="M23.6704 23.2439H19.6704V25.2439H23.6704C24.7704 25.2439 25.6704 24.3439 25.6704 23.2439V19.2439H23.6704M23.6704 7.2439H19.6704V9.2439H23.6704V13.2439H25.6704V9.2439C25.6704 8.1439 24.7704 7.2439 23.6704 7.2439ZM9.67041 9.2439H13.6704V7.2439H9.67041C8.57041 7.2439 7.67041 8.1439 7.67041 9.2439V13.2439H9.67041M9.67041 19.2439H7.67041V23.2439C7.67041 24.3439 8.57041 25.2439 9.67041 25.2439H13.6704V23.2439H9.67041V19.2439ZM11.6704 15.2439H13.6704V17.2439H11.6704V15.2439ZM15.6704 15.2439H17.6704V17.2439H15.6704V15.2439ZM19.6704 15.2439H21.6704V17.2439H19.6704V15.2439ZM11.6704 11.2439H13.6704V13.2439H11.6704V11.2439ZM15.6704 11.2439H17.6704V13.2439H15.6704V11.2439ZM19.6704 11.2439H21.6704V13.2439H19.6704V11.2439ZM11.6704 19.2439H13.6704V21.2439H11.6704V19.2439ZM15.6704 19.2439H17.6704V21.2439H15.6704V19.2439ZM19.6704 19.2439H21.6704V21.2439H19.6704V19.2439Z" fill="white"/>
</svg>
