<svg width="33" height="33" viewBox="0 0 33 33" fill="none" xmlns="http://www.w3.org/2000/svg">
<rect x="0.67041" y="0.179932" width="32" height="32" rx="4" fill="#D5D5D5"/>
<path d="M9.67041 6.17993H23.6704C23.9356 6.17993 24.19 6.28529 24.3775 6.47282C24.5651 6.66036 24.6704 6.91472 24.6704 7.17993V17.1799C24.6704 17.4451 24.5651 17.6995 24.3775 17.887C24.19 18.0746 23.9356 18.1799 23.6704 18.1799H9.67041C9.40519 18.1799 9.15084 18.0746 8.9633 17.887C8.77577 17.6995 8.67041 17.4451 8.67041 17.1799V7.17993C8.67041 6.91472 8.77577 6.66036 8.9633 6.47282C9.15084 6.28529 9.40519 6.17993 9.67041 6.17993ZM10.6704 8.17993V16.1799H22.6704V8.17993H10.6704ZM24.6704 21.1799C24.6704 21.4451 24.5651 21.6995 24.3775 21.887C24.19 22.0746 23.9356 22.1799 23.6704 22.1799H9.67041C9.40519 22.1799 9.15084 22.0746 8.9633 21.887C8.77577 21.6995 8.67041 21.4451 8.67041 21.1799V20.1799H24.6704V21.1799ZM24.6704 25.1799C24.6704 25.4451 24.5651 25.6995 24.3775 25.887C24.19 26.0746 23.9356 26.1799 23.6704 26.1799H9.67041C9.40519 26.1799 9.15084 26.0746 8.9633 25.887C8.77577 25.6995 8.67041 25.4451 8.67041 25.1799V24.1799H24.6704V25.1799Z" fill="white"/>
</svg>
