<svg width="33" height="33" viewBox="0 0 33 33" fill="none" xmlns="http://www.w3.org/2000/svg">
<rect x="0.67041" y="0.115479" width="32" height="32" rx="4" fill="#D5D5D5"/>
<path d="M20.8504 23.7155L18.8404 20.2355C19.8204 19.5155 20.5004 18.3955 20.6404 17.1155H24.6704C24.5004 19.8755 23.0204 22.2755 20.8504 23.7155ZM17.6704 11.1455V7.11548C21.9704 7.37548 25.4104 10.8155 25.6704 15.1155H21.6404C21.4104 13.0255 19.7604 11.3755 17.6704 11.1455ZM11.6704 16.6155C11.6704 17.2555 11.8004 17.8655 12.0504 18.4155L8.57041 20.4255C7.99041 19.2755 7.67041 17.9855 7.67041 16.6155C7.67041 12.0855 11.2104 8.38548 15.6704 8.11548V12.1455C13.4204 12.3955 11.6704 14.2955 11.6704 16.6155ZM16.1704 25.1155C13.2004 25.1155 10.5904 23.6155 9.07041 21.2955L12.5504 19.2855C13.3704 20.3955 14.6704 21.1155 16.1704 21.1155C16.8104 21.1155 17.4204 20.9855 17.9704 20.7355L19.9804 24.2155C18.8304 24.7955 17.5404 25.1155 16.1704 25.1155Z" fill="white"/>
</svg>
