<svg width="33" height="33" viewBox="0 0 33 33" fill="none" xmlns="http://www.w3.org/2000/svg">
<rect x="0.67041" y="0.0515137" width="32" height="32" rx="4" fill="#D5D5D5"/>
<path d="M16.6704 7.05151C12.2504 7.05151 8.67041 8.84151 8.67041 11.0515V21.0515C8.67041 23.2615 12.2604 25.0515 16.6704 25.0515C21.0804 25.0515 24.6704 23.2615 24.6704 21.0515V11.0515C24.6704 8.84151 21.0904 7.05151 16.6704 7.05151ZM22.6704 21.0515C22.6704 21.5515 20.5404 23.0515 16.6704 23.0515C12.8004 23.0515 10.6704 21.5515 10.6704 21.0515V18.8215C12.2804 19.6015 14.3904 20.0515 16.6704 20.0515C18.9504 20.0515 21.0604 19.6015 22.6704 18.8215V21.0515ZM22.6704 16.5015C21.3704 17.4515 19.0904 18.0515 16.6704 18.0515C14.2504 18.0515 11.9704 17.4515 10.6704 16.5015V13.6915C12.1404 14.5215 14.2804 15.0515 16.6704 15.0515C19.0604 15.0515 21.2004 14.5215 22.6704 13.6915V16.5015ZM16.6704 13.0515C12.8004 13.0515 10.6704 11.5515 10.6704 11.0515C10.6704 10.5515 12.8004 9.05151 16.6704 9.05151C20.5404 9.05151 22.6704 10.5515 22.6704 11.0515C22.6704 11.5515 20.5404 13.0515 16.6704 13.0515Z" fill="white"/>
</svg>
