<svg width="32" height="33" viewBox="0 0 32 33" fill="none" xmlns="http://www.w3.org/2000/svg">
<rect y="0.243896" width="32" height="32" rx="4" fill="#D5D5D5"/>
<path d="M24 24.2439H8C7.46957 24.2439 6.96086 24.0332 6.58579 23.6581C6.21071 23.283 6 22.7743 6 22.2439V10.2439C6 9.71346 6.21071 9.20476 6.58579 8.82968C6.96086 8.45461 7.46957 8.2439 8 8.2439H24C24.5304 8.2439 25.0391 8.45461 25.4142 8.82968C25.7893 9.20476 26 9.71346 26 10.2439V22.2439C26 22.7743 25.7893 23.283 25.4142 23.6581C25.0391 24.0332 24.5304 24.2439 24 24.2439ZM8 10.2439V22.2439H24V10.2439H8ZM10 13.2439H22V15.2439H10V13.2439ZM10 17.2439H20V19.2439H10V17.2439Z" fill="white"/>
</svg>
