<svg width="32" height="33" viewBox="0 0 32 33" fill="none" xmlns="http://www.w3.org/2000/svg">
<rect y="0.179565" width="32" height="32" rx="4" fill="#D5D5D5"/>
<path d="M15 19.1796H21V21.1796H15V19.1796ZM13 11.1796H11V13.1796H13V11.1796ZM15 17.1796H21V15.1796H15V17.1796ZM15 13.1796H21V11.1796H15V13.1796ZM13 15.1796H11V17.1796H13V15.1796ZM25 9.17957V23.1796C25 24.2796 24.1 25.1796 23 25.1796H9C7.9 25.1796 7 24.2796 7 23.1796V9.17957C7 8.07957 7.9 7.17957 9 7.17957H23C24.1 7.17957 25 8.07957 25 9.17957ZM23 9.17957H9V23.1796H23V9.17957ZM13 19.1796H11V21.1796H13V19.1796Z" fill="white"/>
</svg>
