<svg width="32" height="33" viewBox="0 0 32 33" fill="none" xmlns="http://www.w3.org/2000/svg">
<rect y="0.0511475" width="32" height="32" rx="4" fill="#D5D5D5"/>
<path d="M11 9.05115H25V11.0511H11V9.05115ZM11 17.0511V15.0511H25V17.0511H11ZM8 8.55115C8.39782 8.55115 8.77936 8.70918 9.06066 8.99049C9.34196 9.27179 9.5 9.65332 9.5 10.0511C9.5 10.449 9.34196 10.8305 9.06066 11.1118C8.77936 11.3931 8.39782 11.5511 8 11.5511C7.60218 11.5511 7.22064 11.3931 6.93934 11.1118C6.65804 10.8305 6.5 10.449 6.5 10.0511C6.5 9.65332 6.65804 9.27179 6.93934 8.99049C7.22064 8.70918 7.60218 8.55115 8 8.55115ZM8 14.5511C8.39782 14.5511 8.77936 14.7092 9.06066 14.9905C9.34196 15.2718 9.5 15.6533 9.5 16.0511C9.5 16.449 9.34196 16.8305 9.06066 17.1118C8.77936 17.3931 8.39782 17.5511 8 17.5511C7.60218 17.5511 7.22064 17.3931 6.93934 17.1118C6.65804 16.8305 6.5 16.449 6.5 16.0511C6.5 15.6533 6.65804 15.2718 6.93934 14.9905C7.22064 14.7092 7.60218 14.5511 8 14.5511ZM11 23.0511V21.0511H25V23.0511H11ZM8 20.5511C8.39782 20.5511 8.77936 20.7092 9.06066 20.9905C9.34196 21.2718 9.5 21.6533 9.5 22.0511C9.5 22.449 9.34196 22.8305 9.06066 23.1118C8.77936 23.3931 8.39782 23.5511 8 23.5511C7.60218 23.5511 7.22064 23.3931 6.93934 23.1118C6.65804 22.8305 6.5 22.449 6.5 22.0511C6.5 21.6533 6.65804 21.2718 6.93934 20.9905C7.22064 20.7092 7.60218 20.5511 8 20.5511Z" fill="white"/>
</svg>
