<svg width="32" height="33" viewBox="0 0 32 33" fill="none" xmlns="http://www.w3.org/2000/svg">
<rect y="0.987183" width="32" height="32" rx="4" fill="#D5D5D5"/>
<path d="M16 5.98718C15.337 5.98718 14.7011 6.25057 14.2322 6.71942C13.7634 7.18826 13.5 7.82414 13.5 8.48718C13.5003 8.97341 13.6423 9.449 13.9087 9.85574C14.1751 10.2625 14.5544 10.5827 15 10.7772V11.9872H11C10.4696 11.9872 9.96086 12.1979 9.58579 12.573C9.21071 12.948 9 13.4567 9 13.9872V14.6972C8.55437 14.8917 8.17512 15.2119 7.9087 15.6186C7.64228 16.0254 7.50025 16.501 7.5 16.9872C7.50025 17.4734 7.64228 17.949 7.9087 18.3557C8.17512 18.7625 8.55437 19.0827 9 19.2772V19.9872H8C7.46957 19.9872 6.96086 20.1979 6.58579 20.573C6.21071 20.948 6 21.4567 6 21.9872V23.1972C5.55437 23.3917 5.17512 23.7119 4.9087 24.1186C4.64228 24.5254 4.50025 25.001 4.5 25.4872C4.5 26.1502 4.76339 26.7861 5.23223 27.2549C5.46438 27.4871 5.73998 27.6712 6.04329 27.7969C6.34661 27.9225 6.6717 27.9872 7 27.9872C7.66304 27.9872 8.29893 27.7238 8.76777 27.2549C9.23661 26.7861 9.5 26.1502 9.5 25.4872C9.49975 25.001 9.35772 24.5254 9.0913 24.1186C8.82488 23.7119 8.44563 23.3917 8 23.1972V21.9872H12V23.1972C11.5544 23.3917 11.1751 23.7119 10.9087 24.1186C10.6423 24.5254 10.5003 25.001 10.5 25.4872C10.5 26.1502 10.7634 26.7861 11.2322 27.2549C11.7011 27.7238 12.337 27.9872 13 27.9872C13.3283 27.9872 13.6534 27.9225 13.9567 27.7969C14.26 27.6712 14.5356 27.4871 14.7678 27.2549C14.9999 27.0228 15.1841 26.7472 15.3097 26.4439C15.4353 26.1406 15.5 25.8155 15.5 25.4872C15.4997 25.001 15.3577 24.5254 15.0913 24.1186C14.8249 23.7119 14.4456 23.3917 14 23.1972V21.9872C14 21.4567 13.7893 20.948 13.4142 20.573C13.0391 20.1979 12.5304 19.9872 12 19.9872H11V19.2772C11.4456 19.0827 11.8249 18.7625 12.0913 18.3557C12.3577 17.949 12.4997 17.4734 12.5 16.9872C12.4997 16.501 12.3577 16.0254 12.0913 15.6186C11.8249 15.2119 11.4456 14.8917 11 14.6972V13.9872H21V14.6972C20.5544 14.8917 20.1751 15.2119 19.9087 15.6186C19.6423 16.0254 19.5003 16.501 19.5 16.9872C19.5003 17.4734 19.6423 17.949 19.9087 18.3557C20.1751 18.7625 20.5544 19.0827 21 19.2772V19.9872H20C19.4696 19.9872 18.9609 20.1979 18.5858 20.573C18.2107 20.948 18 21.4567 18 21.9872V23.1972C17.5544 23.3917 17.1751 23.7119 16.9087 24.1186C16.6423 24.5254 16.5003 25.001 16.5 25.4872C16.5 26.1502 16.7634 26.7861 17.2322 27.2549C17.7011 27.7238 18.337 27.9872 19 27.9872C19.663 27.9872 20.2989 27.7238 20.7678 27.2549C21.2366 26.7861 21.5 26.1502 21.5 25.4872C21.4998 25.001 21.3577 24.5254 21.0913 24.1186C20.8249 23.7119 20.4456 23.3917 20 23.1972V21.9872H24V23.1972C23.5544 23.3917 23.1751 23.7119 22.9087 24.1186C22.6423 24.5254 22.5002 25.001 22.5 25.4872C22.5 26.1502 22.7634 26.7861 23.2322 27.2549C23.7011 27.7238 24.337 27.9872 25 27.9872C25.663 27.9872 26.2989 27.7238 26.7678 27.2549C27.2366 26.7861 27.5 26.1502 27.5 25.4872C27.4998 25.001 27.3577 24.5254 27.0913 24.1186C26.8249 23.7119 26.4456 23.3917 26 23.1972V21.9872C26 21.4567 25.7893 20.948 25.4142 20.573C25.0391 20.1979 24.5304 19.9872 24 19.9872H23V19.2772C23.4456 19.0827 23.8249 18.7625 24.0913 18.3557C24.3577 17.949 24.4998 17.4734 24.5 16.9872C24.4998 16.501 24.3577 16.0254 24.0913 15.6186C23.8249 15.2119 23.4456 14.8917 23 14.6972V13.9872C23 13.4567 22.7893 12.948 22.4142 12.573C22.0391 12.1979 21.5304 11.9872 21 11.9872H17V10.7772C17.4456 10.5827 17.8249 10.2625 18.0913 9.85574C18.3577 9.449 18.4997 8.97341 18.5 8.48718C18.5 7.82414 18.2366 7.18826 17.7678 6.71942C17.2989 6.25057 16.663 5.98718 16 5.98718ZM16 7.48718C16.2652 7.48718 16.5196 7.59254 16.7071 7.78008C16.8946 7.96761 17 8.22197 17 8.48718C17 8.7524 16.8946 9.00675 16.7071 9.19429C16.5196 9.38183 16.2652 9.48718 16 9.48718C15.7348 9.48718 15.4804 9.38183 15.2929 9.19429C15.1054 9.00675 15 8.7524 15 8.48718C15 8.22197 15.1054 7.96761 15.2929 7.78008C15.4804 7.59254 15.7348 7.48718 16 7.48718ZM10 15.9872C10.2652 15.9872 10.5196 16.0925 10.7071 16.2801C10.8946 16.4676 11 16.722 11 16.9872C11 17.2524 10.8946 17.5068 10.7071 17.6943C10.5196 17.8818 10.2652 17.9872 10 17.9872C9.73478 17.9872 9.48043 17.8818 9.29289 17.6943C9.10536 17.5068 9 17.2524 9 16.9872C9 16.722 9.10536 16.4676 9.29289 16.2801C9.48043 16.0925 9.73478 15.9872 10 15.9872ZM22 15.9872C22.2652 15.9872 22.5196 16.0925 22.7071 16.2801C22.8946 16.4676 23 16.722 23 16.9872C23 17.2524 22.8946 17.5068 22.7071 17.6943C22.5196 17.8818 22.2652 17.9872 22 17.9872C21.7348 17.9872 21.4804 17.8818 21.2929 17.6943C21.1054 17.5068 21 17.2524 21 16.9872C21 16.722 21.1054 16.4676 21.2929 16.2801C21.4804 16.0925 21.7348 15.9872 22 15.9872ZM7 24.4872C7.26522 24.4872 7.51957 24.5925 7.70711 24.7801C7.89464 24.9676 8 25.222 8 25.4872C8 25.7524 7.89464 26.0068 7.70711 26.1943C7.51957 26.3818 7.26522 26.4872 7 26.4872C6.73478 26.4872 6.48043 26.3818 6.29289 26.1943C6.10536 26.0068 6 25.7524 6 25.4872C6 25.222 6.10536 24.9676 6.29289 24.7801C6.48043 24.5925 6.73478 24.4872 7 24.4872ZM13 24.4872C13.2652 24.4872 13.5196 24.5925 13.7071 24.7801C13.8946 24.9676 14 25.222 14 25.4872C14 25.7524 13.8946 26.0068 13.7071 26.1943C13.5196 26.3818 13.2652 26.4872 13 26.4872C12.7348 26.4872 12.4804 26.3818 12.2929 26.1943C12.1054 26.0068 12 25.7524 12 25.4872C12 25.222 12.1054 24.9676 12.2929 24.7801C12.4804 24.5925 12.7348 24.4872 13 24.4872ZM19 24.4872C19.2652 24.4872 19.5196 24.5925 19.7071 24.7801C19.8946 24.9676 20 25.222 20 25.4872C20 25.7524 19.8946 26.0068 19.7071 26.1943C19.5196 26.3818 19.2652 26.4872 19 26.4872C18.7348 26.4872 18.4804 26.3818 18.2929 26.1943C18.1054 26.0068 18 25.7524 18 25.4872C18 25.222 18.1054 24.9676 18.2929 24.7801C18.4804 24.5925 18.7348 24.4872 19 24.4872ZM25 24.4872C25.2652 24.4872 25.5196 24.5925 25.7071 24.7801C25.8946 24.9676 26 25.222 26 25.4872C26 25.7524 25.8946 26.0068 25.7071 26.1943C25.5196 26.3818 25.2652 26.4872 25 26.4872C24.7348 26.4872 24.4804 26.3818 24.2929 26.1943C24.1054 26.0068 24 25.7524 24 25.4872C24 25.222 24.1054 24.9676 24.2929 24.7801C24.4804 24.5925 24.7348 24.4872 25 24.4872Z" fill="white"/>
</svg>
