<svg width="33" height="33" viewBox="0 0 33 33" fill="none" xmlns="http://www.w3.org/2000/svg">
<rect x="0.32959" y="0.179565" width="32" height="32" rx="4" fill="#D5D5D5"/>
<path d="M25.3296 7.17957H7.32959C6.79916 7.17957 6.29045 7.39028 5.91538 7.76535C5.5403 8.14042 5.32959 8.64913 5.32959 9.17957V23.1796C5.32959 23.71 5.5403 24.2187 5.91538 24.5938C6.29045 24.9689 6.79916 25.1796 7.32959 25.1796H25.3296C25.86 25.1796 26.3687 24.9689 26.7438 24.5938C27.1189 24.2187 27.3296 23.71 27.3296 23.1796V9.17957C27.3296 8.64913 27.1189 8.14042 26.7438 7.76535C26.3687 7.39028 25.86 7.17957 25.3296 7.17957ZM25.3296 23.1796H7.32959V9.17957H17.3296V13.1796H25.3296V23.1796Z" fill="white"/>
</svg>
