<svg width="33" height="33" viewBox="0 0 33 33" fill="none" xmlns="http://www.w3.org/2000/svg">
<rect x="0.32959" y="0.115601" width="32" height="32" rx="4" fill="#D5D5D5"/>
<path d="M9.32959 8.1156H23.3296C23.86 8.1156 24.3687 8.32631 24.7438 8.70139C25.1189 9.07646 25.3296 9.58517 25.3296 10.1156V22.1156C25.3296 22.646 25.1189 23.1547 24.7438 23.5298C24.3687 23.9049 23.86 24.1156 23.3296 24.1156H9.32959C8.79916 24.1156 8.29045 23.9049 7.91538 23.5298C7.5403 23.1547 7.32959 22.646 7.32959 22.1156V10.1156C7.32959 9.58517 7.5403 9.07646 7.91538 8.70139C8.29045 8.32631 8.79916 8.1156 9.32959 8.1156ZM9.32959 12.1156V16.1156H15.3296V12.1156H9.32959ZM17.3296 12.1156V16.1156H23.3296V12.1156H17.3296ZM9.32959 18.1156V22.1156H15.3296V18.1156H9.32959ZM17.3296 18.1156V22.1156H23.3296V18.1156H17.3296Z" fill="white"/>
</svg>
