<svg width="33" height="33" viewBox="0 0 33 33" fill="none" xmlns="http://www.w3.org/2000/svg">
<rect x="0.32959" y="0.0511475" width="32" height="32" rx="4" fill="#D5D5D5"/>
<path d="M16.3296 20.0511C17.4296 20.0511 18.3296 20.9511 18.3296 22.0511C18.3296 23.1511 17.4296 24.0511 16.3296 24.0511C15.2296 24.0511 14.3296 23.1511 14.3296 22.0511C14.3296 20.9511 15.2296 20.0511 16.3296 20.0511ZM16.3296 14.0511C17.4296 14.0511 18.3296 14.9511 18.3296 16.0511C18.3296 17.1511 17.4296 18.0511 16.3296 18.0511C15.2296 18.0511 14.3296 17.1511 14.3296 16.0511C14.3296 14.9511 15.2296 14.0511 16.3296 14.0511ZM16.3296 8.05115C17.4296 8.05115 18.3296 8.95115 18.3296 10.0511C18.3296 11.1511 17.4296 12.0511 16.3296 12.0511C15.2296 12.0511 14.3296 11.1511 14.3296 10.0511C14.3296 8.95115 15.2296 8.05115 16.3296 8.05115ZM10.3296 20.0511C11.4296 20.0511 12.3296 20.9511 12.3296 22.0511C12.3296 23.1511 11.4296 24.0511 10.3296 24.0511C9.22959 24.0511 8.32959 23.1511 8.32959 22.0511C8.32959 20.9511 9.22959 20.0511 10.3296 20.0511ZM10.3296 14.0511C11.4296 14.0511 12.3296 14.9511 12.3296 16.0511C12.3296 17.1511 11.4296 18.0511 10.3296 18.0511C9.22959 18.0511 8.32959 17.1511 8.32959 16.0511C8.32959 14.9511 9.22959 14.0511 10.3296 14.0511ZM10.3296 8.05115C11.4296 8.05115 12.3296 8.95115 12.3296 10.0511C12.3296 11.1511 11.4296 12.0511 10.3296 12.0511C9.22959 12.0511 8.32959 11.1511 8.32959 10.0511C8.32959 8.95115 9.22959 8.05115 10.3296 8.05115ZM22.3296 20.0511C23.4296 20.0511 24.3296 20.9511 24.3296 22.0511C24.3296 23.1511 23.4296 24.0511 22.3296 24.0511C21.2296 24.0511 20.3296 23.1511 20.3296 22.0511C20.3296 20.9511 21.2296 20.0511 22.3296 20.0511ZM22.3296 14.0511C23.4296 14.0511 24.3296 14.9511 24.3296 16.0511C24.3296 17.1511 23.4296 18.0511 22.3296 18.0511C21.2296 18.0511 20.3296 17.1511 20.3296 16.0511C20.3296 14.9511 21.2296 14.0511 22.3296 14.0511ZM22.3296 8.05115C23.4296 8.05115 24.3296 8.95115 24.3296 10.0511C24.3296 11.1511 23.4296 12.0511 22.3296 12.0511C21.2296 12.0511 20.3296 11.1511 20.3296 10.0511C20.3296 8.95115 21.2296 8.05115 22.3296 8.05115Z" fill="white"/>
</svg>
